<svg width="490" height="124" viewBox="0 0 490 124" fill="none" xmlns="http://www.w3.org/2000/svg">
<path d="M153.908 0.399466C153.908 0.782971 153.974 0.79895 155.109 0.79895C156.244 0.79895 156.31 0.782971 156.31 0.399466C156.31 0.0159605 156.244 -1.88686e-05 155.109 -1.88686e-05C153.974 -1.88686e-05 153.908 0.0159605 153.908 0.399466Z" fill="#010101"/>
<path d="M150.525 0.271694C150.284 0.303652 149.87 0.36757 149.608 0.415508C149.28 0.463446 149.106 0.607261 149.106 0.799013C149.106 1.15056 149.346 1.18252 150.699 1.02272C151.376 0.926848 151.507 0.846951 151.507 0.543343C151.507 0.159838 151.376 0.127879 150.525 0.271694Z" fill="#010101"/>
<path d="M158.711 0.463379C158.711 0.782967 159.279 0.95874 160.414 0.95874C160.96 0.95874 161.113 0.894823 161.113 0.655132C161.113 0.287606 160.698 0.159771 159.563 0.159771C158.864 0.159771 158.711 0.223689 158.711 0.463379Z" fill="#010101"/>
<path d="M212.328 0.303586C212.066 0.591214 212.481 0.95874 213.049 0.95874C214.053 0.95874 214.599 0.782967 214.599 0.463379C214.599 0.207709 214.424 0.159771 213.529 0.159771C212.918 0.159771 212.394 0.223689 212.328 0.303586Z" fill="#010101"/>
<path d="M217.044 0.511368C217.109 0.830956 217.262 0.878894 218.266 0.926832C219.358 0.97477 219.401 0.958791 219.401 0.575286C219.401 0.175801 219.336 0.159822 218.179 0.159822C217.044 0.159822 216.978 0.175801 217.044 0.511368Z" fill="#010101"/>
<path d="M208.661 0.751074C207.875 0.910867 207.613 1.05468 207.613 1.27839C207.613 1.43819 207.678 1.61396 207.787 1.64592C208.071 1.75777 210.014 1.26241 210.014 1.07066C209.992 0.59128 209.687 0.527362 208.661 0.751074Z" fill="#010101"/>
<path d="M221.803 0.862909C221.803 1.1825 221.956 1.26239 222.894 1.39023C224.073 1.566 224.204 1.53404 224.204 1.1026C224.204 0.894868 223.92 0.783013 223.113 0.655178C222.501 0.559301 221.956 0.479404 221.912 0.479404C221.847 0.479404 221.803 0.655178 221.803 0.862909Z" fill="#010101"/>
<path d="M163.449 0.942767C163.318 1.34225 163.339 1.34225 164.584 1.59792C165.348 1.74174 165.566 1.74174 165.719 1.56596C166.09 1.13452 165.828 0.974725 164.256 0.735035C163.689 0.639158 163.558 0.671117 163.449 0.942767Z" fill="#010101"/>
<path d="M145.329 1.08663C144.456 1.29436 144.325 1.39024 144.434 1.66189C144.521 1.85364 144.587 2.01343 144.63 2.02941C144.652 2.07735 146.726 1.59797 146.857 1.53405C146.966 1.47013 146.639 0.799001 146.508 0.81498C146.442 0.81498 145.918 0.942815 145.329 1.08663Z" fill="#010101"/>
<path d="M226.518 1.53406C226.278 1.9655 226.366 2.0454 227.392 2.33303C228.243 2.57272 228.418 2.57272 228.592 2.38096C228.898 2.02942 228.745 1.90158 227.654 1.582C226.759 1.32633 226.628 1.32633 226.518 1.53406Z" fill="#010101"/>
<path d="M204.054 2.01341C203.159 2.36496 203.05 2.44486 203.247 2.71651C203.465 3.02012 203.487 3.02012 204.447 2.68455C205.059 2.46084 205.43 2.22115 205.43 2.06135C205.43 1.61393 205.168 1.59795 204.054 2.01341Z" fill="#010101"/>
<path d="M168.033 2.0933C167.946 2.34897 168.099 2.4768 168.906 2.76443C169.889 3.11598 169.889 3.11598 170.194 2.79639C170.5 2.49278 170.456 2.46082 169.474 2.12525C168.164 1.69381 168.164 1.69381 168.033 2.0933Z" fill="#010101"/>
<path d="M140.766 2.41292C139.915 2.73251 139.696 3.132 140.242 3.29179C140.744 3.4356 142.404 2.73251 142.251 2.46086C142.185 2.31705 142.12 2.17323 142.12 2.14127C142.12 1.99746 141.53 2.10931 140.766 2.41292Z" fill="#010101"/>
<path d="M230.885 2.97216C230.819 3.11598 230.754 3.24381 230.754 3.27577C230.754 3.30773 231.19 3.51546 231.736 3.7232C232.718 4.12268 232.718 4.12268 232.958 3.80309C233.089 3.62732 233.155 3.46753 233.111 3.45155C232.718 3.24381 231.343 2.71649 231.19 2.71649C231.103 2.71649 230.95 2.82835 230.885 2.97216Z" fill="#010101"/>
<path d="M172.312 3.67525C172.072 3.9469 172.137 4.04278 173.032 4.4902C173.927 4.93762 174.08 4.96958 174.255 4.74587C174.364 4.60205 174.451 4.44226 174.451 4.37834C174.451 4.29845 172.77 3.35566 172.618 3.35566C172.596 3.35566 172.443 3.49948 172.312 3.67525Z" fill="#010101"/>
<path d="M199.928 3.80309C199.077 4.25052 198.946 4.45825 199.339 4.74588C199.513 4.87371 199.841 4.79381 200.539 4.42629C201.325 4.0268 201.434 3.89897 201.26 3.6433C200.976 3.27577 200.889 3.27577 199.928 3.80309Z" fill="#010101"/>
<path d="M136.728 4.17063C135.723 4.68197 135.636 4.8098 136.094 5.09743C136.313 5.22527 136.597 5.16135 137.295 4.79382C138.081 4.37836 138.168 4.2665 137.972 3.99485C137.841 3.81908 137.71 3.67527 137.688 3.67527C137.666 3.69125 137.23 3.89898 136.728 4.17063Z" fill="#010101"/>
<path d="M234.967 4.77782C234.749 5.03349 234.836 5.14535 235.6 5.59277C236.408 6.07215 236.495 6.08813 236.823 5.84844C237.172 5.59277 237.128 5.54483 236.32 5.03349C235.294 4.39432 235.294 4.39432 234.967 4.77782Z" fill="#010101"/>
<path d="M176.154 5.84844C175.914 6.05617 176.001 6.184 176.678 6.67936C177.442 7.22266 177.508 7.25462 177.857 6.98297C178.206 6.7273 178.184 6.67936 177.486 6.15204C176.656 5.51287 176.547 5.49689 176.154 5.84844Z" fill="#010101"/>
<path d="M196.195 6.20004C195.562 6.67942 195.453 6.8552 195.649 6.99901C196.064 7.30262 196.348 7.2387 197.134 6.63149C197.745 6.16808 197.811 6.04025 197.57 5.83252C197.177 5.49695 197.112 5.51293 196.195 6.20004Z" fill="#010101"/>
<path d="M132.885 6.5196C132.099 7.11083 132.078 7.14279 132.47 7.39846C132.842 7.65413 132.907 7.63815 133.649 7.06289C134.348 6.55155 134.413 6.4397 134.173 6.18403C134.02 6.04021 133.846 5.91238 133.78 5.91238C133.737 5.91238 133.322 6.18403 132.885 6.5196Z" fill="#010101"/>
<path d="M238.547 7.06288C238.22 7.25463 238.263 7.33453 238.962 7.86184C239.77 8.517 239.923 8.56494 240.316 8.27731C240.49 8.14947 240.403 7.95772 239.901 7.47834C239.158 6.80721 239.071 6.77525 238.547 7.06288Z" fill="#010101"/>
<path d="M179.451 8.38918C179.254 8.56496 179.32 8.74073 179.909 9.25207C180.477 9.77939 180.673 9.87527 181.001 9.73145C181.547 9.52372 181.525 9.50774 180.739 8.77269C179.997 8.08558 179.844 8.03764 179.451 8.38918Z" fill="#010101"/>
<path d="M193.03 8.86859C192.331 9.57168 192.331 9.57168 192.789 9.74746C193.03 9.85931 193.27 9.90725 193.292 9.87529C193.313 9.84333 193.619 9.5557 193.947 9.22014C194.449 8.74075 194.514 8.58096 194.296 8.38921C193.903 8.05364 193.837 8.0856 193.03 8.86859Z" fill="#010101"/>
<path d="M129.698 9.20411C129.021 9.89123 128.999 9.93916 129.37 10.1309C129.72 10.3227 129.851 10.2747 130.506 9.63556C130.92 9.25205 131.204 8.91648 131.161 8.88453C131.139 8.86855 130.942 8.77267 130.746 8.66081C130.462 8.50102 130.287 8.58092 129.698 9.20411Z" fill="#010101"/>
<path d="M241.494 9.79536C241.276 9.98711 241.669 10.5783 242.455 11.3134C242.477 11.3454 242.717 11.2974 242.957 11.1856C243.415 11.0098 243.415 11.0098 242.761 10.3067C242.04 9.53969 241.865 9.45979 241.494 9.79536Z" fill="#010101"/>
<path d="M182.311 11.1696C182.049 11.2814 182.114 11.4412 182.594 12.0484C183.206 12.8154 183.293 12.8634 183.795 12.6397C184.057 12.5278 183.992 12.368 183.511 11.7608C182.9 10.9938 182.813 10.9459 182.311 11.1696Z" fill="#010101"/>
<path d="M190.846 11.2335C190.737 11.3294 190.475 11.665 190.257 11.9686C189.886 12.4959 189.886 12.5278 190.279 12.7356C190.475 12.8474 190.672 12.9273 190.694 12.8954C190.715 12.8794 190.999 12.5278 191.327 12.1124C191.894 11.3933 191.916 11.3613 191.501 11.2016C191.174 11.0737 190.999 11.0897 190.846 11.2335Z" fill="#010101"/>
<path d="M127.013 12.2402C126.598 12.8634 126.576 12.9753 126.838 13.1031C127.362 13.3588 127.471 13.2949 127.973 12.5278C128.388 11.9046 128.41 11.7928 128.148 11.665C127.624 11.4093 127.515 11.4732 127.013 12.2402Z" fill="#010101"/>
<path d="M243.918 12.7356C243.547 12.8315 243.568 12.9433 244.07 13.8222C244.442 14.4773 244.551 14.5413 244.944 14.3815C245.359 14.2217 245.359 14.2057 244.966 13.4706C244.551 12.7036 244.398 12.5918 243.918 12.7356Z" fill="#010101"/>
<path d="M184.646 14.2376C184.297 14.3814 184.297 14.4454 184.756 15.1484C185.018 15.5639 185.236 15.9155 185.258 15.9474C185.28 15.9794 185.498 15.9314 185.76 15.8356C186.196 15.6598 186.196 15.6598 185.716 14.8608C185.192 13.9979 185.192 13.9979 184.646 14.2376Z" fill="#010101"/>
<path d="M188.205 14.8928C187.943 15.3402 187.768 15.7237 187.79 15.7397C187.834 15.7717 188.052 15.8196 188.292 15.8835C188.642 15.9634 188.794 15.8516 189.122 15.2923C189.58 14.4614 189.58 14.4294 189.078 14.2376C188.729 14.0938 188.62 14.1737 188.205 14.8928Z" fill="#010101"/>
<path d="M125.004 15.4201C124.611 16.1551 124.677 16.4587 125.223 16.4587C125.681 16.4587 126.511 15.0046 126.139 14.8288C125.594 14.5892 125.375 14.701 125.004 15.4201Z" fill="#010101"/>
<path d="M245.424 16.1232C245.206 16.2191 245.184 16.3949 245.402 16.9861C245.62 17.6253 245.73 17.7371 246.188 17.7371C246.581 17.7371 246.69 17.6732 246.603 17.4495C246.537 17.3057 246.428 16.9062 246.341 16.5706C246.21 15.9794 245.97 15.8675 245.424 16.1232Z" fill="#010101"/>
<path d="M186.306 17.6572C186.197 17.849 186.371 18.4083 186.808 19.3351C186.873 19.4629 187.092 19.1593 187.332 18.632C187.659 17.881 187.703 17.6572 187.485 17.5454C187.026 17.3536 186.437 17.4016 186.306 17.6572Z" fill="#010101"/>
<path d="M123.694 18.3283C123.629 18.4881 123.52 18.8876 123.432 19.2232C123.301 19.7984 123.323 19.8464 123.804 19.7824C124.197 19.7505 124.349 19.5747 124.568 18.9835C124.699 18.568 124.764 18.2005 124.699 18.1526C124.437 17.9448 123.804 18.0727 123.694 18.3283Z" fill="#010101"/>
<path d="M246.035 19.7665C246.035 19.9263 246.101 20.3258 246.188 20.6614C246.297 21.1567 246.384 21.2686 246.777 21.2206C247.039 21.1887 247.214 21.1248 247.192 21.0449C247.149 20.981 247.127 20.6134 247.127 20.2139C247.127 19.5588 247.083 19.4949 246.581 19.4949C246.21 19.4949 246.035 19.5748 246.035 19.7665Z" fill="#010101"/>
<path d="M122.821 21.7959C122.756 21.9716 122.69 22.4031 122.69 22.7227C122.69 23.266 122.756 23.3299 123.236 23.3299C123.76 23.3299 123.782 23.282 123.782 22.467C123.782 21.7639 123.716 21.5881 123.367 21.5242C123.061 21.4763 122.908 21.5562 122.821 21.7959Z" fill="#010101"/>
<path d="M246.254 23.7294C246.254 24.1289 246.254 24.4964 246.254 24.5603C246.232 24.6402 246.428 24.7042 246.647 24.7361C246.974 24.7681 247.105 24.6562 247.214 24.2727C247.476 23.282 247.389 23.0103 246.799 23.0103C246.297 23.0103 246.254 23.0743 246.254 23.7294Z" fill="#010101"/>
<path d="M122.69 25.3593C122.69 25.5191 122.756 25.9186 122.843 26.2541C122.952 26.7495 123.039 26.8614 123.432 26.8134C123.694 26.7815 123.891 26.6696 123.869 26.5577C123.847 26.4619 123.825 26.0784 123.825 25.7268C123.782 25.1516 123.716 25.0876 123.236 25.0876C122.865 25.0876 122.69 25.1675 122.69 25.3593Z" fill="#010101"/>
<path d="M245.948 26.5578C245.882 26.6696 245.817 27.0691 245.751 27.4366C245.664 28.0279 245.708 28.1078 246.144 28.1717C246.603 28.2356 246.668 28.1557 246.799 27.4366C246.908 26.8454 246.887 26.6057 246.668 26.5098C246.254 26.3181 246.035 26.3341 245.948 26.5578Z" fill="#010101"/>
<path d="M123.716 28.5552C123.476 28.6031 123.367 28.7309 123.432 28.8907C123.498 29.0345 123.607 29.434 123.694 29.7696C123.804 30.2969 123.891 30.3608 124.306 30.265C124.546 30.201 124.786 30.1531 124.808 30.1371C124.895 30.0892 124.349 28.4433 124.24 28.4593C124.175 28.4753 123.935 28.5072 123.716 28.5552Z" fill="#010101"/>
<path d="M245.075 30.4727C244.856 31.4474 244.9 31.6392 245.359 31.6392C245.904 31.6392 245.948 31.5752 246.123 30.6325C246.275 29.9134 246.254 29.8814 245.752 29.8814C245.315 29.8814 245.206 29.9773 245.075 30.4727Z" fill="#010101"/>
<path d="M124.611 32.0546C124.415 32.1825 125.157 33.7165 125.397 33.7165C126.03 33.7005 126.118 33.4768 125.812 32.7098C125.594 32.1825 125.397 31.9588 125.113 31.9588C124.895 31.9588 124.677 32.0067 124.611 32.0546Z" fill="#010101"/>
<path d="M244.07 33.9082C243.939 34.2917 243.808 34.6593 243.787 34.7392C243.765 34.8191 243.961 34.9309 244.223 35.0108C244.638 35.1227 244.703 35.0588 244.944 34.3237C245.162 33.6686 245.162 33.4928 244.922 33.3809C244.42 33.1412 244.311 33.2052 244.07 33.9082Z" fill="#010101"/>
<path d="M126.336 35.3624C126.03 35.5382 126.03 35.6181 126.358 36.2572C126.751 36.9923 126.991 37.1521 127.449 36.9443C127.646 36.8325 127.646 36.6567 127.362 36.0655C126.969 35.2026 126.816 35.0907 126.336 35.3624Z" fill="#010101"/>
<path d="M242.87 36.7366C242.804 36.8325 242.608 37.184 242.433 37.5356C242.171 38.0948 242.171 38.1747 242.477 38.2546C243.044 38.4144 243.132 38.3665 243.525 37.6154C243.852 36.9923 243.852 36.8484 243.612 36.7366C243.219 36.5608 243.044 36.5608 242.87 36.7366Z" fill="#010101"/>
<path d="M127.973 38.6541C127.733 38.766 127.755 38.9258 128.148 39.4851C128.759 40.3639 128.694 40.316 129.196 40.2041C129.632 40.0923 129.632 40.0923 129.174 39.3093C128.715 38.5103 128.519 38.3985 127.973 38.6541Z" fill="#010101"/>
<path d="M240.796 40.5397C240.272 41.4185 240.272 41.3386 240.796 41.5464C241.189 41.7062 241.276 41.6423 241.669 40.9871C242.215 40.0603 242.215 40.0124 241.669 39.9005C241.32 39.8366 241.145 39.9644 240.796 40.5397Z" fill="#010101"/>
<path d="M130.113 41.866C129.829 41.9938 129.851 42.1217 130.309 42.7449C130.855 43.5119 130.92 43.5438 131.423 43.3042C131.685 43.1763 131.663 43.0645 131.248 42.4413C130.746 41.6743 130.637 41.6103 130.113 41.866Z" fill="#010101"/>
<path d="M238.635 43.7356C238.242 44.3268 238.198 44.5026 238.438 44.5985C238.897 44.8222 238.984 44.7742 239.595 44.0072C240.075 43.416 240.141 43.2402 239.901 43.1284C239.355 42.8727 239.137 42.9846 238.635 43.7356Z" fill="#010101"/>
<path d="M132.449 44.934C132.143 45.1258 132.143 45.2057 132.667 45.8129C133.213 46.5 133.737 46.6918 133.955 46.2763C134.042 46.0845 133.104 44.7423 132.885 44.7423C132.842 44.7423 132.645 44.8382 132.449 44.934Z" fill="#010101"/>
<path d="M236.19 46.7237C235.622 47.3948 235.622 47.4108 236.059 47.6026C236.517 47.8263 236.452 47.8742 237.347 46.8356C237.718 46.4041 237.74 46.2763 237.499 46.1644C236.975 45.9247 236.779 46.0046 236.19 46.7237Z" fill="#010101"/>
<path d="M134.937 47.9861C134.763 48.1459 134.872 48.3696 135.374 48.865C135.942 49.4402 136.094 49.5041 136.444 49.3443C136.88 49.1366 136.859 49.0887 136.051 48.2897C135.461 47.7304 135.309 47.6825 134.937 47.9861Z" fill="#010101"/>
<path d="M233.461 49.5521C232.871 50.1753 232.871 50.2232 233.242 50.431C233.613 50.6227 233.722 50.5748 234.356 49.9676C234.88 49.4882 235.011 49.2325 234.858 49.0887C234.465 48.7531 234.115 48.881 233.461 49.5521Z" fill="#010101"/>
<path d="M137.775 50.7985C137.535 50.9103 137.622 51.0861 138.19 51.6773C138.801 52.3005 138.976 52.3804 139.26 52.2206C139.456 52.1088 139.653 52.0129 139.696 51.9809C139.806 51.933 138.408 50.6546 138.234 50.6546C138.146 50.6546 137.95 50.7186 137.775 50.7985Z" fill="#010101"/>
<path d="M230.579 52.1407C229.793 52.7319 229.706 52.9716 230.251 53.1314C230.819 53.2752 232.194 52.1727 231.823 51.8371C231.474 51.5175 231.365 51.5495 230.579 52.1407Z" fill="#010101"/>
<path d="M30.3232 53.499C28.4021 54.4098 26.1754 56.583 25.2148 58.5325C23.8831 61.201 23.512 65.9949 24.407 68.4557C24.669 69.1588 25.0838 69.9737 25.3239 70.2614C25.9134 70.9964 25.8697 71.0923 25.1493 70.5969C24.8218 70.3732 24.2324 70.1495 23.8613 70.1175C23.2063 70.0536 23.1627 70.0696 23.2937 70.4371C23.4028 70.8047 23.3592 70.8206 22.8352 70.7567C22.3986 70.6928 22.3113 70.7248 22.4641 70.8366C22.5951 70.9325 22.7042 71.1722 22.7042 71.348C22.7042 71.5397 22.9444 71.8593 23.25 72.067C23.9268 72.5304 23.8394 72.6263 22.988 72.3067C20.019 71.2201 13.0768 71.4758 7.96831 72.866C6.15634 73.3614 3.99507 74.416 2.42324 75.5665C1.13521 76.5093 0 77.8516 0 78.4268C0 78.8902 0.829578 79.3536 3.07817 80.1206C4.23521 80.5201 6.11268 81.3031 7.24789 81.8624C9.56197 83.0129 10.8063 83.3165 12.269 83.0608C13.2732 82.9011 14.7141 82.182 16.0458 81.1913C16.5042 80.8237 16.9627 80.5361 17.05 80.5361C17.1155 80.5361 17.1373 81.0315 17.0718 81.6547C16.9845 82.5495 17.0718 83.0129 17.5521 84.0995C18.4254 86.1928 20.3901 87.599 23.0317 88.0624C23.643 88.1583 24.5599 88.4299 25.0838 88.6377C26.0225 89.0371 26.1099 89.0371 28.0528 88.8773C29.8211 88.7335 30.3014 88.6217 31.9606 87.9505C33.2704 87.4392 34.0345 87.0237 34.4056 86.6242C34.6894 86.3047 35.1479 85.8572 35.4099 85.6016C35.8683 85.1861 35.8683 85.1222 35.6063 84.0835C35.4535 83.4923 35.257 82.7253 35.1697 82.3737C34.9951 81.6547 34.1873 80.3603 32.6592 78.3309C32.0916 77.6119 31.7204 77.0206 31.8077 77.0206C31.9169 77.0206 32.8993 77.5959 33.9908 78.299C36.1958 79.6892 36.8944 80.0248 36.8944 79.7212C36.8944 79.6093 35.8901 78.7943 34.6676 77.8835C33.4451 76.9727 32.5063 76.2217 32.5937 76.2217C32.681 76.2217 33.5761 76.5093 34.6021 76.8608C35.6282 77.2124 37.1563 77.6758 38.0296 77.8835C39.5577 78.2511 42.7451 78.5866 43.8803 78.4907C44.8627 78.3949 46.6092 76.9088 47.5916 75.3108C48.3775 74.0165 48.4648 73.7289 48.4648 72.6103C48.4648 71.3799 48.443 71.3 47.0239 69.2227C45.7359 67.3212 45.4303 67.0016 44.3824 66.3943C43.0725 65.6433 42.3521 65.4516 39.9289 65.1799C38.5754 65.0201 38.1169 65.0361 37.1563 65.2279C36.5451 65.3717 36.0211 65.4356 36.0211 65.4036C36.0211 65.3557 36.5451 64.8284 37.2 64.2531C38.619 62.9748 39.0338 62.3835 39.2085 61.4567C39.4049 60.498 38.6627 59.3634 36.8944 57.9253C36.1521 57.3021 35.1916 56.3753 34.7768 55.848C32.3099 52.732 32.157 52.6521 30.3232 53.499Z" fill="#010101"/>
<path d="M140.788 53.6268C140.548 53.8346 140.635 53.9624 141.312 54.4578C142.032 54.9691 142.142 55.0171 142.447 54.7933C142.731 54.5856 142.709 54.4897 142.098 53.9624C141.356 53.3073 141.203 53.2593 140.788 53.6268Z" fill="#010101"/>
<path d="M227.261 54.7294C226.562 55.2567 226.54 55.3046 226.889 55.5603C227.239 55.832 227.304 55.8 228.068 55.2567C228.745 54.7613 228.832 54.6335 228.592 54.4258C228.199 54.0742 228.09 54.0902 227.261 54.7294Z" fill="#010101"/>
<path d="M144.085 56.1676C143.844 56.3753 143.91 56.5031 144.521 56.9665C145.329 57.5897 145.722 57.6537 145.918 57.2542C146.006 57.0784 145.831 56.8067 145.351 56.4552C144.565 55.848 144.456 55.832 144.085 56.1676Z" fill="#010101"/>
<path d="M223.855 57.1103C223.047 57.6376 223.025 57.6696 223.397 57.9412C223.768 58.2289 223.811 58.2129 224.575 57.6376C225.318 57.1103 225.361 57.0304 225.056 56.8067C224.75 56.583 224.641 56.615 223.855 57.1103Z" fill="#010101"/>
<path d="M147.578 58.5644C147.337 58.7722 147.403 58.9 148.014 59.3634C148.822 59.9706 149.128 60.0345 149.521 59.7149C149.695 59.5552 149.608 59.4113 149.149 59.1077C147.992 58.3407 147.883 58.2928 147.578 58.5644Z" fill="#010101"/>
<path d="M220.275 59.5232C219.62 60.0186 219.576 60.1144 219.86 60.3222C220.166 60.5459 220.275 60.5139 221.039 60.0345C221.803 59.5552 221.868 59.4593 221.606 59.2196C221.213 58.868 221.126 58.884 220.275 59.5232Z" fill="#010101"/>
<path d="M151.332 60.7536C150.896 61.0732 151.027 61.2969 151.922 61.7603C153.385 62.4954 153.821 61.8722 152.424 61.0572C151.769 60.6897 151.507 60.6258 151.332 60.7536Z" fill="#010101"/>
<path d="M216.782 61.9201C216.127 62.4155 216.083 62.5114 216.367 62.7191C216.673 62.9428 216.782 62.9108 217.546 62.4315C218.31 61.9521 218.375 61.8562 218.113 61.6165C217.72 61.265 217.633 61.2809 216.782 61.9201Z" fill="#010101"/>
<path d="M19.2113 61.7923C19.2113 61.8562 19.4733 62.1918 19.8226 62.5433C20.15 62.8789 20.674 63.7577 21.0014 64.4608C21.3289 65.1799 21.5909 65.6753 21.5909 65.5794C21.6345 65.2278 20.5212 62.6232 20.1719 62.2397C19.8444 61.8722 19.2113 61.5845 19.2113 61.7923Z" fill="#010101"/>
<path d="M155 63.0387C154.847 63.1825 154.76 63.3103 154.803 63.3263C154.847 63.3583 155.284 63.598 155.786 63.8856C156.463 64.2691 156.746 64.333 156.921 64.2052C157.336 63.9016 157.227 63.7098 156.332 63.2304C155.327 62.7191 155.349 62.7351 155 63.0387Z" fill="#010101"/>
<path d="M213.442 64.3649C212.699 64.9242 212.656 65.0041 212.961 65.1959C213.267 65.3876 213.42 65.3237 214.118 64.8283C214.839 64.301 214.882 64.2211 214.577 63.9974C214.293 63.7897 214.162 63.8216 213.442 64.3649Z" fill="#010101"/>
<path d="M158.973 65.0681C158.58 65.3557 158.646 65.4516 159.606 66.0108C160.436 66.4902 160.523 66.5062 160.851 66.2505C161.2 66.0108 161.178 65.9629 160.567 65.5954C159.541 64.9562 159.235 64.8763 158.973 65.0681Z" fill="#010101"/>
<path d="M21.6344 66.0907C21.6344 66.2665 21.6986 66.3145 21.7627 66.1866C21.8269 66.0748 21.8055 65.931 21.7413 65.883C21.6772 65.8191 21.6131 65.915 21.6344 66.0907Z" fill="#010101"/>
<path d="M210.036 66.9057C209.425 67.433 209.403 67.5288 209.687 67.7366C209.992 67.9603 210.101 67.9124 210.822 67.401C211.499 66.9057 211.586 66.7778 211.346 66.5701C210.931 66.2026 210.778 66.2505 210.036 66.9057Z" fill="#010101"/>
<path d="M162.641 67.3531C162.401 67.5608 162.466 67.6887 163.078 68.1521C163.885 68.7593 164.191 68.8232 164.584 68.4876C164.78 68.3119 164.649 68.1521 163.951 67.6887C162.947 67.0175 162.99 67.0335 162.641 67.3531Z" fill="#010101"/>
<path d="M22.2893 68.0082C22.2893 68.184 22.3535 68.2319 22.4176 68.1041C22.4818 67.9923 22.4604 67.8484 22.3962 67.8005C22.3321 67.7366 22.268 67.8325 22.2893 68.0082Z" fill="#010101"/>
<path d="M10.7408 68.7433C10.8718 69.0309 12.269 69.5103 13.2514 69.6062L14.081 69.6701L13.1641 69.4624C12.6838 69.3345 11.9634 69.0789 11.6141 68.8871C10.8718 68.5036 10.6317 68.4717 10.7408 68.7433Z" fill="#010101"/>
<path d="M206.98 69.4304C206.216 70.0696 206.172 70.1974 206.587 70.4531C206.805 70.5809 207.001 70.517 207.416 70.1815C208.508 69.3026 208.551 69.2227 208.093 69.0469C207.722 68.9031 207.547 68.967 206.98 69.4304Z" fill="#010101"/>
<path d="M166.134 69.75C165.959 69.8938 165.937 70.0536 166.046 70.1175C166.156 70.1815 166.549 70.4371 166.942 70.6928C167.531 71.0923 167.706 71.1242 167.989 70.9485C168.295 70.7567 168.251 70.6768 167.509 70.1175C166.592 69.4304 166.527 69.4145 166.134 69.75Z" fill="#010101"/>
<path d="M14.474 69.7817C14.6705 69.814 14.9762 69.814 15.129 69.7817C15.26 69.7334 15.1071 69.7012 14.736 69.7012C14.3867 69.7012 14.2557 69.7334 14.474 69.7817Z" fill="#010101"/>
<path d="M15.7839 69.9416C15.9803 69.9738 16.3296 69.9738 16.548 69.9416C16.7444 69.8933 16.5698 69.8611 16.155 69.8611C15.7402 69.8611 15.5656 69.8933 15.7839 69.9416Z" fill="#010101"/>
<path d="M17.9015 70.1495C19.0149 70.3572 20.805 70.501 20.0409 70.3253C19.7134 70.2454 18.9275 70.1335 18.2944 70.0856C17.3557 70.0217 17.2902 70.0217 17.9015 70.1495Z" fill="#010101"/>
<path d="M203.749 72.2108C203.225 72.6742 203.115 72.866 203.312 73.0098C203.727 73.3134 204.011 73.2175 204.731 72.5623C205.233 72.1149 205.342 71.9072 205.146 71.7634C204.753 71.4757 204.491 71.5556 203.749 72.2108Z" fill="#010101"/>
<path d="M169.649 72.1629C169.387 72.3866 169.474 72.4985 170.194 73.0418C170.827 73.5052 171.089 73.617 171.308 73.4892C171.461 73.3773 171.592 73.2655 171.592 73.2016C171.592 73.0897 170.129 71.9072 170.02 71.9072C169.976 71.9232 169.823 72.0351 169.649 72.1629Z" fill="#010101"/>
<path d="M200.911 74.7835C200.19 75.4387 200.103 75.6784 200.561 75.8062C201.085 75.966 202.461 74.8155 202.111 74.5119C201.762 74.2083 201.435 74.2722 200.911 74.7835Z" fill="#010101"/>
<path d="M173.054 74.7356C172.749 75.0072 172.77 75.0711 173.491 75.6464C174.189 76.1897 174.299 76.2376 174.604 76.0139C174.888 75.7902 174.866 75.6943 174.233 75.1191C173.84 74.7515 173.491 74.4639 173.469 74.4639C173.425 74.4639 173.251 74.5917 173.054 74.7356Z" fill="#010101"/>
<path d="M197.898 77.6598C197.396 78.1871 197.352 78.3309 197.57 78.5387C197.963 78.8742 198.051 78.8423 198.728 78.1232C199.23 77.6119 199.317 77.4361 199.099 77.2603C198.706 76.9088 198.575 76.9567 197.898 77.6598Z" fill="#010101"/>
<path d="M176.176 77.4201C175.98 77.5959 176.045 77.7717 176.635 78.283C177.224 78.8263 177.399 78.9062 177.682 78.7464C177.879 78.6346 178.075 78.5387 178.119 78.5067C178.228 78.4588 176.787 77.1804 176.613 77.1804C176.525 77.1804 176.329 77.2923 176.176 77.4201Z" fill="#010101"/>
<path d="M195.104 80.4083C194.492 81.0475 194.449 81.4949 195.016 81.4949C195.3 81.4949 196.479 80.4243 196.479 80.1686C196.479 80.1206 196.304 80.0088 196.108 79.9129C195.78 79.8011 195.584 79.8969 195.104 80.4083Z" fill="#010101"/>
<path d="M179.232 80.1366C179.014 80.3283 179.101 80.4881 179.669 81.0154C180.258 81.5587 180.433 81.6227 180.782 81.4788C181.197 81.319 181.175 81.2871 180.52 80.616C179.734 79.833 179.625 79.785 179.232 80.1366Z" fill="#010101"/>
<path d="M37.1345 80.2645C36.7633 80.6 37.6366 81.1433 38.095 80.8557C38.4007 80.6639 38.4007 80.616 38.0732 80.3603C37.6366 79.9928 37.4619 79.9928 37.1345 80.2645Z" fill="#010101"/>
<path d="M39.8022 81.9601C39.5541 82.1749 39.6154 82.289 40.315 82.8742C41.0581 83.4611 41.1873 83.5137 41.479 83.3006C41.7926 83.0882 41.7307 82.9899 40.9663 82.3864C40.2019 81.7828 40.0728 81.7301 39.8022 81.9601Z" fill="#010101"/>
<path d="M182.245 82.8851C181.896 83.1248 181.918 83.1887 182.551 83.8279C183.118 84.4191 183.293 84.499 183.577 84.3392C183.773 84.2273 183.97 84.1315 184.013 84.0995C184.057 84.0835 182.725 82.6134 182.616 82.6134C182.616 82.6134 182.442 82.7253 182.245 82.8851Z" fill="#010101"/>
<path d="M192.266 83.2686C191.763 83.7799 191.676 83.9557 191.894 84.1315C192.287 84.483 192.418 84.4351 193.095 83.732C193.597 83.2047 193.641 83.0609 193.423 82.8531C193.03 82.5176 192.942 82.5495 192.266 83.2686Z" fill="#010101"/>
<path d="M43.0043 84.6035C42.8239 84.7568 42.9696 84.954 43.6066 85.457C44.3928 86.0613 44.4789 86.0965 44.8149 85.8689C45.1503 85.6573 45.1096 85.5759 44.3653 85.021C43.4287 84.3472 43.3638 84.3288 43.0043 84.6035Z" fill="#010101"/>
<path d="M185.061 85.7294C184.668 85.9372 184.69 85.9851 185.345 86.6882C185.934 87.3274 186.087 87.3913 186.393 87.2155C186.611 87.1036 186.808 87.0078 186.851 86.9758C186.895 86.9598 186.109 86.0969 185.585 85.6176C185.498 85.5536 185.28 85.6016 185.061 85.7294Z" fill="#010101"/>
<path d="M189.493 86.1608C188.86 86.8 188.838 86.8479 189.209 87.0557C189.558 87.2315 189.668 87.1995 190.104 86.816C190.999 86.017 191.065 85.8412 190.584 85.6495C190.213 85.5057 190.06 85.5696 189.493 86.1608Z" fill="#010101"/>
<path d="M46.5 87.0077C46.2599 87.2155 46.3254 87.3433 46.9367 87.8067C47.7226 88.4139 48.0064 88.4779 48.4212 88.1742C48.6176 88.0304 48.5085 87.8547 47.8754 87.3753C46.9585 86.6882 46.893 86.6722 46.5 87.0077Z" fill="#010101"/>
<path d="M186.786 89.0212C186.218 89.6284 186.196 89.7083 186.546 89.948C186.873 90.1876 186.917 90.1717 187.332 89.8041L187.746 89.4047L188.205 89.8361C188.576 90.2036 188.729 90.2516 189.078 90.1078C189.471 89.9639 189.493 89.916 189.166 89.5165C188.554 88.7655 188.314 88.5737 187.834 88.4619C187.463 88.382 187.266 88.4938 186.786 89.0212Z" fill="#010101"/>
<path d="M49.993 89.4047C49.7528 89.6124 49.8183 89.7402 50.4296 90.2036C51.2155 90.8108 51.4993 90.8748 51.9141 90.5712C52.1106 90.4273 52.0014 90.2516 51.3683 89.7722C50.4514 89.0851 50.3859 89.0691 49.993 89.4047Z" fill="#010101"/>
<path d="M184.035 91.9454C183.38 92.6644 183.38 92.6644 183.839 92.8402C184.319 93.032 184.45 92.9521 185.236 92.0093C185.563 91.6098 185.542 91.5619 185.149 91.4021C184.778 91.2583 184.625 91.3382 184.035 91.9454Z" fill="#010101"/>
<path d="M190.344 91.5938C190.017 91.7536 190.039 91.8495 190.628 92.5366C191.196 93.2237 191.305 93.2876 191.698 93.1119C191.916 93.016 192.091 92.8882 192.069 92.8402C191.742 92.3928 190.89 91.4021 190.803 91.4181C190.737 91.4181 190.541 91.498 190.344 91.5938Z" fill="#010101"/>
<path d="M53.5295 91.7536C53.1366 92.0413 53.2021 92.1371 54.1626 92.6964C54.9486 93.1598 55.0795 93.1758 55.3852 92.9681C55.6908 92.7444 55.6253 92.6645 54.8831 92.1371C53.9225 91.498 53.9007 91.482 53.5295 91.7536Z" fill="#010101"/>
<path d="M57.0007 94.1665C56.826 94.3263 56.9789 94.5181 57.6338 94.9975C58.4852 95.6047 58.507 95.6047 58.8345 95.3011C59.1183 95.0294 59.0965 94.9655 58.3324 94.4861C57.4155 93.8949 57.35 93.8789 57.0007 94.1665Z" fill="#010101"/>
<path d="M181.306 94.7578C180.804 95.2851 180.76 95.4289 180.979 95.6366C181.372 95.9722 181.459 95.9402 182.136 95.2212C182.638 94.7098 182.725 94.5341 182.507 94.3583C182.114 94.0067 181.983 94.0547 181.306 94.7578Z" fill="#010101"/>
<path d="M192.92 94.6139C192.571 94.7577 192.593 94.8376 193.204 95.4928C193.794 96.116 193.946 96.1799 194.318 96.0201C194.711 95.8763 194.732 95.8123 194.449 95.5087C194.274 95.317 194.012 94.9974 193.837 94.7897C193.488 94.3902 193.466 94.3902 192.92 94.6139Z" fill="#010101"/>
<path d="M60.6683 96.4515C60.45 96.6593 60.5155 96.7871 61.1923 97.2665C61.8472 97.7618 62.0218 97.8258 62.3056 97.65C62.8078 97.3464 62.7423 97.2345 61.8035 96.6912C61.0613 96.2598 60.9303 96.2278 60.6683 96.4515Z" fill="#010101"/>
<path d="M178.359 97.4902C177.704 98.0814 177.682 98.1613 178.01 98.401C178.316 98.6407 178.403 98.6088 179.101 98.0175C179.996 97.2825 180.018 97.2186 179.473 97.0108C179.145 96.867 178.949 96.9629 178.359 97.4902Z" fill="#010101"/>
<path d="M195.606 97.5542C195.322 97.7938 195.409 97.9377 196.37 98.8325C196.675 99.1201 196.719 99.1201 197.046 98.8804C197.374 98.6408 197.352 98.5768 196.785 97.9696C196.086 97.2505 195.999 97.2186 195.606 97.5542Z" fill="#010101"/>
<path d="M64.2486 98.7366C64.0085 99.0242 64.074 99.1201 64.7944 99.5356C65.7113 100.095 65.7768 100.111 66.1261 99.8072C66.3444 99.6155 66.2352 99.4716 65.5585 99.0082C65.1 98.6887 64.6852 98.433 64.6198 98.433C64.5543 98.433 64.3796 98.5768 64.2486 98.7366Z" fill="#010101"/>
<path d="M175.194 100.031C174.386 100.638 174.364 100.686 174.713 100.942C175.063 101.213 175.128 101.181 175.98 100.574C176.809 99.9511 176.831 99.9191 176.438 99.6634C176.067 99.4078 176.001 99.4237 175.194 100.031Z" fill="#010101"/>
<path d="M198.684 100.239C198.509 100.398 198.662 100.59 199.317 101.07C200.125 101.645 200.212 101.677 200.539 101.437C200.867 101.213 200.823 101.134 200.059 100.606C199.099 99.967 199.033 99.9511 198.684 100.239Z" fill="#010101"/>
<path d="M67.8944 100.974C67.7197 101.229 67.8071 101.357 68.5711 101.805C69.4007 102.284 69.488 102.3 69.8155 102.044C70.1648 101.805 70.143 101.757 69.5317 101.389C68.3965 100.686 68.1564 100.638 67.8944 100.974Z" fill="#010101"/>
<path d="M171.744 102.556C171.024 103.083 170.958 103.211 171.242 103.371C171.635 103.61 172.115 103.451 172.88 102.843C173.316 102.508 173.36 102.396 173.12 102.188C172.727 101.853 172.661 101.869 171.744 102.556Z" fill="#010101"/>
<path d="M202.177 102.652C201.827 102.955 203.639 104.09 204.054 103.834C204.469 103.578 204.404 103.435 203.639 102.907C202.832 102.38 202.548 102.332 202.177 102.652Z" fill="#010101"/>
<path d="M71.5838 103.163C71.3437 103.371 71.4092 103.466 71.9549 103.802C73.0683 104.489 73.3085 104.537 73.5704 104.202C73.7451 103.946 73.6577 103.818 72.9373 103.403C71.9549 102.827 71.9549 102.827 71.5838 103.163Z" fill="#010101"/>
<path d="M168.251 104.761C167.553 105.224 167.465 105.368 167.662 105.64C167.902 105.943 167.946 105.927 168.884 105.368C169.801 104.809 169.845 104.761 169.496 104.489C169.277 104.313 169.103 104.186 169.103 104.186C169.081 104.186 168.71 104.441 168.251 104.761Z" fill="#010101"/>
<path d="M206.128 104.697C205.692 105.017 205.823 105.24 206.761 105.72C207.635 106.151 207.678 106.167 207.962 105.863C208.137 105.704 208.246 105.56 208.202 105.544C208.18 105.528 207.766 105.304 207.263 105.017C206.587 104.633 206.303 104.569 206.128 104.697Z" fill="#010101"/>
<path d="M75.4478 105.288C75.1204 105.544 75.164 105.608 76.1027 106.103C76.9978 106.566 77.1506 106.598 77.3253 106.375C77.6091 105.991 77.5873 105.959 76.6485 105.464C75.8408 105.032 75.7753 105.016 75.4478 105.288Z" fill="#010101"/>
<path d="M164.431 106.902C163.623 107.334 163.536 107.413 163.776 107.685C164.06 108.037 164.278 107.989 165.37 107.318C165.959 106.966 166.003 106.902 165.675 106.662C165.37 106.439 165.261 106.455 164.431 106.902Z" fill="#010101"/>
<path d="M209.818 106.966C209.599 107.158 209.73 107.286 210.538 107.685C211.695 108.26 211.673 108.26 211.957 107.877C212.153 107.621 212.044 107.509 211.324 107.158C210.32 106.678 210.167 106.662 209.818 106.966Z" fill="#010101"/>
<path d="M79.2683 107.365C79.05 107.637 79.1374 107.749 79.9669 108.164C80.6874 108.532 80.993 108.596 81.1895 108.452C81.5824 108.164 81.4733 107.957 80.6 107.541C79.5085 106.998 79.5303 106.998 79.2683 107.365Z" fill="#010101"/>
<path d="M160.698 108.756C160.283 108.963 159.847 109.155 159.737 109.187C159.606 109.219 159.628 109.379 159.781 109.587L160.021 109.922L161.004 109.491C162.008 109.043 162.182 108.82 161.724 108.532C161.528 108.42 161.222 108.484 160.698 108.756Z" fill="#010101"/>
<path d="M213.856 108.931C213.704 109.235 213.747 109.283 214.839 109.746C215.428 110.002 215.668 110.05 215.865 109.906C216.258 109.619 216.192 109.507 215.319 109.059C214.358 108.596 214.053 108.564 213.856 108.931Z" fill="#010101"/>
<path d="M83.1542 109.395C82.9796 109.555 82.9577 109.682 83.0887 109.746C84.6387 110.513 84.9662 110.609 85.1627 110.402C85.4901 110.018 85.381 109.874 84.4859 109.491C83.4817 109.075 83.5253 109.075 83.1542 109.395Z" fill="#010101"/>
<path d="M156.266 110.625C155.371 111.009 155.349 111.025 155.655 111.376C155.83 111.568 155.982 111.552 156.856 111.248C157.576 110.993 157.838 110.801 157.794 110.609C157.685 110.21 157.183 110.226 156.266 110.625Z" fill="#010101"/>
<path d="M218.004 110.673C217.83 111.025 217.982 111.169 219.009 111.552C219.729 111.824 219.925 111.84 220.078 111.664C220.384 111.328 220.318 111.248 219.336 110.817C218.223 110.338 218.179 110.338 218.004 110.673Z" fill="#010101"/>
<path d="M87.3677 111.089C86.931 111.408 87.062 111.616 88.0881 112.016C88.9395 112.367 89.1141 112.383 89.2888 112.175C89.5944 111.84 89.5726 111.808 89.0268 111.552C88.743 111.424 88.3282 111.233 88.0662 111.121C87.7169 110.945 87.5641 110.945 87.3677 111.089Z" fill="#010101"/>
<path d="M152.118 112.143C151.332 112.399 151.027 112.846 151.507 113.054C151.616 113.102 152.14 112.99 152.642 112.798C153.799 112.367 153.734 112.431 153.559 112.111C153.406 111.808 153.166 111.808 152.118 112.143Z" fill="#010101"/>
<path d="M222.239 112.415C221.912 112.703 221.868 112.687 223.091 113.134C224.03 113.47 224.073 113.486 224.357 113.198C224.619 112.926 224.554 112.862 223.724 112.543C222.589 112.111 222.589 112.111 222.239 112.415Z" fill="#010101"/>
<path d="M91.3627 112.99C91.1881 113.374 91.1226 113.326 92.3233 113.773C93.0874 114.061 93.3057 114.077 93.4585 113.901C93.7642 113.565 93.6987 113.486 92.7163 113.054C91.5592 112.575 91.5374 112.575 91.3627 112.99Z" fill="#010101"/>
<path d="M147.556 113.581C146.857 113.821 146.77 113.901 146.944 114.205L147.119 114.572L148.167 114.237C149.411 113.853 149.368 113.885 149.193 113.549C149.018 113.23 148.582 113.246 147.556 113.581Z" fill="#010101"/>
<path d="M226.606 113.949C226.3 114.332 226.256 114.285 227.413 114.716C228.527 115.131 228.505 115.131 228.789 114.732C228.985 114.46 228.898 114.38 227.937 114.013L226.846 113.613L226.606 113.949Z" fill="#010101"/>
<path d="M95.6198 114.556C95.4233 114.844 95.5106 114.908 96.4057 115.195C97.6501 115.611 97.7155 115.611 97.8684 115.211C97.9557 114.956 97.781 114.828 96.9951 114.572C95.7944 114.189 95.9036 114.189 95.6198 114.556Z" fill="#010101"/>
<path d="M143.386 114.7C142.36 114.94 142.185 115.099 142.513 115.467C142.775 115.771 144.739 115.275 144.739 114.892C144.739 114.46 144.543 114.428 143.386 114.7Z" fill="#010101"/>
<path d="M230.95 115.387C230.666 115.787 230.601 115.723 231.889 116.138L232.937 116.474L233.177 116.154C233.46 115.755 233.526 115.819 232.238 115.403L231.19 115.068L230.95 115.387Z" fill="#010101"/>
<path d="M100.095 115.866C99.9205 116.25 99.8768 116.218 100.99 116.458C102.235 116.729 102.431 116.697 102.344 116.314C102.3 116.058 102.016 115.914 101.296 115.755C100.75 115.627 100.292 115.531 100.27 115.531C100.248 115.531 100.161 115.675 100.095 115.866Z" fill="#010101"/>
<path d="M138.583 115.723C138.016 115.835 137.754 115.978 137.754 116.154C137.754 116.586 137.928 116.633 139.02 116.426C139.806 116.282 140.046 116.154 140.046 115.914C140.046 115.563 139.675 115.499 138.583 115.723Z" fill="#010101"/>
<path d="M134.042 116.474C133.453 116.554 133.256 116.649 133.213 116.953C133.125 117.321 133.169 117.337 133.977 117.241C134.435 117.177 134.981 117.129 135.199 117.129C135.483 117.129 135.57 117.033 135.527 116.777C135.461 116.378 135.177 116.314 134.042 116.474Z" fill="#010101"/>
<path d="M235.556 116.474C235.556 116.554 235.513 116.729 235.447 116.857C235.36 117.001 235.622 117.161 236.255 117.337C237.521 117.688 237.783 117.672 237.696 117.273C237.652 117.033 237.325 116.841 236.604 116.634C236.015 116.474 235.556 116.394 235.556 116.474Z" fill="#010101"/>
<path d="M104.701 116.745C104.505 117.129 104.723 117.241 105.902 117.369C106.797 117.464 106.928 117.448 107.037 117.145C107.146 116.793 107.016 116.745 105.64 116.57C105.007 116.49 104.811 116.522 104.701 116.745Z" fill="#010101"/>
<path d="M129.065 117.081C128.475 117.145 128.344 117.209 128.41 117.496C128.454 117.688 128.606 117.848 128.759 117.832C128.89 117.816 129.414 117.8 129.894 117.784C130.68 117.768 130.768 117.72 130.768 117.369C130.768 116.953 130.702 116.937 129.065 117.081Z" fill="#010101"/>
<path d="M109.373 117.432C109.373 117.768 109.701 117.88 110.901 117.96C111.535 117.992 111.666 117.96 111.731 117.672C111.775 117.401 111.644 117.305 111.098 117.225C109.854 117.049 109.373 117.097 109.373 117.432Z" fill="#010101"/>
<path d="M124.699 117.416C123.629 117.464 123.542 117.496 123.694 117.816C123.891 118.295 123.847 118.295 125.026 118.136C125.965 118.024 126.074 117.96 125.987 117.688C125.878 117.416 125.703 117.369 124.699 117.416Z" fill="#010101"/>
<path d="M114.176 117.832C114.176 118.231 114.242 118.247 115.399 118.247C116.534 118.247 116.599 118.231 116.534 117.88C116.468 117.576 116.315 117.528 115.333 117.48C114.22 117.432 114.176 117.448 114.176 117.832Z" fill="#010101"/>
<path d="M240.032 117.736C239.835 118.136 239.923 118.215 240.949 118.471C242.258 118.807 242.324 118.791 242.324 118.359C242.324 118.056 242.128 117.944 241.232 117.752C240.316 117.544 240.141 117.544 240.032 117.736Z" fill="#010101"/>
<path d="M118.979 118.024C118.979 118.423 119.023 118.439 119.808 118.343C120.245 118.295 120.791 118.247 121.009 118.247C121.227 118.247 121.38 118.12 121.38 117.928C121.38 117.64 121.227 117.608 120.18 117.608C119.023 117.608 118.979 117.624 118.979 118.024Z" fill="#010101"/>
<path d="M244.638 118.839C244.551 118.982 244.572 119.142 244.66 119.206C244.834 119.318 246.756 119.702 246.821 119.638C246.843 119.622 246.908 119.446 246.996 119.27C247.127 118.967 247.018 118.903 246.166 118.743C244.9 118.519 244.791 118.519 244.638 118.839Z" fill="#010101"/>
<path d="M249.31 119.718C249.31 120.053 249.463 120.133 250.336 120.277C251.493 120.485 251.711 120.437 251.711 120.021C251.711 119.829 251.493 119.702 251.078 119.638C250.729 119.59 250.205 119.494 249.877 119.43C249.375 119.35 249.31 119.382 249.31 119.718Z" fill="#010101"/>
<path d="M254.004 120.485C253.916 120.676 253.894 120.852 253.938 120.868C254.025 120.916 256.187 121.268 256.209 121.236C256.23 121.22 256.296 121.044 256.383 120.868C256.492 120.58 256.427 120.516 255.881 120.437C255.532 120.389 255.008 120.293 254.702 120.245C254.266 120.165 254.113 120.213 254.004 120.485Z" fill="#010101"/>
<path d="M258.697 121.252C258.697 121.667 258.784 121.699 260.072 121.843C261.011 121.955 261.099 121.939 261.099 121.635C261.099 121.22 261.011 121.188 259.745 121.044C258.784 120.932 258.697 120.948 258.697 121.252Z" fill="#010101"/>
<path d="M263.5 121.843C263.5 121.971 263.5 122.13 263.478 122.194C263.478 122.274 263.959 122.402 264.57 122.498C265.487 122.658 265.683 122.642 265.771 122.45C266.011 122.019 265.902 121.955 264.81 121.779C263.435 121.555 263.5 121.555 263.5 121.843Z" fill="#010101"/>
<path d="M268.194 122.562C267.997 123.009 267.997 122.993 269.307 123.121C270.311 123.233 270.442 123.201 270.551 122.897C270.639 122.626 270.53 122.562 269.853 122.466C269.416 122.418 268.892 122.338 268.696 122.306C268.477 122.258 268.281 122.354 268.194 122.562Z" fill="#010101"/>
<path d="M272.887 123.201C272.887 123.521 273.018 123.553 274.59 123.744C275.223 123.824 275.289 123.792 275.289 123.457C275.289 123.041 274.83 122.881 273.608 122.881C273.04 122.881 272.887 122.945 272.887 123.201Z" fill="#010101"/>
<path d="M277.69 123.601C277.69 123.936 277.799 124 278.345 124C278.891 124 279 123.936 279 123.601C279 123.265 278.891 123.201 278.345 123.201C277.799 123.201 277.69 123.265 277.69 123.601Z" fill="#010101"/>
<path d="M278.824 84.24V86.64H270.92V84.24H278.824ZM302.638 71.6H304.11V94.384H303.95L286.19 76.88H286.062V94H284.59V71.216H284.75L302.51 88.72H302.638V71.6ZM316.385 77.648C317.943 77.648 319.148 77.872 320.002 78.32C320.855 78.7467 321.474 79.312 321.858 80.016C322.263 80.72 322.498 81.5307 322.562 82.448C322.626 83.3653 322.658 84.304 322.658 85.264V94H320.066V92.432C319.447 93.0293 318.658 93.5093 317.698 93.872C316.738 94.2133 315.778 94.384 314.818 94.384C313.9 94.384 313.09 94.224 312.386 93.904C311.682 93.584 311.095 93.168 310.626 92.656C310.156 92.144 309.804 91.568 309.57 90.928C309.335 90.288 309.218 89.6373 309.218 88.976C309.218 88.2933 309.346 87.6107 309.602 86.928C309.858 86.2453 310.242 85.6373 310.754 85.104C311.266 84.5493 311.895 84.1013 312.641 83.76C313.388 83.4187 314.242 83.248 315.202 83.248C316.162 83.248 317.068 83.44 317.922 83.824C318.796 84.1867 319.511 84.7093 320.066 85.392V84.016C320.066 82.2667 319.799 80.9653 319.266 80.112C318.754 79.2587 317.804 78.832 316.418 78.832C315.82 78.832 315.298 78.9067 314.85 79.056C314.402 79.2053 313.996 79.4187 313.634 79.696C313.292 79.952 312.972 80.2827 312.674 80.688C312.375 81.072 312.076 81.5093 311.778 82L310.114 80.336C310.412 80.016 310.722 79.696 311.042 79.376C311.383 79.056 311.788 78.768 312.258 78.512C312.748 78.256 313.324 78.0533 313.986 77.904C314.647 77.7333 315.447 77.648 316.385 77.648ZM320.066 87.664C319.959 87.408 319.799 87.1093 319.586 86.768C319.394 86.4267 319.138 86.096 318.818 85.776C318.498 85.456 318.114 85.1893 317.666 84.976C317.218 84.7413 316.684 84.624 316.066 84.624C315.447 84.624 314.882 84.752 314.37 85.008C313.858 85.2427 313.42 85.5627 313.058 85.968C312.716 86.352 312.45 86.8107 312.258 87.344C312.066 87.8773 311.97 88.432 311.97 89.008C311.97 89.6907 312.087 90.288 312.322 90.8C312.578 91.2907 312.898 91.7173 313.282 92.08C313.666 92.4213 314.092 92.6773 314.562 92.848C315.031 93.0187 315.479 93.104 315.906 93.104C316.311 93.104 316.716 93.0293 317.122 92.88C317.548 92.7307 317.943 92.528 318.306 92.272C318.69 91.9947 319.031 91.6747 319.33 91.312C319.628 90.9493 319.874 90.5547 320.066 90.128V87.664ZM328.803 78H331.523V94H328.803V78ZM328.419 72.944C328.419 72.4747 328.589 72.0693 328.931 71.728C329.272 71.3867 329.677 71.216 330.147 71.216C330.616 71.216 331.021 71.3867 331.363 71.728C331.704 72.0693 331.875 72.4747 331.875 72.944C331.875 73.4133 331.704 73.8187 331.363 74.16C331.021 74.5013 330.616 74.672 330.147 74.672C329.677 74.672 329.272 74.5013 328.931 74.16C328.589 73.8187 328.419 73.4133 328.419 72.944ZM340.983 71.6V94H338.263V71.6H340.983ZM356.956 81.648H355.132C355.132 81.3707 355.057 81.072 354.908 80.752C354.758 80.432 354.524 80.144 354.204 79.888C353.884 79.6107 353.489 79.3867 353.02 79.216C352.55 79.024 351.996 78.928 351.356 78.928C350.716 78.928 350.182 79.024 349.756 79.216C349.329 79.3867 348.988 79.6107 348.732 79.888C348.476 80.144 348.294 80.432 348.188 80.752C348.081 81.0507 348.028 81.3387 348.028 81.616C348.028 82.2773 348.262 82.7893 348.732 83.152C349.222 83.5147 349.83 83.824 350.556 84.08C351.281 84.336 352.06 84.5813 352.892 84.816C353.745 85.0507 354.534 85.36 355.26 85.744C355.985 86.1067 356.582 86.5973 357.052 87.216C357.542 87.8347 357.788 88.656 357.788 89.68C357.788 91.088 357.286 92.2293 356.284 93.104C355.302 93.9573 353.83 94.384 351.868 94.384C350.78 94.384 349.82 94.256 348.988 94C348.177 93.7227 347.484 93.36 346.908 92.912C346.353 92.464 345.937 91.9627 345.66 91.408C345.382 90.832 345.243 90.2453 345.243 89.648H347.324C347.324 89.904 347.398 90.224 347.548 90.608C347.718 90.992 347.985 91.376 348.348 91.76C348.732 92.1227 349.212 92.4427 349.788 92.72C350.385 92.976 351.11 93.104 351.964 93.104C352.646 93.104 353.212 93.0187 353.66 92.848C354.108 92.656 354.46 92.432 354.716 92.176C354.972 91.8987 355.142 91.6 355.228 91.28C355.334 90.96 355.388 90.6507 355.388 90.352C355.388 89.648 355.153 89.0933 354.684 88.688C354.214 88.2827 353.628 87.952 352.924 87.696C352.22 87.4187 351.452 87.1733 350.62 86.96C349.809 86.7253 349.052 86.4267 348.348 86.064C347.644 85.7013 347.057 85.2213 346.588 84.624C346.118 84.0267 345.884 83.216 345.884 82.192C345.884 81.4453 346.022 80.7947 346.299 80.24C346.577 79.664 346.95 79.184 347.42 78.8C347.91 78.416 348.476 78.128 349.116 77.936C349.777 77.744 350.481 77.648 351.228 77.648C352.017 77.648 352.753 77.7547 353.436 77.968C354.14 78.16 354.748 78.4373 355.26 78.8C355.793 79.1413 356.209 79.5573 356.508 80.048C356.806 80.5387 356.956 81.072 356.956 81.648ZM369.387 84.24V86.64H361.483V84.24H369.387Z" fill="#D315FF"/>
<path d="M206.776 84.328C206.392 84.328 206.307 84.0293 206.52 83.432C206.776 82.8773 207.011 82.3653 207.224 81.896C207.608 81.128 207.8 79.9333 207.8 78.312C207.8 76.904 207.544 75.3893 207.032 73.768C206.52 72.1467 205.517 70.6747 204.024 69.352C201.976 67.4747 199.672 65.9813 197.112 64.872C194.552 63.7627 191.864 62.8667 189.048 62.184C186.275 61.5013 183.523 60.904 180.792 60.392C179.128 62.696 177.336 64.7653 175.416 66.6C173.539 68.4347 171.533 69.8427 169.4 70.824C168.205 71.3787 167.053 71.784 165.944 72.04C164.835 72.3387 163.789 72.488 162.808 72.488C160.419 72.488 158.456 71.848 156.92 70.568C155.427 69.3307 154.68 67.8587 154.68 66.152C154.68 64.5307 155.405 62.952 156.856 61.416C158.349 59.8373 160.803 58.536 164.216 57.512C165.581 57.128 167.096 56.8507 168.76 56.68C170.424 56.4667 172.152 56.36 173.944 56.36C175.053 56.36 176.141 56.4027 177.208 56.488C178.317 56.5307 179.341 56.6587 180.28 56.872C181.517 54.9947 182.669 53.0533 183.736 51.048C184.803 49 185.912 46.7813 187.064 44.392C183.693 44.4773 180.771 43.9867 178.296 42.92C175.821 41.8107 173.901 40.3387 172.536 38.504C171.213 36.6693 170.552 34.7067 170.552 32.616C170.552 30.9093 171.043 29.2453 172.024 27.624C173.005 25.96 174.541 24.4667 176.632 23.144C178.765 21.7787 181.475 20.712 184.76 19.944C184.973 19.8587 185.165 19.816 185.336 19.816C185.549 19.816 185.741 19.816 185.912 19.816C186.552 19.816 186.872 19.944 186.872 20.2C186.872 20.6267 186.189 20.9253 184.824 21.096C182.605 21.352 180.643 22.1413 178.936 23.464C177.272 24.7867 175.971 26.3653 175.032 28.2C174.136 30.0347 173.688 31.8907 173.688 33.768C173.688 35.3893 174.072 36.904 174.84 38.312C175.608 39.72 176.824 40.872 178.488 41.768C180.152 42.6213 182.307 43.048 184.952 43.048C185.891 43.048 186.893 42.984 187.96 42.856C188.131 42.5147 188.408 41.832 188.792 40.808C189.219 39.7413 189.688 38.5467 190.2 37.224C190.712 35.9013 191.203 34.6213 191.672 33.384C192.184 32.1467 192.589 31.1227 192.888 30.312C193.229 29.4587 193.4 29.032 193.4 29.032C195.363 24.1253 197.368 20.2853 199.416 17.512C201.507 14.696 203.512 12.712 205.432 11.56C207.395 10.408 209.144 9.832 210.68 9.832C212.344 9.832 213.709 10.3227 214.776 11.304C215.885 12.2853 216.483 13.3947 216.568 14.632C216.611 15.016 216.632 15.2933 216.632 15.464C216.632 15.6347 216.632 15.848 216.632 16.104C216.632 18.6213 216.12 21.1387 215.096 23.656C214.115 26.1733 212.728 28.5627 210.936 30.824C209.187 33.0853 207.16 35.1333 204.856 36.968C202.595 38.8027 200.163 40.3387 197.56 41.576C195 42.8133 192.397 43.6667 189.752 44.136C189.112 45.416 188.536 46.568 188.024 47.592C187.555 48.5733 187.021 49.64 186.424 50.792C185.827 51.944 185.037 53.416 184.056 55.208C183.757 55.7627 183.523 56.168 183.352 56.424C183.224 56.6373 183.011 56.9787 182.712 57.448C184.845 57.96 187.171 58.6853 189.688 59.624C192.205 60.52 194.68 61.608 197.112 62.888C199.587 64.1253 201.784 65.4907 203.704 66.984C206.093 68.8187 207.779 70.888 208.76 73.192C209.784 75.496 210.296 77.5227 210.296 79.272C210.296 80.5093 210.104 81.448 209.72 82.088C209.165 83.0267 208.611 83.624 208.056 83.88C207.501 84.1787 207.075 84.328 206.776 84.328ZM190.648 42.408C193.549 41.768 196.387 40.616 199.16 38.952C201.933 37.2453 204.429 35.1973 206.648 32.808C208.867 30.376 210.637 27.752 211.96 24.936C213.283 22.0773 213.944 19.176 213.944 16.232C213.944 15.5067 213.752 14.9093 213.368 14.44C212.984 13.9707 212.429 13.736 211.704 13.736C210.723 13.736 209.464 14.2907 207.928 15.4C206.392 16.4667 204.643 18.28 202.68 20.84C200.717 23.3573 198.605 26.8347 196.344 31.272C196.344 31.272 196.045 31.8267 195.448 32.936C194.893 34.0453 194.168 35.4533 193.272 37.16C192.419 38.824 191.544 40.5733 190.648 42.408ZM161.912 70.632C162.851 70.632 163.853 70.504 164.92 70.248C166.029 69.992 167.181 69.5867 168.376 69.032C171.96 67.2827 175.267 64.2533 178.296 59.944C177.315 59.7307 176.291 59.5813 175.224 59.496C174.157 59.368 173.069 59.304 171.96 59.304C170.808 59.304 169.613 59.368 168.376 59.496C167.181 59.624 166.008 59.8587 164.856 60.2C161.997 60.968 159.8 61.9493 158.264 63.144C156.771 64.3387 156.024 65.5547 156.024 66.792C156.024 67.8587 156.557 68.7547 157.624 69.48C158.691 70.248 160.12 70.632 161.912 70.632ZM211.565 39.016C210.925 39.016 210.391 38.8027 209.965 38.376C209.581 37.9067 209.389 37.352 209.389 36.712C209.389 35.9013 209.709 35.1973 210.349 34.6C210.989 34.0027 211.693 33.704 212.461 33.704C213.143 33.704 213.698 33.9173 214.125 34.344C214.551 34.7707 214.765 35.2827 214.765 35.88C214.765 36.6907 214.445 37.416 213.805 38.056C213.165 38.696 212.418 39.016 211.565 39.016ZM206.381 65C204.802 65 203.693 64.552 203.053 63.656C202.413 62.7173 202.093 61.6507 202.093 60.456C202.093 59.816 202.157 59.176 202.285 58.536C202.455 57.8533 202.647 57.2347 202.861 56.68L207.149 45.736C207.277 45.3947 207.341 45.096 207.341 44.84C207.341 44.4133 207.234 44.0507 207.021 43.752C206.807 43.4107 206.658 43.176 206.573 43.048L210.093 42.92C210.733 42.8773 211.181 42.9627 211.437 43.176C211.735 43.3467 211.885 43.56 211.885 43.816C211.885 44.072 211.735 44.5413 211.437 45.224L206.125 57.704C206.125 57.704 205.997 57.9813 205.741 58.536C205.527 59.048 205.399 59.3893 205.357 59.56C205.229 60.2 205.143 60.6053 205.101 60.776C205.058 60.9467 205.036 61.0533 205.036 61.096C205.036 61.1387 205.036 61.3093 205.036 61.608C205.036 62.1627 205.165 62.632 205.421 63.016C205.719 63.4 206.21 63.592 206.893 63.592C207.319 63.592 207.81 63.464 208.365 63.208C208.919 62.952 209.325 62.696 209.581 62.44C210.647 61.3307 211.693 59.88 212.717 58.088C213.783 56.2533 214.765 54.44 215.661 52.648C215.831 52.2213 216.045 52.008 216.301 52.008C216.514 52.008 216.621 52.1573 216.621 52.456C216.621 52.6267 216.557 52.8827 216.429 53.224C216.002 54.12 215.469 55.2293 214.829 56.552C214.189 57.8747 213.421 59.1973 212.525 60.52C211.671 61.8 210.733 62.8667 209.709 63.72C208.685 64.5733 207.575 65 206.381 65ZM218.783 65C217.588 65 216.521 64.5947 215.583 63.784C214.644 62.9307 214.174 61.608 214.174 59.816C214.174 58.408 214.431 56.68 214.943 54.632C215.497 52.5413 216.159 50.3867 216.927 48.168C217.737 45.9067 218.527 43.8587 219.295 42.024H215.903C215.604 42.024 215.455 41.8107 215.455 41.384C215.455 41.1707 215.497 40.9787 215.583 40.808C215.711 40.6373 215.881 40.552 216.095 40.552H219.935C220.66 38.9307 221.428 37.352 222.239 35.816C223.049 34.28 223.839 32.8293 224.607 31.464C225.588 29.7573 226.633 28.4773 227.743 27.624C228.852 26.7707 229.812 26.344 230.623 26.344C231.263 26.344 231.796 26.6 232.223 27.112C232.649 27.5813 232.863 28.3067 232.863 29.288C232.863 29.8853 232.735 30.7173 232.479 31.784C232.223 32.808 231.817 33.896 231.263 35.048C230.964 35.6453 230.537 36.4987 229.983 37.608C229.471 38.7173 228.959 39.6987 228.447 40.552H231.519C231.817 40.552 231.967 40.7653 231.967 41.192C231.967 41.3627 231.924 41.5547 231.839 41.768C231.753 41.9387 231.625 42.024 231.455 42.024H227.679C226.612 43.8587 225.396 45.6507 224.031 47.4C222.665 49.1493 221.044 50.8987 219.167 52.648C219.039 53.032 218.868 53.5867 218.655 54.312C218.484 55.0373 218.313 55.784 218.143 56.552C218.015 57.2773 217.887 57.896 217.759 58.408C217.673 58.92 217.631 59.176 217.631 59.176C217.503 59.7307 217.439 60.2427 217.439 60.712C217.439 61.608 217.652 62.2693 218.079 62.696C218.505 63.08 218.996 63.272 219.551 63.272C219.892 63.272 220.233 63.2293 220.575 63.144C220.916 63.016 221.3 62.8027 221.727 62.504C223.22 61.4373 224.521 59.9867 225.631 58.152C226.783 56.3173 227.785 54.5467 228.639 52.84C228.895 52.328 229.151 52.072 229.407 52.072C229.577 52.072 229.663 52.2 229.663 52.456C229.663 52.584 229.599 52.8187 229.471 53.16C228.532 55.1227 227.743 56.7013 227.103 57.896C226.463 59.0907 225.844 60.0933 225.247 60.904C224.649 61.672 223.945 62.44 223.135 63.208C222.537 63.8053 221.855 64.2533 221.087 64.552C220.319 64.8507 219.551 65 218.783 65ZM223.839 40.552H227.103C227.7 39.4427 228.255 38.3547 228.767 37.288C229.321 36.2213 229.812 35.1547 230.239 34.088C230.537 33.4053 230.793 32.6373 231.007 31.784C231.22 30.9307 231.327 30.2693 231.327 29.8C231.327 29.16 231.177 28.84 230.878 28.84C230.665 28.84 230.345 29.032 229.919 29.416C229.535 29.7573 229.044 30.3547 228.447 31.208C227.679 32.2747 226.911 33.6613 226.143 35.368C225.417 37.032 224.649 38.76 223.839 40.552ZM219.679 50.6C220.916 49.32 222.068 47.9547 223.135 46.504C224.244 45.0533 225.268 43.56 226.207 42.024H223.199C222.516 43.6027 221.876 45.1387 221.279 46.632C220.681 48.1253 220.148 49.448 219.679 50.6ZM231.658 65C230.463 65 229.396 64.5947 228.458 63.784C227.519 62.9307 227.049 61.608 227.049 59.816C227.049 58.408 227.306 56.68 227.818 54.632C228.372 52.5413 229.034 50.3867 229.802 48.168C230.612 45.9067 231.402 43.8587 232.17 42.024H228.778C228.479 42.024 228.33 41.8107 228.33 41.384C228.33 41.1707 228.372 40.9787 228.458 40.808C228.586 40.6373 228.756 40.552 228.97 40.552H232.81C233.535 38.9307 234.303 37.352 235.114 35.816C235.924 34.28 236.714 32.8293 237.482 31.464C238.463 29.7573 239.508 28.4773 240.618 27.624C241.727 26.7707 242.687 26.344 243.498 26.344C244.138 26.344 244.671 26.6 245.098 27.112C245.524 27.5813 245.738 28.3067 245.738 29.288C245.738 29.8853 245.61 30.7173 245.354 31.784C245.098 32.808 244.692 33.896 244.138 35.048C243.839 35.6453 243.412 36.4987 242.858 37.608C242.346 38.7173 241.834 39.6987 241.322 40.552H244.394C244.692 40.552 244.842 40.7653 244.842 41.192C244.842 41.3627 244.799 41.5547 244.714 41.768C244.628 41.9387 244.5 42.024 244.33 42.024H240.554C239.487 43.8587 238.271 45.6507 236.906 47.4C235.54 49.1493 233.919 50.8987 232.042 52.648C231.914 53.032 231.743 53.5867 231.53 54.312C231.359 55.0373 231.188 55.784 231.018 56.552C230.89 57.2773 230.762 57.896 230.634 58.408C230.548 58.92 230.506 59.176 230.506 59.176C230.378 59.7307 230.314 60.2427 230.314 60.712C230.314 61.608 230.527 62.2693 230.954 62.696C231.38 63.08 231.871 63.272 232.426 63.272C232.767 63.272 233.108 63.2293 233.45 63.144C233.791 63.016 234.175 62.8027 234.602 62.504C236.095 61.4373 237.396 59.9867 238.506 58.152C239.658 56.3173 240.66 54.5467 241.514 52.84C241.77 52.328 242.026 52.072 242.282 52.072C242.452 52.072 242.538 52.2 242.538 52.456C242.538 52.584 242.474 52.8187 242.346 53.16C241.407 55.1227 240.618 56.7013 239.978 57.896C239.338 59.0907 238.719 60.0933 238.122 60.904C237.524 61.672 236.82 62.44 236.01 63.208C235.412 63.8053 234.73 64.2533 233.962 64.552C233.194 64.8507 232.426 65 231.658 65ZM236.714 40.552H239.978C240.575 39.4427 241.13 38.3547 241.642 37.288C242.196 36.2213 242.687 35.1547 243.114 34.088C243.412 33.4053 243.668 32.6373 243.882 31.784C244.095 30.9307 244.202 30.2693 244.202 29.8C244.202 29.16 244.052 28.84 243.753 28.84C243.54 28.84 243.22 29.032 242.794 29.416C242.41 29.7573 241.919 30.3547 241.322 31.208C240.554 32.2747 239.786 33.6613 239.018 35.368C238.292 37.032 237.524 38.76 236.714 40.552ZM232.554 50.6C233.791 49.32 234.943 47.9547 236.01 46.504C237.119 45.0533 238.143 43.56 239.082 42.024H236.074C235.391 43.6027 234.751 45.1387 234.154 46.632C233.556 48.1253 233.023 49.448 232.554 50.6ZM244.597 65.192C242.805 65.192 241.589 64.7227 240.949 63.784C240.309 62.8027 239.989 61.6507 239.989 60.328C239.989 58.9627 240.181 57.5547 240.565 56.104C240.949 54.6533 241.29 53.4373 241.589 52.456C242.271 50.0667 243.125 47.528 244.149 44.84C245.215 42.1093 246.367 39.4427 247.605 36.84C248.885 34.1947 250.143 31.8267 251.381 29.736C252.362 28.072 253.407 26.8347 254.517 26.024C255.669 25.1707 256.671 24.744 257.525 24.744C258.207 24.744 258.741 25 259.125 25.512C259.551 25.9813 259.765 26.7067 259.765 27.688C259.765 28.3707 259.637 29.1813 259.381 30.12C259.167 31.0587 258.783 32.1253 258.229 33.32C256.735 36.648 254.943 39.976 252.853 43.304C250.805 46.632 248.202 49.7467 245.045 52.648C244.874 53.2027 244.639 53.864 244.341 54.632C244.085 55.3573 243.85 56.104 243.637 56.872C243.381 58.024 243.253 59.0053 243.253 59.816C243.253 61.1387 243.509 62.1413 244.021 62.824C244.575 63.464 245.237 63.784 246.005 63.784C246.687 63.784 247.413 63.5493 248.181 63.08C248.949 62.568 249.674 61.8427 250.357 60.904C251.381 59.4107 252.298 57.896 253.109 56.36C253.962 54.7813 254.602 53.5653 255.029 52.712C255.285 52.2427 255.562 52.008 255.861 52.008C256.074 52.008 256.181 52.136 256.181 52.392C256.181 52.6053 256.117 52.84 255.989 53.096C255.605 53.9493 255.093 55.0587 254.453 56.424C253.855 57.7467 253.087 59.0907 252.149 60.456C251.253 61.7787 250.165 62.9093 248.885 63.848C247.647 64.744 246.218 65.192 244.597 65.192ZM245.557 50.6C247.093 49.0213 248.586 47.208 250.037 45.16C251.487 43.0693 252.831 40.9147 254.069 38.696C255.349 36.4347 256.415 34.3013 257.269 32.296C257.567 31.656 257.802 30.952 257.973 30.184C258.186 29.416 258.293 28.776 258.293 28.264C258.293 27.6667 258.143 27.368 257.845 27.368C257.674 27.368 257.418 27.5387 257.077 27.88C256.735 28.1787 256.287 28.712 255.733 29.48C254.922 30.5467 254.026 31.9973 253.045 33.832C252.106 35.6667 251.146 37.6293 250.165 39.72C249.183 41.8107 248.287 43.8373 247.477 45.8C246.666 47.72 246.026 49.32 245.557 50.6ZM259.566 65.256C257.987 65.256 256.558 64.744 255.278 63.72C254.04 62.696 253.422 61.1387 253.422 59.048C253.422 57.128 253.891 55.08 254.83 52.904C255.768 50.6853 256.963 48.744 258.414 47.08C259.651 45.6293 261.038 44.4347 262.574 43.496C264.11 42.5573 265.56 42.088 266.926 42.088C267.864 42.088 268.675 42.344 269.358 42.856C270.083 43.4107 270.446 44.2 270.446 45.224C270.446 46.2907 270.04 47.464 269.23 48.744C268.419 50.024 267.267 51.2187 265.774 52.328C265.134 52.7973 264.323 53.2453 263.342 53.672C262.36 54.0987 261.379 54.4613 260.398 54.76C259.416 55.016 258.606 55.144 257.966 55.144C257.752 55.656 257.539 56.3387 257.326 57.192C257.155 58.0453 257.07 58.92 257.07 59.816C257.07 60.8827 257.283 61.8427 257.71 62.696C258.136 63.5493 258.926 63.976 260.078 63.976C261.486 63.976 262.766 63.5707 263.918 62.76C265.07 61.9493 266.094 60.9467 266.99 59.752C267.886 58.5147 268.632 57.2773 269.23 56.04C269.87 54.8027 270.382 53.7573 270.766 52.904C271.022 52.3067 271.363 52.008 271.79 52.008C272.003 52.008 272.11 52.1147 272.11 52.328C272.11 52.4987 272.046 52.712 271.918 52.968C271.32 54.248 270.68 55.6133 269.998 57.064C269.315 58.472 268.504 59.816 267.566 61.096C266.627 62.3333 265.496 63.336 264.174 64.104C262.894 64.872 261.358 65.256 259.566 65.256ZM258.414 53.992C259.011 53.992 260.014 53.7787 261.422 53.352C262.83 52.8827 264.11 52.1573 265.262 51.176C266.371 50.1947 267.224 49.128 267.822 47.976C268.419 46.7813 268.718 45.7787 268.718 44.968C268.718 44.0293 268.376 43.56 267.694 43.56C267.182 43.56 266.478 43.9013 265.582 44.584C264.686 45.2667 263.576 46.4187 262.254 48.04C261.443 49.064 260.675 50.1733 259.95 51.368C259.224 52.5627 258.712 53.4373 258.414 53.992ZM295.33 67.496C294.391 67.496 293.431 67.432 292.45 67.304C289.762 66.9627 287.778 66.1733 286.498 64.936C285.26 63.6987 284.642 62.3547 284.642 60.904C284.642 59.3253 285.346 57.896 286.754 56.616C288.162 55.2933 290.146 54.632 292.706 54.632C294.412 54.632 296.268 54.9733 298.274 55.656C299.383 56.04 300.706 56.68 302.242 57.576C303.778 58.472 305.548 59.4107 307.554 60.392C309.687 58.344 311.628 55.8053 313.378 52.776C315.17 49.7467 316.94 46.504 318.69 43.048C320.482 39.5493 322.402 36.0507 324.45 32.552C326.54 29.0533 328.951 25.768 331.682 22.696L335.394 18.536C333.815 18.28 332.172 18.088 330.466 17.96C328.759 17.7893 326.988 17.704 325.154 17.704C322.85 17.704 320.482 17.832 318.05 18.088C315.618 18.3013 313.186 18.664 310.754 19.176C306.743 20.0293 303.351 21.3947 300.578 23.272C297.804 25.1493 295.692 27.1973 294.242 29.416C292.834 31.592 292.13 33.64 292.13 35.56C292.13 36.8827 292.492 38.0773 293.218 39.144C293.986 40.168 295.116 40.9147 296.61 41.384C297.548 41.6827 298.508 41.832 299.49 41.832C300.94 41.832 302.22 41.5333 303.33 40.936C304.439 40.3387 305.378 39.6133 306.146 38.76C306.914 37.864 307.468 37.0107 307.81 36.2C308.194 35.3893 308.364 34.792 308.322 34.408C308.322 34.1093 308.535 33.96 308.962 33.96C309.388 33.96 309.602 34.28 309.602 34.92V34.984C309.602 36.7333 309.068 38.248 308.002 39.528C306.935 40.808 305.591 41.7893 303.97 42.472C302.391 43.1547 300.791 43.496 299.17 43.496C298.146 43.496 297.079 43.3253 295.97 42.984C293.666 42.1733 291.959 41 290.85 39.464C289.74 37.8853 289.186 36.1573 289.186 34.28C289.186 32.5307 289.655 30.7387 290.594 28.904C291.575 27.0267 293.004 25.256 294.882 23.592C296.759 21.8853 299.084 20.4133 301.858 19.176C304.674 17.9387 307.916 17.064 311.586 16.552C313.548 16.2533 315.49 16.04 317.41 15.912C319.33 15.784 321.186 15.72 322.978 15.72C325.452 15.72 327.863 15.848 330.21 16.104C332.599 16.3173 334.839 16.6587 336.93 17.128C337.527 16.616 338.124 16.168 338.722 15.784C339.362 15.4 339.938 15.1013 340.45 14.888C340.748 14.76 341.004 14.6747 341.218 14.632C341.431 14.5893 341.602 14.568 341.73 14.568C341.986 14.568 342.114 14.6533 342.114 14.824C342.114 15.0373 341.794 15.3787 341.154 15.848C340.727 16.1467 340.322 16.488 339.938 16.872C339.554 17.2133 339.319 17.4693 339.234 17.64C343.586 18.7493 347.106 20.2853 349.794 22.248C352.524 24.168 353.89 26.4507 353.89 29.096C353.89 30.4613 353.442 31.9547 352.546 33.576C351.607 35.1547 350.306 36.4347 348.642 37.416C346.978 38.3547 345.207 39.0587 343.33 39.528C341.452 39.9547 339.703 40.2107 338.082 40.296C339.49 40.7227 341.026 41.3627 342.69 42.216C344.396 43.0267 345.954 44.0293 347.362 45.224C348.812 46.4187 349.772 47.8267 350.242 49.448C350.54 50.472 350.69 51.5173 350.69 52.584C350.69 54.8453 350.028 56.8933 348.706 58.728C347.426 60.5627 345.698 62.1413 343.522 63.464C341.388 64.744 339.042 65.7253 336.482 66.408C333.922 67.1333 331.383 67.496 328.866 67.496C327.927 67.496 326.967 67.432 325.986 67.304C321.89 66.792 318.498 66.152 315.81 65.384C313.164 64.616 310.839 63.7627 308.834 62.824C304.695 65.9387 300.194 67.496 295.33 67.496ZM327.97 65.64C330.615 65.64 333.026 65.2347 335.202 64.424C337.378 63.6133 339.255 62.5467 340.834 61.224C342.455 59.9013 343.692 58.4293 344.546 56.808C345.442 55.1867 345.89 53.5867 345.89 52.008C345.89 50.5147 345.442 49.064 344.546 47.656C343.65 46.248 342.242 45.0747 340.322 44.136C338.658 43.3253 336.93 42.664 335.138 42.152C333.388 41.5973 331.874 41.128 330.594 40.744C329.314 40.3173 328.567 39.8907 328.354 39.464C328.354 38.952 328.567 38.6107 328.994 38.44C329.463 38.2267 330.06 38.12 330.786 38.12C331.639 38.12 332.663 38.184 333.858 38.312C335.052 38.44 336.311 38.504 337.634 38.504C338.999 38.504 340.386 38.2053 341.794 37.608C343.244 36.968 344.567 36.136 345.762 35.112C346.956 34.0453 347.916 32.8933 348.642 31.656C349.41 30.376 349.794 29.0747 349.794 27.752C349.794 26.5573 349.388 25.384 348.577 24.232C347.767 23.08 346.423 22.0773 344.546 21.224C342.668 20.3707 340.642 19.688 338.466 19.176C336.332 22.12 334.199 25.4267 332.066 29.096C329.932 32.7227 327.799 36.4133 325.666 40.168C323.532 43.88 321.378 47.4 319.201 50.728C317.025 54.056 314.85 56.9147 312.674 59.304C312.162 59.8587 311.756 60.2853 311.458 60.584C311.159 60.84 310.754 61.2027 310.242 61.672C312.247 62.4827 314.53 63.2507 317.09 63.976C319.65 64.7013 322.572 65.2133 325.858 65.512C326.199 65.5547 326.54 65.576 326.882 65.576C327.266 65.6187 327.628 65.64 327.97 65.64ZM294.05 65.512C296.439 65.64 298.615 65.3627 300.578 64.68C302.583 63.9547 304.439 62.952 306.146 61.672C304.652 60.9467 303.116 60.2 301.538 59.432C300.002 58.6213 298.359 57.896 296.61 57.256C295.372 56.8293 294.242 56.616 293.218 56.616C291.639 56.616 290.444 57.0427 289.634 57.896C288.823 58.7067 288.418 59.6453 288.418 60.712C288.418 61.8213 288.887 62.888 289.826 63.912C290.764 64.8933 292.172 65.4267 294.05 65.512ZM356.57 65C356.1 65 355.524 64.8933 354.842 64.68C354.202 64.4667 353.626 64.0827 353.114 63.528C352.644 62.9307 352.41 62.056 352.41 60.904C352.41 59.7947 352.666 58.728 353.178 57.704C353.732 56.6373 354.244 55.6133 354.714 54.632C354.586 54.632 354.436 54.5893 354.266 54.504C354.138 54.4187 354.074 54.2907 354.074 54.12C354.074 53.9493 354.116 53.7787 354.202 53.608C354.372 53.2667 354.564 52.904 354.778 52.52C354.991 52.136 355.183 51.7307 355.354 51.304C355.994 49.9813 356.634 48.7227 357.274 47.528C357.914 46.2907 358.468 45.2027 358.938 44.264C359.407 43.3253 360.218 42.856 361.37 42.856H365.338C364.612 43.4107 363.951 44.0293 363.354 44.712C362.799 45.352 362.095 46.5467 361.242 48.296C361.242 48.296 361.092 48.5947 360.794 49.192C360.495 49.7893 360.111 50.5573 359.642 51.496C359.215 52.392 358.767 53.3093 358.298 54.248C357.871 55.1867 357.508 55.976 357.21 56.616C356.655 57.8107 356.292 58.7707 356.122 59.496C355.951 60.1787 355.866 60.8187 355.866 61.416C355.866 62.824 356.335 63.528 357.274 63.528C358.298 63.528 359.535 62.696 360.986 61.032C362.18 59.624 363.354 57.9387 364.506 55.976C365.658 54.0133 366.746 51.9867 367.77 49.896C368.836 47.8053 369.775 45.928 370.586 44.264C371.055 43.3253 371.887 42.856 373.082 42.856H376.602C375.962 43.368 375.428 43.8587 375.002 44.328C374.575 44.7547 374.148 45.352 373.722 46.12C373.338 46.8453 372.804 47.8907 372.122 49.256C371.567 50.408 370.97 51.6453 370.33 52.968C369.732 54.248 369.199 55.464 368.73 56.616C368.26 57.768 367.962 58.7067 367.833 59.432C367.791 59.8587 367.748 60.1787 367.706 60.392C367.663 60.6053 367.642 60.84 367.642 61.096C367.642 61.9067 367.77 62.4827 368.026 62.824C368.324 63.1653 368.666 63.336 369.05 63.336C370.074 63.336 371.098 62.76 372.122 61.608C373.188 60.456 374.191 59.048 375.13 57.384C376.111 55.72 376.943 54.1413 377.626 52.648C377.882 52.1787 378.116 51.944 378.33 51.944C378.586 51.944 378.714 52.0933 378.714 52.392C378.714 52.6053 378.628 52.8613 378.458 53.16C377.988 54.184 377.412 55.3573 376.73 56.68C376.047 58.0027 375.279 59.304 374.426 60.584C373.572 61.864 372.634 62.9307 371.61 63.784C370.586 64.5947 369.476 65 368.282 65C367.215 65 366.34 64.616 365.658 63.848C364.975 63.0373 364.634 61.9067 364.634 60.456C364.634 59.304 364.847 58.0667 365.274 56.744C364.548 58.024 363.716 59.304 362.778 60.584C361.839 61.864 360.836 62.9307 359.77 63.784C358.703 64.5947 357.636 65 356.57 65ZM380.658 65C379.463 65 378.396 64.5947 377.458 63.784C376.519 62.9307 376.049 61.608 376.049 59.816C376.049 58.408 376.306 56.68 376.818 54.632C377.372 52.5413 378.034 50.3867 378.802 48.168C379.612 45.9067 380.402 43.8587 381.17 42.024H377.778C377.479 42.024 377.33 41.8107 377.33 41.384C377.33 41.1707 377.372 40.9787 377.458 40.808C377.586 40.6373 377.756 40.552 377.97 40.552H381.81C382.535 38.9307 383.303 37.352 384.114 35.816C384.924 34.28 385.714 32.8293 386.482 31.464C387.463 29.7573 388.508 28.4773 389.618 27.624C390.727 26.7707 391.687 26.344 392.498 26.344C393.138 26.344 393.671 26.6 394.098 27.112C394.524 27.5813 394.738 28.3067 394.738 29.288C394.738 29.8853 394.61 30.7173 394.354 31.784C394.098 32.808 393.692 33.896 393.138 35.048C392.839 35.6453 392.412 36.4987 391.858 37.608C391.346 38.7173 390.834 39.6987 390.322 40.552H393.394C393.692 40.552 393.842 40.7653 393.842 41.192C393.842 41.3627 393.799 41.5547 393.714 41.768C393.628 41.9387 393.5 42.024 393.33 42.024H389.554C388.487 43.8587 387.271 45.6507 385.906 47.4C384.54 49.1493 382.919 50.8987 381.042 52.648C380.914 53.032 380.743 53.5867 380.53 54.312C380.359 55.0373 380.188 55.784 380.018 56.552C379.89 57.2773 379.762 57.896 379.634 58.408C379.548 58.92 379.506 59.176 379.506 59.176C379.378 59.7307 379.314 60.2427 379.314 60.712C379.314 61.608 379.527 62.2693 379.954 62.696C380.38 63.08 380.871 63.272 381.426 63.272C381.767 63.272 382.108 63.2293 382.45 63.144C382.791 63.016 383.175 62.8027 383.602 62.504C385.095 61.4373 386.396 59.9867 387.506 58.152C388.658 56.3173 389.66 54.5467 390.514 52.84C390.77 52.328 391.026 52.072 391.282 52.072C391.452 52.072 391.538 52.2 391.538 52.456C391.538 52.584 391.474 52.8187 391.346 53.16C390.407 55.1227 389.618 56.7013 388.978 57.896C388.338 59.0907 387.719 60.0933 387.122 60.904C386.524 61.672 385.82 62.44 385.01 63.208C384.412 63.8053 383.73 64.2533 382.962 64.552C382.194 64.8507 381.426 65 380.658 65ZM385.714 40.552H388.978C389.575 39.4427 390.13 38.3547 390.642 37.288C391.196 36.2213 391.687 35.1547 392.114 34.088C392.412 33.4053 392.668 32.6373 392.882 31.784C393.095 30.9307 393.202 30.2693 393.202 29.8C393.202 29.16 393.052 28.84 392.753 28.84C392.54 28.84 392.22 29.032 391.794 29.416C391.41 29.7573 390.919 30.3547 390.322 31.208C389.554 32.2747 388.786 33.6613 388.018 35.368C387.292 37.032 386.524 38.76 385.714 40.552ZM381.554 50.6C382.791 49.32 383.943 47.9547 385.01 46.504C386.119 45.0533 387.143 43.56 388.082 42.024H385.074C384.391 43.6027 383.751 45.1387 383.154 46.632C382.556 48.1253 382.023 49.448 381.554 50.6ZM393.533 65C392.338 65 391.271 64.5947 390.333 63.784C389.394 62.9307 388.924 61.608 388.924 59.816C388.924 58.408 389.181 56.68 389.693 54.632C390.247 52.5413 390.909 50.3867 391.677 48.168C392.487 45.9067 393.277 43.8587 394.045 42.024H390.653C390.354 42.024 390.205 41.8107 390.205 41.384C390.205 41.1707 390.247 40.9787 390.333 40.808C390.461 40.6373 390.631 40.552 390.845 40.552H394.685C395.41 38.9307 396.178 37.352 396.989 35.816C397.799 34.28 398.589 32.8293 399.357 31.464C400.338 29.7573 401.383 28.4773 402.493 27.624C403.602 26.7707 404.562 26.344 405.373 26.344C406.013 26.344 406.546 26.6 406.973 27.112C407.399 27.5813 407.613 28.3067 407.613 29.288C407.613 29.8853 407.485 30.7173 407.229 31.784C406.973 32.808 406.567 33.896 406.013 35.048C405.714 35.6453 405.287 36.4987 404.733 37.608C404.221 38.7173 403.709 39.6987 403.197 40.552H406.269C406.567 40.552 406.717 40.7653 406.717 41.192C406.717 41.3627 406.674 41.5547 406.589 41.768C406.503 41.9387 406.375 42.024 406.205 42.024H402.429C401.362 43.8587 400.146 45.6507 398.781 47.4C397.415 49.1493 395.794 50.8987 393.917 52.648C393.789 53.032 393.618 53.5867 393.405 54.312C393.234 55.0373 393.063 55.784 392.893 56.552C392.765 57.2773 392.637 57.896 392.509 58.408C392.423 58.92 392.381 59.176 392.381 59.176C392.253 59.7307 392.189 60.2427 392.189 60.712C392.189 61.608 392.402 62.2693 392.829 62.696C393.255 63.08 393.746 63.272 394.301 63.272C394.642 63.272 394.983 63.2293 395.325 63.144C395.666 63.016 396.05 62.8027 396.477 62.504C397.97 61.4373 399.271 59.9867 400.381 58.152C401.533 56.3173 402.535 54.5467 403.389 52.84C403.645 52.328 403.901 52.072 404.157 52.072C404.327 52.072 404.413 52.2 404.413 52.456C404.413 52.584 404.349 52.8187 404.221 53.16C403.282 55.1227 402.493 56.7013 401.853 57.896C401.213 59.0907 400.594 60.0933 399.997 60.904C399.399 61.672 398.695 62.44 397.885 63.208C397.287 63.8053 396.605 64.2533 395.837 64.552C395.069 64.8507 394.301 65 393.533 65ZM398.589 40.552H401.853C402.45 39.4427 403.005 38.3547 403.517 37.288C404.071 36.2213 404.562 35.1547 404.989 34.088C405.287 33.4053 405.543 32.6373 405.757 31.784C405.97 30.9307 406.077 30.2693 406.077 29.8C406.077 29.16 405.927 28.84 405.628 28.84C405.415 28.84 405.095 29.032 404.669 29.416C404.285 29.7573 403.794 30.3547 403.197 31.208C402.429 32.2747 401.661 33.6613 400.893 35.368C400.167 37.032 399.399 38.76 398.589 40.552ZM394.429 50.6C395.666 49.32 396.818 47.9547 397.885 46.504C398.994 45.0533 400.018 43.56 400.957 42.024H397.949C397.266 43.6027 396.626 45.1387 396.029 46.632C395.431 48.1253 394.898 49.448 394.429 50.6ZM407.816 65.256C406.237 65.256 404.808 64.744 403.528 63.72C402.29 62.696 401.672 61.1387 401.672 59.048C401.672 57.128 402.141 55.08 403.08 52.904C404.018 50.6853 405.213 48.744 406.664 47.08C407.901 45.6293 409.288 44.4347 410.824 43.496C412.36 42.5573 413.81 42.088 415.176 42.088C416.114 42.088 416.925 42.344 417.608 42.856C418.333 43.4107 418.696 44.2 418.696 45.224C418.696 46.2907 418.29 47.464 417.48 48.744C416.669 50.024 415.517 51.2187 414.024 52.328C413.384 52.7973 412.573 53.2453 411.592 53.672C410.61 54.0987 409.629 54.4613 408.648 54.76C407.666 55.016 406.856 55.144 406.216 55.144C406.002 55.656 405.789 56.3387 405.576 57.192C405.405 58.0453 405.32 58.92 405.32 59.816C405.32 60.8827 405.533 61.8427 405.96 62.696C406.386 63.5493 407.176 63.976 408.328 63.976C409.736 63.976 411.016 63.5707 412.168 62.76C413.32 61.9493 414.344 60.9467 415.24 59.752C416.136 58.5147 416.882 57.2773 417.48 56.04C418.12 54.8027 418.632 53.7573 419.016 52.904C419.272 52.3067 419.613 52.008 420.04 52.008C420.253 52.008 420.36 52.1147 420.36 52.328C420.36 52.4987 420.296 52.712 420.168 52.968C419.57 54.248 418.93 55.6133 418.248 57.064C417.565 58.472 416.754 59.816 415.816 61.096C414.877 62.3333 413.746 63.336 412.424 64.104C411.144 64.872 409.608 65.256 407.816 65.256ZM406.664 53.992C407.261 53.992 408.264 53.7787 409.672 53.352C411.08 52.8827 412.36 52.1573 413.512 51.176C414.621 50.1947 415.474 49.128 416.072 47.976C416.669 46.7813 416.968 45.7787 416.968 44.968C416.968 44.0293 416.626 43.56 415.944 43.56C415.432 43.56 414.728 43.9013 413.832 44.584C412.936 45.2667 411.826 46.4187 410.504 48.04C409.693 49.064 408.925 50.1733 408.2 51.368C407.474 52.5627 406.962 53.4373 406.664 53.992ZM426.763 65.064C425.952 65.064 425.141 64.744 424.331 64.104C423.52 63.4213 423.115 62.3333 423.115 60.84C423.115 59.688 423.392 58.3653 423.947 56.872C424.459 55.4213 425.141 54.0133 425.995 52.648C426.891 51.2827 427.531 50.1733 427.915 49.32C428.043 48.9787 428.107 48.68 428.107 48.424C428.107 47.656 427.616 47.1013 426.635 46.76C425.696 46.4187 424.459 46.2267 422.923 46.184L422.155 48.296C421.685 49.6613 421.024 51.2613 420.171 53.096C419.36 54.9307 418.443 56.7013 417.419 58.408C416.437 60.1147 415.413 61.48 414.346 62.504C414.261 62.5893 414.154 62.632 414.026 62.632C413.856 62.632 413.749 62.5253 413.706 62.312C413.621 62.0987 413.706 61.8427 413.962 61.544C415.627 59.3253 417.12 56.872 418.443 54.184C419.765 51.4533 420.875 48.68 421.771 45.864C422.709 43.048 423.392 40.4453 423.819 38.056C423.947 37.3733 424.181 36.8827 424.523 36.584C424.864 36.2427 425.227 36.072 425.611 36.072C426.165 36.072 426.677 36.3493 427.147 36.904C427.616 37.416 427.851 38.1627 427.851 39.144C427.851 39.3147 427.829 39.5067 427.787 39.72C427.787 39.9333 427.765 40.1467 427.723 40.36C427.552 41.256 427.04 42.1093 426.187 42.92C425.376 43.688 424.715 44.264 424.203 44.648C424.629 44.6907 425.077 44.7333 425.547 44.776C426.016 44.776 426.528 44.776 427.083 44.776C429.088 44.776 431.072 44.648 433.035 44.392C433.12 44.648 433.163 44.84 433.163 44.968C433.163 45.5227 432.992 46.2267 432.651 47.08C432.352 47.9333 432.032 48.7013 431.691 49.384C431.52 49.768 431.179 50.472 430.667 51.496C430.155 52.4773 429.6 53.608 429.003 54.888C428.405 56.1253 427.893 57.3627 427.467 58.6C427.083 59.7947 426.891 60.8187 426.891 61.672C426.891 62.7813 427.317 63.336 428.171 63.336C428.811 63.336 429.515 62.9307 430.283 62.12C431.051 61.2667 431.797 60.2427 432.523 59.048C433.291 57.8107 433.973 56.616 434.571 55.464C435.211 54.2693 435.701 53.3307 436.043 52.648C436.213 52.2213 436.448 52.008 436.747 52.008C436.917 52.008 437.003 52.1573 437.003 52.456C437.003 52.6267 436.939 52.8827 436.811 53.224C436.341 54.2053 435.787 55.3147 435.147 56.552C434.507 57.7893 433.781 59.0053 432.971 60.2C432.203 61.3947 431.349 62.44 430.411 63.336C429.515 64.1893 428.533 64.744 427.467 65C427.339 65.0427 427.104 65.064 426.763 65.064ZM451.706 65.192C449.914 65.192 448.698 64.7227 448.058 63.784C447.418 62.8027 447.098 61.6507 447.098 60.328C447.098 59.5173 447.183 58.6213 447.354 57.64C446.287 59.6027 445.05 61.3307 443.642 62.824C442.277 64.3173 440.762 65.064 439.098 65.064C439.141 65.3627 439.162 65.6613 439.162 65.96C439.162 66.3013 439.162 66.6427 439.162 66.984C439.162 69.2027 438.885 71.5067 438.33 73.896C437.818 76.2853 437.071 78.504 436.09 80.552C435.109 82.6 433.957 84.264 432.634 85.544C431.311 86.824 429.839 87.464 428.218 87.464C427.279 87.464 426.469 87.2293 425.786 86.76C425.061 86.2907 424.698 85.3733 424.698 84.008C424.698 81.8747 425.338 78.9733 426.618 75.304C427.898 71.6347 429.455 67.6027 431.29 63.208C430.778 62.3547 430.522 61.4587 430.522 60.52C430.522 59.0267 430.949 58.0027 431.802 57.448C432.527 56.8507 433.295 56.616 434.106 56.744C435.642 53.288 437.199 49.896 438.778 46.568C440.357 43.1973 441.871 40.0187 443.322 37.032C444.815 34.0453 446.159 31.4213 447.354 29.16C448.079 27.752 448.826 26.664 449.594 25.896C450.405 25.128 451.45 24.744 452.73 24.744C453.114 24.744 453.562 24.8293 454.074 25C454.629 25.128 455.119 25.1707 455.546 25.128C454.565 26.0667 453.327 27.6453 451.834 29.864C450.383 32.04 448.805 34.6427 447.098 37.672C445.391 40.7013 443.642 43.9867 441.85 47.528C440.101 51.0267 438.415 54.5893 436.794 58.216C437.178 58.728 437.562 59.4107 437.946 60.264C438.373 61.1173 438.671 62.0347 438.842 63.016C438.842 63.144 438.863 63.2933 438.906 63.464C438.949 63.592 438.991 63.72 439.034 63.848C440.015 63.8907 440.954 63.5493 441.85 62.824C442.789 62.0987 443.663 61.1387 444.474 59.944C445.327 58.7493 446.095 57.4907 446.778 56.168C447.503 54.8453 448.122 53.608 448.634 52.456C448.677 52.3707 448.719 52.3067 448.762 52.264C449.402 49.8747 450.255 47.336 451.322 44.648C452.389 41.96 453.541 39.336 454.778 36.776C456.015 34.1733 457.253 31.8267 458.49 29.736C459.471 28.072 460.517 26.8347 461.626 26.024C462.778 25.1707 463.781 24.744 464.634 24.744C465.317 24.744 465.85 25 466.234 25.512C466.661 25.9813 466.874 26.7067 466.874 27.688C466.874 28.3707 466.767 29.1387 466.554 29.992C466.341 30.8453 465.935 31.9547 465.338 33.32C463.887 36.648 462.117 39.976 460.026 43.304C457.978 46.632 455.375 49.7467 452.218 52.648C452.047 53.16 451.834 53.7573 451.578 54.44C451.322 55.08 451.087 55.8693 450.874 56.808C450.703 57.6613 450.575 58.3013 450.49 58.728C450.447 59.1547 450.426 59.56 450.426 59.944C450.426 61.224 450.682 62.184 451.194 62.824C451.706 63.4213 452.346 63.72 453.114 63.72C453.797 63.72 454.522 63.4853 455.29 63.016C456.058 62.5467 456.783 61.8427 457.466 60.904C458.533 59.4107 459.493 57.896 460.346 56.36C461.199 54.7813 461.839 53.5653 462.266 52.712C462.522 52.2427 462.778 52.008 463.034 52.008C463.29 52.008 463.418 52.1573 463.418 52.456C463.418 52.6267 463.354 52.84 463.226 53.096C462.799 53.9493 462.266 55.0587 461.626 56.424C460.986 57.7467 460.197 59.0907 459.258 60.456C458.362 61.7787 457.274 62.9093 455.994 63.848C454.757 64.744 453.327 65.192 451.706 65.192ZM452.73 50.6C454.266 49.0213 455.759 47.208 457.21 45.16C458.661 43.112 460.005 40.9787 461.242 38.76C462.522 36.5413 463.589 34.3867 464.442 32.296C464.741 31.656 464.975 30.952 465.146 30.184C465.359 29.416 465.466 28.776 465.466 28.264C465.466 27.6667 465.317 27.368 465.018 27.368C464.847 27.368 464.57 27.5387 464.186 27.88C463.845 28.1787 463.397 28.712 462.842 29.48C462.074 30.5467 461.199 31.9973 460.218 33.832C459.279 35.6667 458.319 37.6293 457.338 39.72C456.399 41.8107 455.525 43.8373 454.714 45.8C453.903 47.72 453.242 49.32 452.73 50.6ZM437.306 64.104H437.626C437.583 62.9947 437.391 62.0347 437.05 61.224C436.794 60.6267 436.474 60.1147 436.09 59.688C435.834 60.2853 435.599 60.84 435.386 61.352C435.215 61.8213 435.002 62.3547 434.746 62.952C435.13 63.72 435.983 64.104 437.306 64.104ZM429.178 85.736C429.605 85.736 430.117 85.48 430.714 84.968C431.311 84.4987 431.887 83.88 432.442 83.112C433.509 81.704 434.447 79.976 435.258 77.928C436.069 75.88 436.709 73.7467 437.178 71.528C437.647 69.3093 437.861 67.24 437.818 65.32C437.733 65.32 437.626 65.32 437.498 65.32C437.413 65.3627 437.327 65.384 437.242 65.384C436.687 65.384 436.111 65.2773 435.514 65.064C434.917 64.8507 434.426 64.5947 434.042 64.296C432.933 67.1547 431.909 69.9707 430.97 72.744C429.989 75.56 429.242 78.0347 428.73 80.168C428.559 80.9787 428.431 81.6827 428.346 82.28C428.261 82.8773 428.218 83.3893 428.218 83.816C428.218 85.096 428.538 85.736 429.178 85.736ZM453.631 85.416C451.413 85.416 449.834 84.968 448.895 84.072C447.957 83.2187 447.487 82.1947 447.487 81C447.487 80.36 447.573 79.8053 447.743 79.336C447.914 78.8667 448.17 78.2693 448.511 77.544C449.109 76.3067 449.941 75.24 451.007 74.344C452.074 73.448 453.226 72.7227 454.464 72.168C456.682 71.144 459.2 70.312 462.016 69.672C464.874 69.032 467.605 68.328 470.208 67.56C471.018 66.152 471.765 64.552 472.448 62.76C473.13 60.9253 473.749 59.1547 474.304 57.448C474.858 55.6987 475.306 54.2693 475.648 53.16C475.136 54.0987 474.474 55.2507 473.664 56.616C472.896 57.9387 472.021 59.24 471.04 60.52C470.058 61.8 468.992 62.8667 467.84 63.72C466.73 64.5733 465.557 65 464.32 65C463.85 65 463.274 64.8933 462.592 64.68C461.952 64.4667 461.376 64.0827 460.864 63.528C460.394 62.9307 460.16 62.056 460.16 60.904C460.16 59.7947 460.416 58.728 460.928 57.704C461.482 56.6373 461.994 55.6133 462.464 54.632C462.336 54.632 462.186 54.5893 462.016 54.504C461.888 54.4187 461.824 54.2907 461.824 54.12C461.824 53.9493 461.866 53.7787 461.952 53.608C462.122 53.2667 462.314 52.904 462.528 52.52C462.741 52.136 462.933 51.7307 463.104 51.304C463.744 49.9813 464.384 48.7227 465.024 47.528C465.664 46.2907 466.218 45.2027 466.688 44.264C467.157 43.3253 467.968 42.856 469.12 42.856H473.088C472.789 43.112 472.405 43.4107 471.936 43.752C471.509 44.0507 471.104 44.52 470.72 45.16C469.568 47.1227 468.565 49.0213 467.712 50.856C466.858 52.648 465.941 54.568 464.96 56.616C464.49 57.5973 464.149 58.4933 463.936 59.304C463.722 60.1147 463.616 60.8187 463.616 61.416C463.616 62.824 464.085 63.528 465.024 63.528C466.048 63.528 467.285 62.696 468.736 61.032C469.93 59.624 471.125 57.96 472.32 56.04C473.557 54.0773 474.73 52.072 475.84 50.024C476.992 47.9333 477.994 46.0133 478.848 44.264C479.317 43.3253 480.149 42.856 481.344 42.856H484.864C483.626 43.7093 482.666 44.8187 481.984 46.184C481.344 47.5493 480.618 49.2987 479.808 51.432C478.912 53.7787 478.058 56.2107 477.248 58.728C476.48 61.2027 475.605 63.6987 474.624 66.216C476.032 65.7467 477.61 65.0213 479.36 64.04C481.152 63.0587 482.666 61.6507 483.904 59.816C484.885 58.3653 485.717 56.9787 486.4 55.656C487.125 54.2907 487.637 53.3093 487.936 52.712C488.106 52.2853 488.341 52.072 488.64 52.072C488.938 52.072 489.088 52.264 489.088 52.648C489.088 52.8613 489.024 53.096 488.896 53.352C487.786 55.5707 486.784 57.448 485.888 58.984C485.034 60.4773 484.074 61.7787 483.008 62.888C481.984 63.9547 480.725 64.8933 479.232 65.704C477.738 66.5573 475.84 67.4107 473.536 68.264C472.512 70.0987 471.338 71.9973 470.016 73.96C468.736 75.9653 467.264 77.8213 465.6 79.528C463.978 81.2773 462.165 82.6853 460.16 83.752C458.197 84.8613 456.021 85.416 453.631 85.416ZM452.095 84.136C453.503 84.136 454.954 83.7093 456.447 82.856C457.941 82.0027 459.391 80.9147 460.799 79.592C462.207 78.312 463.488 76.9893 464.64 75.624C465.834 74.3013 466.794 73.128 467.52 72.104C467.733 71.8053 467.968 71.4213 468.224 70.952C468.48 70.4827 468.736 70.0347 468.992 69.608C466.901 70.1627 464.597 70.76 462.08 71.4C459.605 72.0827 457.45 72.8293 455.615 73.64C453.567 74.4933 451.967 75.7093 450.815 77.288C449.621 78.8667 449.023 80.2747 449.023 81.512C449.023 82.28 449.279 82.8987 449.791 83.368C450.261 83.88 451.029 84.136 452.095 84.136Z" fill="#D315FF"/>
</svg>
