<svg width="491" height="124" viewBox="0 0 491 124" fill="none" xmlns="http://www.w3.org/2000/svg">
<path d="M153.908 0.399496C153.908 0.783001 153.974 0.798981 155.109 0.798981C156.244 0.798981 156.31 0.783001 156.31 0.399496C156.31 0.015991 156.244 1.1649e-05 155.109 1.1649e-05C153.974 1.1649e-05 153.908 0.015991 153.908 0.399496Z" fill="#D315FF"/>
<path d="M150.525 0.271678C150.284 0.303637 149.87 0.367555 149.608 0.415493C149.28 0.463431 149.106 0.607245 149.106 0.798998C149.106 1.15054 149.346 1.1825 150.699 1.02271C151.376 0.926833 151.507 0.846936 151.507 0.543328C151.507 0.159823 151.376 0.127864 150.525 0.271678Z" fill="#D315FF"/>
<path d="M158.711 0.46341C158.711 0.782998 159.279 0.958771 160.414 0.958771C160.96 0.958771 161.113 0.894853 161.113 0.655163C161.113 0.287637 160.698 0.159802 159.563 0.159802C158.864 0.159802 158.711 0.223719 158.711 0.46341Z" fill="#D315FF"/>
<path d="M212.328 0.303616C212.066 0.591245 212.481 0.958771 213.049 0.958771C214.053 0.958771 214.599 0.782998 214.599 0.46341C214.599 0.20774 214.424 0.159802 213.529 0.159802C212.918 0.159802 212.394 0.223719 212.328 0.303616Z" fill="#D315FF"/>
<path d="M217.044 0.511353C217.109 0.830941 217.262 0.878879 218.266 0.926817C219.358 0.974755 219.401 0.958776 219.401 0.575271C219.401 0.175786 219.336 0.159807 218.179 0.159807C217.044 0.159807 216.978 0.175786 217.044 0.511353Z" fill="#D315FF"/>
<path d="M208.661 0.751051C207.875 0.910845 207.613 1.05466 207.613 1.27837C207.613 1.43816 207.678 1.61394 207.787 1.6459C208.071 1.75775 210.014 1.26239 210.014 1.07064C209.992 0.591257 209.687 0.527339 208.661 0.751051Z" fill="#D315FF"/>
<path d="M221.803 0.862887C221.803 1.18247 221.956 1.26237 222.894 1.39021C224.073 1.56598 224.204 1.53402 224.204 1.10258C224.204 0.894845 223.92 0.78299 223.113 0.655155C222.501 0.559278 221.956 0.479381 221.912 0.479381C221.847 0.479381 221.803 0.655155 221.803 0.862887Z" fill="#D315FF"/>
<path d="M163.449 0.942782C163.318 1.34227 163.339 1.34227 164.584 1.59794C165.348 1.74175 165.566 1.74175 165.719 1.56598C166.09 1.13453 165.828 0.974741 164.256 0.73505C163.689 0.639174 163.558 0.671132 163.449 0.942782Z" fill="#D315FF"/>
<path d="M145.329 1.08661C144.456 1.29435 144.325 1.39022 144.434 1.66187C144.521 1.85362 144.587 2.01342 144.63 2.0294C144.652 2.07734 146.726 1.59795 146.857 1.53404C146.966 1.47012 146.639 0.798985 146.508 0.814965C146.442 0.814965 145.918 0.9428 145.329 1.08661Z" fill="#D315FF"/>
<path d="M226.518 1.53403C226.278 1.96548 226.366 2.04537 227.392 2.333C228.243 2.57269 228.418 2.57269 228.592 2.38094C228.898 2.0294 228.745 1.90156 227.654 1.58197C226.759 1.3263 226.628 1.3263 226.518 1.53403Z" fill="#D315FF"/>
<path d="M204.054 2.01341C203.159 2.36496 203.05 2.44486 203.247 2.71651C203.465 3.02012 203.487 3.02012 204.447 2.68455C205.059 2.46084 205.43 2.22115 205.43 2.06135C205.43 1.61393 205.168 1.59795 204.054 2.01341Z" fill="#D315FF"/>
<path d="M168.033 2.09331C167.946 2.34898 168.099 2.47682 168.906 2.76444C169.889 3.11599 169.889 3.11599 170.194 2.7964C170.5 2.49279 170.456 2.46084 169.474 2.12527C168.164 1.69383 168.164 1.69383 168.033 2.09331Z" fill="#D315FF"/>
<path d="M140.766 2.41291C139.915 2.7325 139.696 3.13198 140.242 3.29177C140.744 3.43559 142.404 2.7325 142.251 2.46085C142.185 2.31703 142.12 2.17322 142.12 2.14126C142.12 1.99744 141.53 2.1093 140.766 2.41291Z" fill="#D315FF"/>
<path d="M230.885 2.97217C230.819 3.11599 230.754 3.24382 230.754 3.27578C230.754 3.30774 231.19 3.51547 231.736 3.7232C232.718 4.12269 232.718 4.12269 232.958 3.8031C233.089 3.62733 233.155 3.46753 233.111 3.45155C232.718 3.24382 231.343 2.7165 231.19 2.7165C231.103 2.7165 230.95 2.82836 230.885 2.97217Z" fill="#D315FF"/>
<path d="M172.312 3.67527C172.072 3.94691 172.137 4.04279 173.032 4.49021C173.927 4.93764 174.08 4.9696 174.255 4.74588C174.364 4.60207 174.451 4.44228 174.451 4.37836C174.451 4.29846 172.77 3.35568 172.618 3.35568C172.596 3.35568 172.443 3.49949 172.312 3.67527Z" fill="#D315FF"/>
<path d="M199.928 3.80309C199.077 4.25052 198.946 4.45825 199.339 4.74588C199.513 4.87371 199.841 4.79381 200.539 4.42629C201.325 4.0268 201.434 3.89897 201.26 3.6433C200.976 3.27577 200.889 3.27577 199.928 3.80309Z" fill="#D315FF"/>
<path d="M136.728 4.17062C135.723 4.68196 135.636 4.8098 136.094 5.09742C136.313 5.22526 136.597 5.16134 137.295 4.79382C138.081 4.37835 138.168 4.2665 137.972 3.99485C137.841 3.81907 137.71 3.67526 137.688 3.67526C137.666 3.69124 137.23 3.89897 136.728 4.17062Z" fill="#D315FF"/>
<path d="M234.967 4.77784C234.749 5.03351 234.836 5.14536 235.6 5.59279C236.408 6.07217 236.495 6.08815 236.823 5.84846C237.172 5.59279 237.128 5.54485 236.32 5.03351C235.294 4.39433 235.294 4.39433 234.967 4.77784Z" fill="#D315FF"/>
<path d="M176.154 5.84846C175.914 6.05619 176.001 6.18403 176.678 6.67939C177.442 7.22269 177.508 7.25464 177.857 6.98299C178.206 6.72732 178.184 6.67939 177.486 6.15207C176.656 5.51289 176.547 5.49691 176.154 5.84846Z" fill="#D315FF"/>
<path d="M196.195 6.20001C195.562 6.67939 195.453 6.85517 195.649 6.99898C196.064 7.30259 196.348 7.23867 197.134 6.63145C197.745 6.16805 197.811 6.04022 197.57 5.83249C197.177 5.49692 197.112 5.5129 196.195 6.20001Z" fill="#D315FF"/>
<path d="M132.885 6.5196C132.099 7.11083 132.078 7.14279 132.47 7.39846C132.842 7.65413 132.907 7.63815 133.649 7.06289C134.348 6.55155 134.413 6.4397 134.173 6.18403C134.02 6.04021 133.846 5.91238 133.78 5.91238C133.737 5.91238 133.322 6.18403 132.885 6.5196Z" fill="#D315FF"/>
<path d="M238.547 7.0629C238.22 7.25465 238.263 7.33455 238.962 7.86187C239.77 8.51702 239.923 8.56496 240.316 8.27733C240.49 8.1495 240.403 7.95774 239.901 7.47836C239.158 6.80723 239.071 6.77527 238.547 7.0629Z" fill="#D315FF"/>
<path d="M179.451 8.38919C179.254 8.56497 179.32 8.74074 179.909 9.25208C180.477 9.7794 180.673 9.87527 181.001 9.73146C181.547 9.52373 181.525 9.50775 180.739 8.7727C179.997 8.08558 179.844 8.03765 179.451 8.38919Z" fill="#D315FF"/>
<path d="M193.03 8.86856C192.331 9.57165 192.331 9.57165 192.789 9.74742C193.03 9.85928 193.27 9.90722 193.292 9.87526C193.313 9.8433 193.619 9.55567 193.947 9.22011C194.449 8.74072 194.514 8.58093 194.296 8.38918C193.903 8.05361 193.837 8.08557 193.03 8.86856Z" fill="#D315FF"/>
<path d="M129.698 9.20413C129.021 9.89124 128.999 9.93918 129.37 10.1309C129.72 10.3227 129.851 10.2747 130.506 9.63557C130.92 9.25207 131.204 8.9165 131.161 8.88454C131.139 8.86856 130.942 8.77268 130.746 8.66083C130.462 8.50104 130.287 8.58093 129.698 9.20413Z" fill="#D315FF"/>
<path d="M241.494 9.79537C241.276 9.98713 241.669 10.5784 242.455 11.3134C242.477 11.3454 242.717 11.2974 242.957 11.1856C243.415 11.0098 243.415 11.0098 242.761 10.3067C242.04 9.5397 241.865 9.45981 241.494 9.79537Z" fill="#D315FF"/>
<path d="M182.311 11.1696C182.049 11.2815 182.114 11.4412 182.594 12.0485C183.206 12.8155 183.293 12.8634 183.795 12.6397C184.057 12.5278 183.992 12.368 183.511 11.7608C182.9 10.9938 182.813 10.9459 182.311 11.1696Z" fill="#D315FF"/>
<path d="M190.846 11.2335C190.737 11.3294 190.475 11.665 190.257 11.9686C189.886 12.4959 189.886 12.5278 190.279 12.7356C190.475 12.8474 190.672 12.9273 190.694 12.8954C190.715 12.8794 190.999 12.5278 191.327 12.1124C191.894 11.3933 191.916 11.3613 191.501 11.2016C191.174 11.0737 190.999 11.0897 190.846 11.2335Z" fill="#D315FF"/>
<path d="M127.013 12.2402C126.598 12.8634 126.576 12.9753 126.838 13.1031C127.362 13.3588 127.471 13.2949 127.973 12.5278C128.388 11.9046 128.41 11.7928 128.148 11.665C127.624 11.4093 127.515 11.4732 127.013 12.2402Z" fill="#D315FF"/>
<path d="M243.918 12.7356C243.547 12.8315 243.568 12.9433 244.07 13.8222C244.442 14.4773 244.551 14.5412 244.944 14.3815C245.359 14.2217 245.359 14.2057 244.966 13.4706C244.551 12.7036 244.398 12.5918 243.918 12.7356Z" fill="#D315FF"/>
<path d="M184.646 14.2376C184.297 14.3814 184.297 14.4454 184.756 15.1485C185.018 15.5639 185.236 15.9155 185.258 15.9474C185.28 15.9794 185.498 15.9314 185.76 15.8356C186.196 15.6598 186.196 15.6598 185.716 14.8608C185.192 13.9979 185.192 13.9979 184.646 14.2376Z" fill="#D315FF"/>
<path d="M188.205 14.8928C187.943 15.3402 187.768 15.7237 187.79 15.7397C187.834 15.7716 188.052 15.8196 188.292 15.8835C188.642 15.9634 188.794 15.8515 189.122 15.2923C189.58 14.4613 189.58 14.4294 189.078 14.2376C188.729 14.0938 188.62 14.1737 188.205 14.8928Z" fill="#D315FF"/>
<path d="M125.004 15.4201C124.611 16.1552 124.677 16.4588 125.223 16.4588C125.681 16.4588 126.511 15.0046 126.139 14.8289C125.594 14.5892 125.375 14.701 125.004 15.4201Z" fill="#D315FF"/>
<path d="M245.424 16.1232C245.206 16.2191 245.184 16.3949 245.402 16.9861C245.62 17.6253 245.73 17.7371 246.188 17.7371C246.581 17.7371 246.69 17.6732 246.603 17.4495C246.537 17.3057 246.428 16.9062 246.341 16.5706C246.21 15.9794 245.97 15.8675 245.424 16.1232Z" fill="#D315FF"/>
<path d="M186.306 17.6572C186.197 17.849 186.371 18.4083 186.808 19.3351C186.873 19.4629 187.092 19.1593 187.332 18.632C187.659 17.8809 187.703 17.6572 187.485 17.5454C187.026 17.3536 186.437 17.4016 186.306 17.6572Z" fill="#D315FF"/>
<path d="M123.694 18.3283C123.629 18.4881 123.52 18.8876 123.432 19.2232C123.301 19.7985 123.323 19.8464 123.804 19.7825C124.197 19.7505 124.349 19.5747 124.568 18.9835C124.699 18.568 124.764 18.2005 124.699 18.1526C124.437 17.9448 123.804 18.0727 123.694 18.3283Z" fill="#D315FF"/>
<path d="M246.035 19.7665C246.035 19.9263 246.101 20.3258 246.188 20.6613C246.297 21.1567 246.384 21.2686 246.777 21.2206C247.039 21.1887 247.214 21.1247 247.192 21.0448C247.149 20.9809 247.127 20.6134 247.127 20.2139C247.127 19.5588 247.083 19.4948 246.581 19.4948C246.21 19.4948 246.035 19.5747 246.035 19.7665Z" fill="#D315FF"/>
<path d="M122.821 21.7959C122.756 21.9717 122.69 22.4031 122.69 22.7227C122.69 23.266 122.756 23.3299 123.236 23.3299C123.76 23.3299 123.782 23.282 123.782 22.467C123.782 21.7639 123.716 21.5882 123.367 21.5242C123.061 21.4763 122.908 21.5562 122.821 21.7959Z" fill="#D315FF"/>
<path d="M246.254 23.7294C246.254 24.1289 246.254 24.4964 246.254 24.5603C246.232 24.6402 246.428 24.7041 246.647 24.7361C246.974 24.7681 247.105 24.6562 247.214 24.2727C247.476 23.282 247.389 23.0103 246.799 23.0103C246.297 23.0103 246.254 23.0742 246.254 23.7294Z" fill="#D315FF"/>
<path d="M122.69 25.3593C122.69 25.5191 122.756 25.9186 122.843 26.2541C122.952 26.7495 123.039 26.8613 123.432 26.8134C123.694 26.7815 123.891 26.6696 123.869 26.5577C123.847 26.4619 123.825 26.0784 123.825 25.7268C123.782 25.1516 123.716 25.0876 123.236 25.0876C122.865 25.0876 122.69 25.1675 122.69 25.3593Z" fill="#D315FF"/>
<path d="M245.948 26.5578C245.882 26.6696 245.817 27.0691 245.751 27.4366C245.664 28.0279 245.708 28.1078 246.144 28.1717C246.603 28.2356 246.668 28.1557 246.799 27.4366C246.908 26.8454 246.887 26.6057 246.668 26.5098C246.254 26.3181 246.035 26.334 245.948 26.5578Z" fill="#D315FF"/>
<path d="M123.716 28.5552C123.476 28.6031 123.367 28.7309 123.432 28.8907C123.498 29.0345 123.607 29.434 123.694 29.7696C123.804 30.2969 123.891 30.3608 124.306 30.265C124.546 30.201 124.786 30.1531 124.808 30.1371C124.895 30.0892 124.349 28.4433 124.24 28.4593C124.175 28.4753 123.935 28.5072 123.716 28.5552Z" fill="#D315FF"/>
<path d="M245.075 30.4727C244.856 31.4474 244.9 31.6392 245.359 31.6392C245.904 31.6392 245.948 31.5753 246.123 30.6325C246.275 29.9134 246.254 29.8815 245.752 29.8815C245.315 29.8815 245.206 29.9773 245.075 30.4727Z" fill="#D315FF"/>
<path d="M124.611 32.0546C124.415 32.1825 125.157 33.7165 125.397 33.7165C126.03 33.7005 126.118 33.4768 125.812 32.7098C125.594 32.1825 125.397 31.9588 125.113 31.9588C124.895 31.9588 124.677 32.0067 124.611 32.0546Z" fill="#D315FF"/>
<path d="M244.07 33.9083C243.939 34.2918 243.808 34.6593 243.787 34.7392C243.765 34.8191 243.961 34.9309 244.223 35.0108C244.638 35.1227 244.703 35.0588 244.944 34.3237C245.162 33.6686 245.162 33.4928 244.922 33.3809C244.42 33.1412 244.311 33.2052 244.07 33.9083Z" fill="#D315FF"/>
<path d="M126.336 35.3624C126.03 35.5382 126.03 35.6181 126.358 36.2572C126.751 36.9923 126.991 37.1521 127.449 36.9443C127.646 36.8325 127.646 36.6567 127.362 36.0655C126.969 35.2026 126.816 35.0907 126.336 35.3624Z" fill="#D315FF"/>
<path d="M242.87 36.7366C242.804 36.8325 242.608 37.184 242.433 37.5356C242.171 38.0949 242.171 38.1747 242.477 38.2546C243.044 38.4144 243.132 38.3665 243.525 37.6155C243.852 36.9923 243.852 36.8485 243.612 36.7366C243.219 36.5608 243.044 36.5608 242.87 36.7366Z" fill="#D315FF"/>
<path d="M127.973 38.6541C127.733 38.766 127.755 38.9258 128.148 39.4851C128.759 40.3639 128.694 40.316 129.196 40.2041C129.632 40.0923 129.632 40.0923 129.174 39.3093C128.715 38.5103 128.519 38.3985 127.973 38.6541Z" fill="#D315FF"/>
<path d="M240.796 40.5397C240.272 41.4186 240.272 41.3387 240.796 41.5464C241.189 41.7062 241.276 41.6423 241.669 40.9871C242.215 40.0603 242.215 40.0124 241.669 39.9005C241.32 39.8366 241.145 39.9644 240.796 40.5397Z" fill="#D315FF"/>
<path d="M130.113 41.866C129.829 41.9938 129.851 42.1217 130.309 42.7449C130.855 43.5119 130.92 43.5438 131.423 43.3041C131.685 43.1763 131.663 43.0644 131.248 42.4412C130.746 41.6742 130.637 41.6103 130.113 41.866Z" fill="#D315FF"/>
<path d="M238.635 43.7356C238.242 44.3268 238.198 44.5026 238.438 44.5985C238.897 44.8222 238.984 44.7742 239.595 44.0072C240.075 43.416 240.141 43.2402 239.901 43.1284C239.355 42.8727 239.137 42.9845 238.635 43.7356Z" fill="#D315FF"/>
<path d="M132.449 44.934C132.143 45.1258 132.143 45.2057 132.667 45.8129C133.213 46.5 133.737 46.6918 133.955 46.2763C134.042 46.0846 133.104 44.7423 132.885 44.7423C132.842 44.7423 132.645 44.8382 132.449 44.934Z" fill="#D315FF"/>
<path d="M236.19 46.7237C235.622 47.3949 235.622 47.4108 236.059 47.6026C236.517 47.8263 236.452 47.8742 237.347 46.8356C237.718 46.4041 237.74 46.2763 237.499 46.1644C236.975 45.9248 236.779 46.0046 236.19 46.7237Z" fill="#D315FF"/>
<path d="M134.937 47.9861C134.763 48.1459 134.872 48.3696 135.374 48.8649C135.942 49.4402 136.094 49.5041 136.444 49.3443C136.88 49.1366 136.859 49.0887 136.051 48.2897C135.461 47.7304 135.309 47.6825 134.937 47.9861Z" fill="#D315FF"/>
<path d="M233.461 49.5521C232.871 50.1753 232.871 50.2232 233.242 50.4309C233.613 50.6227 233.722 50.5748 234.356 49.9675C234.88 49.4882 235.011 49.2325 234.858 49.0887C234.465 48.7531 234.115 48.8809 233.461 49.5521Z" fill="#D315FF"/>
<path d="M137.775 50.7985C137.535 50.9103 137.622 51.0861 138.19 51.6773C138.801 52.3005 138.976 52.3804 139.26 52.2206C139.456 52.1088 139.653 52.0129 139.696 51.9809C139.806 51.933 138.408 50.6547 138.234 50.6547C138.146 50.6547 137.95 50.7186 137.775 50.7985Z" fill="#D315FF"/>
<path d="M230.579 52.1407C229.793 52.732 229.706 52.9716 230.251 53.1314C230.819 53.2753 232.194 52.1727 231.823 51.8371C231.474 51.5175 231.365 51.5495 230.579 52.1407Z" fill="#D315FF"/>
<path d="M30.3232 53.499C28.4021 54.4098 26.1754 56.583 25.2148 58.5325C23.8831 61.201 23.512 65.9949 24.407 68.4557C24.669 69.1588 25.0838 69.9737 25.3239 70.2613C25.9134 70.9964 25.8697 71.0923 25.1493 70.5969C24.8218 70.3732 24.2324 70.1495 23.8613 70.1175C23.2063 70.0536 23.1627 70.0696 23.2937 70.4371C23.4028 70.8046 23.3592 70.8206 22.8352 70.7567C22.3986 70.6928 22.3113 70.7248 22.4641 70.8366C22.5951 70.9325 22.7042 71.1722 22.7042 71.3479C22.7042 71.5397 22.9444 71.8593 23.25 72.067C23.9268 72.5304 23.8394 72.6263 22.988 72.3067C20.019 71.2201 13.0768 71.4758 7.96831 72.866C6.15634 73.3613 3.99507 74.416 2.42324 75.5665C1.13521 76.5093 0 77.8516 0 78.4268C0 78.8902 0.829578 79.3536 3.07817 80.1206C4.23521 80.5201 6.11268 81.3031 7.24789 81.8624C9.56197 83.0129 10.8063 83.3165 12.269 83.0608C13.2732 82.901 14.7141 82.182 16.0458 81.1912C16.5042 80.8237 16.9627 80.5361 17.05 80.5361C17.1155 80.5361 17.1373 81.0315 17.0718 81.6546C16.9845 82.5495 17.0718 83.0129 17.5521 84.0995C18.4254 86.1928 20.3901 87.599 23.0317 88.0624C23.643 88.1583 24.5599 88.4299 25.0838 88.6376C26.0225 89.0371 26.1099 89.0371 28.0528 88.8773C29.8211 88.7335 30.3014 88.6217 31.9606 87.9505C33.2704 87.4392 34.0345 87.0237 34.4056 86.6242C34.6894 86.3046 35.1479 85.8572 35.4099 85.6016C35.8683 85.1861 35.8683 85.1222 35.6063 84.0835C35.4535 83.4923 35.257 82.7253 35.1697 82.3737C34.9951 81.6546 34.1873 80.3603 32.6592 78.3309C32.0916 77.6119 31.7204 77.0206 31.8077 77.0206C31.9169 77.0206 32.8993 77.5959 33.9908 78.299C36.1958 79.6892 36.8944 80.0248 36.8944 79.7211C36.8944 79.6093 35.8901 78.7943 34.6676 77.8835C33.4451 76.9727 32.5063 76.2217 32.5937 76.2217C32.681 76.2217 33.5761 76.5093 34.6021 76.8608C35.6282 77.2124 37.1563 77.6758 38.0296 77.8835C39.5577 78.251 42.7451 78.5866 43.8803 78.4907C44.8627 78.3949 46.6092 76.9088 47.5916 75.3108C48.3775 74.0165 48.4648 73.7289 48.4648 72.6103C48.4648 71.3799 48.443 71.3 47.0239 69.2227C45.7359 67.3211 45.4303 67.0016 44.3824 66.3943C43.0725 65.6433 42.3521 65.4516 39.9289 65.1799C38.5754 65.0201 38.1169 65.0361 37.1563 65.2278C36.5451 65.3717 36.0211 65.4356 36.0211 65.4036C36.0211 65.3557 36.5451 64.8284 37.2 64.2531C38.619 62.9747 39.0338 62.3835 39.2085 61.4567C39.4049 60.4979 38.6627 59.3634 36.8944 57.9253C36.1521 57.3021 35.1916 56.3753 34.7768 55.8479C32.3099 52.732 32.157 52.6521 30.3232 53.499Z" fill="#D315FF"/>
<path d="M140.788 53.6268C140.548 53.8345 140.635 53.9624 141.312 54.4577C142.032 54.9691 142.142 55.017 142.447 54.7933C142.731 54.5856 142.709 54.4897 142.098 53.9624C141.356 53.3072 141.203 53.2593 140.788 53.6268Z" fill="#D315FF"/>
<path d="M227.261 54.7294C226.562 55.2567 226.54 55.3046 226.889 55.5603C227.239 55.832 227.304 55.8 228.068 55.2567C228.745 54.7613 228.832 54.6335 228.592 54.4258C228.199 54.0742 228.09 54.0902 227.261 54.7294Z" fill="#D315FF"/>
<path d="M144.085 56.1675C143.844 56.3753 143.91 56.5031 144.521 56.9665C145.329 57.5897 145.722 57.6536 145.918 57.2541C146.006 57.0784 145.831 56.8067 145.351 56.4552C144.565 55.848 144.456 55.832 144.085 56.1675Z" fill="#D315FF"/>
<path d="M223.855 57.1103C223.047 57.6376 223.025 57.6696 223.397 57.9412C223.768 58.2289 223.811 58.2129 224.575 57.6376C225.318 57.1103 225.361 57.0304 225.056 56.8067C224.75 56.583 224.641 56.615 223.855 57.1103Z" fill="#D315FF"/>
<path d="M147.578 58.5644C147.337 58.7722 147.403 58.9 148.014 59.3634C148.822 59.9706 149.128 60.0345 149.521 59.7149C149.695 59.5552 149.608 59.4113 149.149 59.1077C147.992 58.3407 147.883 58.2928 147.578 58.5644Z" fill="#D315FF"/>
<path d="M220.275 59.5232C219.62 60.0186 219.576 60.1144 219.86 60.3222C220.166 60.5459 220.275 60.5139 221.039 60.0345C221.803 59.5552 221.868 59.4593 221.606 59.2196C221.213 58.8681 221.126 58.884 220.275 59.5232Z" fill="#D315FF"/>
<path d="M151.332 60.7536C150.896 61.0732 151.027 61.2969 151.922 61.7603C153.385 62.4954 153.821 61.8722 152.424 61.0572C151.769 60.6897 151.507 60.6258 151.332 60.7536Z" fill="#D315FF"/>
<path d="M216.782 61.9201C216.127 62.4155 216.083 62.5114 216.367 62.7191C216.673 62.9428 216.782 62.9108 217.546 62.4315C218.31 61.9521 218.375 61.8562 218.113 61.6165C217.72 61.265 217.633 61.2809 216.782 61.9201Z" fill="#D315FF"/>
<path d="M19.2113 61.7923C19.2113 61.8562 19.4733 62.1918 19.8226 62.5433C20.15 62.8789 20.674 63.7577 21.0014 64.4608C21.3289 65.1799 21.5909 65.6753 21.5909 65.5794C21.6345 65.2278 20.5212 62.6232 20.1719 62.2397C19.8444 61.8722 19.2113 61.5845 19.2113 61.7923Z" fill="#D315FF"/>
<path d="M155 63.0387C154.847 63.1825 154.76 63.3103 154.803 63.3263C154.847 63.3583 155.284 63.5979 155.786 63.8856C156.463 64.2691 156.746 64.333 156.921 64.2052C157.336 63.9016 157.227 63.7098 156.332 63.2304C155.327 62.7191 155.349 62.7351 155 63.0387Z" fill="#D315FF"/>
<path d="M213.442 64.365C212.699 64.9242 212.656 65.0041 212.961 65.1959C213.267 65.3876 213.42 65.3237 214.118 64.8284C214.839 64.301 214.882 64.2211 214.577 63.9974C214.293 63.7897 214.162 63.8217 213.442 64.365Z" fill="#D315FF"/>
<path d="M158.973 65.0681C158.58 65.3557 158.646 65.4516 159.606 66.0108C160.436 66.4902 160.523 66.5062 160.851 66.2505C161.2 66.0108 161.178 65.9629 160.567 65.5954C159.541 64.9562 159.235 64.8763 158.973 65.0681Z" fill="#D315FF"/>
<path d="M21.6344 66.0907C21.6344 66.2665 21.6986 66.3144 21.7627 66.1866C21.8269 66.0748 21.8055 65.9309 21.7413 65.883C21.6772 65.8191 21.6131 65.915 21.6344 66.0907Z" fill="#D315FF"/>
<path d="M210.036 66.9057C209.425 67.433 209.403 67.5289 209.687 67.7366C209.992 67.9603 210.101 67.9124 210.822 67.401C211.499 66.9057 211.586 66.7778 211.346 66.5701C210.931 66.2026 210.778 66.2505 210.036 66.9057Z" fill="#D315FF"/>
<path d="M162.641 67.3531C162.401 67.5608 162.466 67.6887 163.078 68.1521C163.885 68.7593 164.191 68.8232 164.584 68.4876C164.78 68.3119 164.649 68.1521 163.951 67.6887C162.947 67.0175 162.99 67.0335 162.641 67.3531Z" fill="#D315FF"/>
<path d="M22.2893 68.0083C22.2893 68.184 22.3535 68.232 22.4176 68.1041C22.4818 67.9923 22.4604 67.8485 22.3962 67.8005C22.3321 67.7366 22.268 67.8325 22.2893 68.0083Z" fill="#D315FF"/>
<path d="M10.7408 68.7433C10.8718 69.0309 12.269 69.5103 13.2514 69.6062L14.081 69.6701L13.1641 69.4624C12.6838 69.3345 11.9634 69.0789 11.6141 68.8871C10.8718 68.5036 10.6317 68.4717 10.7408 68.7433Z" fill="#D315FF"/>
<path d="M206.98 69.4304C206.216 70.0696 206.172 70.1974 206.587 70.4531C206.805 70.5809 207.001 70.517 207.416 70.1815C208.508 69.3026 208.551 69.2227 208.093 69.0469C207.722 68.9031 207.547 68.967 206.98 69.4304Z" fill="#D315FF"/>
<path d="M166.134 69.75C165.959 69.8938 165.937 70.0536 166.046 70.1175C166.156 70.1814 166.549 70.4371 166.942 70.6928C167.531 71.0923 167.706 71.1242 167.989 70.9485C168.295 70.7567 168.251 70.6768 167.509 70.1175C166.592 69.4304 166.527 69.4144 166.134 69.75Z" fill="#D315FF"/>
<path d="M14.474 69.7818C14.6705 69.814 14.9762 69.814 15.129 69.7818C15.26 69.7335 15.1071 69.7012 14.736 69.7012C14.3867 69.7012 14.2557 69.7335 14.474 69.7818Z" fill="#D315FF"/>
<path d="M15.7839 69.9416C15.9803 69.9738 16.3296 69.9738 16.548 69.9416C16.7444 69.8932 16.5698 69.861 16.155 69.861C15.7402 69.861 15.5656 69.8932 15.7839 69.9416Z" fill="#D315FF"/>
<path d="M17.9015 70.1495C19.0149 70.3572 20.805 70.501 20.0409 70.3253C19.7134 70.2454 18.9275 70.1335 18.2944 70.0856C17.3557 70.0217 17.2902 70.0217 17.9015 70.1495Z" fill="#D315FF"/>
<path d="M203.749 72.2108C203.225 72.6742 203.115 72.866 203.312 73.0098C203.727 73.3134 204.011 73.2175 204.731 72.5624C205.233 72.115 205.342 71.9072 205.146 71.7634C204.753 71.4758 204.491 71.5557 203.749 72.2108Z" fill="#D315FF"/>
<path d="M169.649 72.1629C169.387 72.3866 169.474 72.4985 170.194 73.0418C170.827 73.5052 171.089 73.617 171.308 73.4892C171.461 73.3773 171.592 73.2655 171.592 73.2016C171.592 73.0897 170.129 71.9072 170.02 71.9072C169.976 71.9232 169.823 72.0351 169.649 72.1629Z" fill="#D315FF"/>
<path d="M200.911 74.7835C200.19 75.4387 200.103 75.6784 200.561 75.8062C201.085 75.966 202.461 74.8155 202.111 74.5119C201.762 74.2083 201.435 74.2722 200.911 74.7835Z" fill="#D315FF"/>
<path d="M173.054 74.7356C172.749 75.0072 172.77 75.0711 173.491 75.6464C174.189 76.1897 174.299 76.2376 174.604 76.0139C174.888 75.7902 174.866 75.6943 174.233 75.1191C173.84 74.7516 173.491 74.4639 173.469 74.4639C173.425 74.4639 173.251 74.5918 173.054 74.7356Z" fill="#D315FF"/>
<path d="M197.898 77.6598C197.396 78.1871 197.352 78.3309 197.57 78.5387C197.963 78.8742 198.051 78.8423 198.728 78.1232C199.23 77.6119 199.317 77.4361 199.099 77.2603C198.706 76.9088 198.575 76.9567 197.898 77.6598Z" fill="#D315FF"/>
<path d="M176.176 77.4201C175.98 77.5959 176.045 77.7717 176.635 78.283C177.224 78.8263 177.399 78.9062 177.682 78.7464C177.879 78.6345 178.075 78.5387 178.119 78.5067C178.228 78.4588 176.787 77.1804 176.613 77.1804C176.525 77.1804 176.329 77.2923 176.176 77.4201Z" fill="#D315FF"/>
<path d="M195.104 80.4083C194.492 81.0474 194.449 81.4949 195.016 81.4949C195.3 81.4949 196.479 80.4242 196.479 80.1686C196.479 80.1206 196.304 80.0088 196.108 79.9129C195.78 79.801 195.584 79.8969 195.104 80.4083Z" fill="#D315FF"/>
<path d="M179.232 80.1366C179.014 80.3284 179.101 80.4881 179.669 81.0155C180.258 81.5588 180.433 81.6227 180.782 81.4789C181.197 81.3191 181.175 81.2871 180.52 80.616C179.734 79.833 179.625 79.7851 179.232 80.1366Z" fill="#D315FF"/>
<path d="M37.1345 80.2644C36.7633 80.6 37.6366 81.1433 38.095 80.8557C38.4007 80.6639 38.4007 80.616 38.0732 80.3603C37.6366 79.9928 37.4619 79.9928 37.1345 80.2644Z" fill="#D315FF"/>
<path d="M39.8022 81.9601C39.5541 82.1748 39.6154 82.289 40.315 82.8742C41.0581 83.461 41.1873 83.5137 41.479 83.3005C41.7926 83.0881 41.7307 82.9899 40.9663 82.3864C40.2019 81.7828 40.0728 81.7301 39.8022 81.9601Z" fill="#D315FF"/>
<path d="M182.245 82.8851C181.896 83.1247 181.918 83.1887 182.551 83.8278C183.118 84.4191 183.293 84.499 183.577 84.3392C183.773 84.2273 183.97 84.1314 184.013 84.0995C184.057 84.0835 182.725 82.6134 182.616 82.6134C182.616 82.6134 182.442 82.7253 182.245 82.8851Z" fill="#D315FF"/>
<path d="M192.266 83.2686C191.763 83.7799 191.676 83.9557 191.894 84.1315C192.287 84.483 192.418 84.4351 193.095 83.732C193.597 83.2046 193.641 83.0608 193.423 82.8531C193.03 82.5175 192.942 82.5495 192.266 83.2686Z" fill="#D315FF"/>
<path d="M43.0043 84.6035C42.8239 84.7568 42.9696 84.954 43.6066 85.457C44.3928 86.0614 44.4789 86.0965 44.8149 85.8689C45.1503 85.6573 45.1096 85.5759 44.3653 85.021C43.4287 84.3472 43.3638 84.3288 43.0043 84.6035Z" fill="#D315FF"/>
<path d="M185.061 85.7294C184.668 85.9371 184.69 85.9851 185.345 86.6882C185.934 87.3273 186.087 87.3912 186.393 87.2155C186.611 87.1036 186.808 87.0077 186.851 86.9758C186.895 86.9598 186.109 86.0969 185.585 85.6175C185.498 85.5536 185.28 85.6016 185.061 85.7294Z" fill="#D315FF"/>
<path d="M189.493 86.1608C188.86 86.8 188.838 86.8479 189.209 87.0557C189.558 87.2315 189.668 87.1995 190.104 86.816C190.999 86.017 191.065 85.8412 190.584 85.6495C190.213 85.5057 190.06 85.5696 189.493 86.1608Z" fill="#D315FF"/>
<path d="M46.5 87.0077C46.2599 87.2155 46.3254 87.3433 46.9367 87.8067C47.7226 88.4139 48.0064 88.4778 48.4212 88.1742C48.6176 88.0304 48.5085 87.8546 47.8754 87.3753C46.9585 86.6881 46.893 86.6722 46.5 87.0077Z" fill="#D315FF"/>
<path d="M186.786 89.0211C186.218 89.6284 186.196 89.7083 186.546 89.9479C186.873 90.1876 186.917 90.1717 187.332 89.8041L187.746 89.4046L188.205 89.8361C188.576 90.2036 188.729 90.2516 189.078 90.1077C189.471 89.9639 189.493 89.916 189.166 89.5165C188.554 88.7655 188.314 88.5737 187.834 88.4619C187.463 88.382 187.266 88.4938 186.786 89.0211Z" fill="#D315FF"/>
<path d="M49.993 89.4046C49.7528 89.6124 49.8183 89.7402 50.4296 90.2036C51.2155 90.8108 51.4993 90.8748 51.9141 90.5711C52.1106 90.4273 52.0014 90.2516 51.3683 89.7722C50.4514 89.0851 50.3859 89.0691 49.993 89.4046Z" fill="#D315FF"/>
<path d="M184.035 91.9454C183.38 92.6644 183.38 92.6644 183.839 92.8402C184.319 93.032 184.45 92.9521 185.236 92.0093C185.563 91.6098 185.542 91.5619 185.149 91.4021C184.778 91.2583 184.625 91.3382 184.035 91.9454Z" fill="#D315FF"/>
<path d="M190.344 91.5938C190.017 91.7536 190.039 91.8495 190.628 92.5366C191.196 93.2237 191.305 93.2876 191.698 93.1119C191.916 93.016 192.091 92.8881 192.069 92.8402C191.742 92.3928 190.89 91.4021 190.803 91.418C190.737 91.418 190.541 91.4979 190.344 91.5938Z" fill="#D315FF"/>
<path d="M53.5295 91.7536C53.1366 92.0412 53.2021 92.1371 54.1626 92.6964C54.9486 93.1598 55.0795 93.1758 55.3852 92.968C55.6908 92.7443 55.6253 92.6644 54.8831 92.1371C53.9225 91.4979 53.9007 91.482 53.5295 91.7536Z" fill="#D315FF"/>
<path d="M57.0007 94.1665C56.826 94.3263 56.9789 94.518 57.6338 94.9974C58.4852 95.6046 58.507 95.6046 58.8345 95.301C59.1183 95.0294 59.0965 94.9655 58.3324 94.4861C57.4155 93.8949 57.35 93.8789 57.0007 94.1665Z" fill="#D315FF"/>
<path d="M181.306 94.7577C180.804 95.2851 180.76 95.4289 180.979 95.6366C181.372 95.9722 181.459 95.9402 182.136 95.2211C182.638 94.7098 182.725 94.534 182.507 94.3583C182.114 94.0067 181.983 94.0546 181.306 94.7577Z" fill="#D315FF"/>
<path d="M192.92 94.6139C192.571 94.7577 192.593 94.8376 193.204 95.4928C193.794 96.116 193.946 96.1799 194.318 96.0201C194.711 95.8763 194.732 95.8124 194.449 95.5088C194.274 95.317 194.012 94.9974 193.837 94.7897C193.488 94.3902 193.466 94.3902 192.92 94.6139Z" fill="#D315FF"/>
<path d="M60.6683 96.4516C60.45 96.6593 60.5155 96.7871 61.1923 97.2665C61.8472 97.7619 62.0218 97.8258 62.3056 97.65C62.8078 97.3464 62.7423 97.2345 61.8035 96.6912C61.0613 96.2598 60.9303 96.2278 60.6683 96.4516Z" fill="#D315FF"/>
<path d="M178.359 97.4902C177.704 98.0815 177.682 98.1614 178.01 98.401C178.316 98.6407 178.403 98.6088 179.101 98.0175C179.996 97.2825 180.018 97.2186 179.473 97.0108C179.145 96.867 178.949 96.9629 178.359 97.4902Z" fill="#D315FF"/>
<path d="M195.606 97.5541C195.322 97.7938 195.409 97.9376 196.37 98.8325C196.675 99.1201 196.719 99.1201 197.046 98.8804C197.374 98.6407 197.352 98.5768 196.785 97.9696C196.086 97.2505 195.999 97.2186 195.606 97.5541Z" fill="#D315FF"/>
<path d="M64.2486 98.7366C64.0085 99.0242 64.074 99.1201 64.7944 99.5356C65.7113 100.095 65.7768 100.111 66.1261 99.8072C66.3444 99.6155 66.2352 99.4717 65.5585 99.0083C65.1 98.6887 64.6852 98.433 64.6198 98.433C64.5543 98.433 64.3796 98.5768 64.2486 98.7366Z" fill="#D315FF"/>
<path d="M175.194 100.031C174.386 100.638 174.364 100.686 174.713 100.942C175.063 101.213 175.128 101.181 175.98 100.574C176.809 99.951 176.831 99.9191 176.438 99.6634C176.067 99.4077 176.001 99.4237 175.194 100.031Z" fill="#D315FF"/>
<path d="M198.684 100.239C198.509 100.398 198.662 100.59 199.317 101.07C200.125 101.645 200.212 101.677 200.539 101.437C200.867 101.213 200.823 101.134 200.059 100.606C199.099 99.967 199.033 99.951 198.684 100.239Z" fill="#D315FF"/>
<path d="M67.8944 100.974C67.7197 101.229 67.8071 101.357 68.5711 101.805C69.4007 102.284 69.488 102.3 69.8155 102.044C70.1648 101.805 70.143 101.757 69.5317 101.389C68.3965 100.686 68.1564 100.638 67.8944 100.974Z" fill="#D315FF"/>
<path d="M171.744 102.556C171.024 103.083 170.958 103.211 171.242 103.371C171.635 103.61 172.115 103.451 172.88 102.843C173.316 102.508 173.36 102.396 173.12 102.188C172.727 101.853 172.661 101.869 171.744 102.556Z" fill="#D315FF"/>
<path d="M202.177 102.652C201.827 102.955 203.639 104.09 204.054 103.834C204.469 103.578 204.404 103.435 203.639 102.907C202.832 102.38 202.548 102.332 202.177 102.652Z" fill="#D315FF"/>
<path d="M71.5838 103.163C71.3437 103.371 71.4092 103.466 71.9549 103.802C73.0683 104.489 73.3085 104.537 73.5704 104.202C73.7451 103.946 73.6577 103.818 72.9373 103.403C71.9549 102.827 71.9549 102.827 71.5838 103.163Z" fill="#D315FF"/>
<path d="M168.251 104.761C167.553 105.224 167.465 105.368 167.662 105.64C167.902 105.943 167.946 105.927 168.884 105.368C169.801 104.809 169.845 104.761 169.496 104.489C169.277 104.313 169.103 104.186 169.103 104.186C169.081 104.186 168.71 104.441 168.251 104.761Z" fill="#D315FF"/>
<path d="M206.128 104.697C205.692 105.017 205.823 105.24 206.761 105.72C207.635 106.151 207.678 106.167 207.962 105.863C208.137 105.704 208.246 105.56 208.202 105.544C208.18 105.528 207.766 105.304 207.263 105.017C206.587 104.633 206.303 104.569 206.128 104.697Z" fill="#D315FF"/>
<path d="M75.4478 105.288C75.1204 105.544 75.164 105.608 76.1027 106.103C76.9978 106.567 77.1506 106.598 77.3253 106.375C77.6091 105.991 77.5873 105.959 76.6485 105.464C75.8408 105.032 75.7753 105.017 75.4478 105.288Z" fill="#D315FF"/>
<path d="M164.431 106.902C163.623 107.334 163.536 107.413 163.776 107.685C164.06 108.037 164.278 107.989 165.37 107.318C165.959 106.966 166.003 106.902 165.675 106.662C165.37 106.439 165.261 106.455 164.431 106.902Z" fill="#D315FF"/>
<path d="M209.818 106.966C209.599 107.158 209.73 107.286 210.538 107.685C211.695 108.26 211.673 108.26 211.957 107.877C212.153 107.621 212.044 107.509 211.324 107.158C210.32 106.678 210.167 106.662 209.818 106.966Z" fill="#D315FF"/>
<path d="M79.2683 107.365C79.05 107.637 79.1374 107.749 79.9669 108.164C80.6874 108.532 80.993 108.596 81.1895 108.452C81.5824 108.164 81.4733 107.957 80.6 107.541C79.5085 106.998 79.5303 106.998 79.2683 107.365Z" fill="#D315FF"/>
<path d="M160.698 108.756C160.283 108.963 159.847 109.155 159.737 109.187C159.606 109.219 159.628 109.379 159.781 109.587L160.021 109.922L161.004 109.491C162.008 109.043 162.182 108.82 161.724 108.532C161.528 108.42 161.222 108.484 160.698 108.756Z" fill="#D315FF"/>
<path d="M213.856 108.931C213.704 109.235 213.747 109.283 214.839 109.746C215.428 110.002 215.668 110.05 215.865 109.906C216.258 109.619 216.192 109.507 215.319 109.059C214.358 108.596 214.053 108.564 213.856 108.931Z" fill="#D315FF"/>
<path d="M83.1542 109.395C82.9796 109.555 82.9577 109.682 83.0887 109.746C84.6387 110.513 84.9662 110.609 85.1627 110.402C85.4901 110.018 85.381 109.874 84.4859 109.491C83.4817 109.075 83.5253 109.075 83.1542 109.395Z" fill="#D315FF"/>
<path d="M156.266 110.625C155.371 111.009 155.349 111.025 155.655 111.376C155.83 111.568 155.982 111.552 156.856 111.248C157.576 110.993 157.838 110.801 157.794 110.609C157.685 110.21 157.183 110.226 156.266 110.625Z" fill="#D315FF"/>
<path d="M218.004 110.673C217.83 111.025 217.982 111.169 219.009 111.552C219.729 111.824 219.925 111.84 220.078 111.664C220.384 111.328 220.318 111.248 219.336 110.817C218.223 110.338 218.179 110.338 218.004 110.673Z" fill="#D315FF"/>
<path d="M87.3677 111.089C86.931 111.408 87.062 111.616 88.0881 112.015C88.9395 112.367 89.1141 112.383 89.2888 112.175C89.5944 111.84 89.5726 111.808 89.0268 111.552C88.743 111.424 88.3282 111.232 88.0662 111.121C87.7169 110.945 87.5641 110.945 87.3677 111.089Z" fill="#D315FF"/>
<path d="M152.118 112.143C151.332 112.399 151.027 112.846 151.507 113.054C151.616 113.102 152.14 112.99 152.642 112.798C153.799 112.367 153.734 112.431 153.559 112.111C153.406 111.808 153.166 111.808 152.118 112.143Z" fill="#D315FF"/>
<path d="M222.239 112.415C221.912 112.703 221.868 112.687 223.091 113.134C224.03 113.47 224.073 113.486 224.357 113.198C224.619 112.926 224.554 112.862 223.724 112.543C222.589 112.111 222.589 112.111 222.239 112.415Z" fill="#D315FF"/>
<path d="M91.3627 112.99C91.1881 113.374 91.1226 113.326 92.3233 113.773C93.0874 114.061 93.3057 114.077 93.4585 113.901C93.7642 113.565 93.6987 113.486 92.7163 113.054C91.5592 112.575 91.5374 112.575 91.3627 112.99Z" fill="#D315FF"/>
<path d="M147.556 113.581C146.857 113.821 146.77 113.901 146.944 114.205L147.119 114.572L148.167 114.237C149.411 113.853 149.368 113.885 149.193 113.549C149.018 113.23 148.582 113.246 147.556 113.581Z" fill="#D315FF"/>
<path d="M226.606 113.949C226.3 114.332 226.256 114.285 227.413 114.716C228.527 115.131 228.505 115.131 228.789 114.732C228.985 114.46 228.898 114.38 227.937 114.013L226.846 113.613L226.606 113.949Z" fill="#D315FF"/>
<path d="M95.6198 114.556C95.4233 114.844 95.5106 114.908 96.4057 115.195C97.6501 115.611 97.7155 115.611 97.8684 115.211C97.9557 114.956 97.781 114.828 96.9951 114.572C95.7944 114.189 95.9036 114.189 95.6198 114.556Z" fill="#D315FF"/>
<path d="M143.386 114.7C142.36 114.94 142.185 115.099 142.513 115.467C142.775 115.771 144.739 115.275 144.739 114.892C144.739 114.46 144.543 114.428 143.386 114.7Z" fill="#D315FF"/>
<path d="M230.95 115.387C230.666 115.787 230.601 115.723 231.889 116.138L232.937 116.474L233.177 116.154C233.46 115.755 233.526 115.819 232.238 115.403L231.19 115.068L230.95 115.387Z" fill="#D315FF"/>
<path d="M100.095 115.867C99.9205 116.25 99.8768 116.218 100.99 116.458C102.235 116.729 102.431 116.697 102.344 116.314C102.3 116.058 102.016 115.914 101.296 115.755C100.75 115.627 100.292 115.531 100.27 115.531C100.248 115.531 100.161 115.675 100.095 115.867Z" fill="#D315FF"/>
<path d="M138.583 115.723C138.016 115.835 137.754 115.978 137.754 116.154C137.754 116.586 137.928 116.634 139.02 116.426C139.806 116.282 140.046 116.154 140.046 115.914C140.046 115.563 139.675 115.499 138.583 115.723Z" fill="#D315FF"/>
<path d="M134.042 116.474C133.453 116.554 133.256 116.649 133.213 116.953C133.125 117.321 133.169 117.337 133.977 117.241C134.435 117.177 134.981 117.129 135.199 117.129C135.483 117.129 135.57 117.033 135.527 116.777C135.461 116.378 135.177 116.314 134.042 116.474Z" fill="#D315FF"/>
<path d="M235.556 116.474C235.556 116.554 235.513 116.729 235.447 116.857C235.36 117.001 235.622 117.161 236.255 117.337C237.521 117.688 237.783 117.672 237.696 117.273C237.652 117.033 237.325 116.841 236.604 116.634C236.015 116.474 235.556 116.394 235.556 116.474Z" fill="#D315FF"/>
<path d="M104.701 116.745C104.505 117.129 104.723 117.241 105.902 117.369C106.797 117.464 106.928 117.448 107.037 117.145C107.146 116.793 107.016 116.745 105.64 116.57C105.007 116.49 104.811 116.522 104.701 116.745Z" fill="#D315FF"/>
<path d="M129.065 117.081C128.475 117.145 128.344 117.209 128.41 117.496C128.454 117.688 128.606 117.848 128.759 117.832C128.89 117.816 129.414 117.8 129.894 117.784C130.68 117.768 130.768 117.72 130.768 117.369C130.768 116.953 130.702 116.937 129.065 117.081Z" fill="#D315FF"/>
<path d="M109.373 117.432C109.373 117.768 109.701 117.88 110.901 117.96C111.535 117.992 111.666 117.96 111.731 117.672C111.775 117.401 111.644 117.305 111.098 117.225C109.854 117.049 109.373 117.097 109.373 117.432Z" fill="#D315FF"/>
<path d="M124.699 117.416C123.629 117.464 123.542 117.496 123.694 117.816C123.891 118.295 123.847 118.295 125.026 118.136C125.965 118.024 126.074 117.96 125.987 117.688C125.878 117.416 125.703 117.369 124.699 117.416Z" fill="#D315FF"/>
<path d="M114.176 117.832C114.176 118.231 114.242 118.247 115.399 118.247C116.534 118.247 116.599 118.231 116.534 117.88C116.468 117.576 116.315 117.528 115.333 117.48C114.22 117.432 114.176 117.448 114.176 117.832Z" fill="#D315FF"/>
<path d="M240.032 117.736C239.835 118.136 239.923 118.215 240.949 118.471C242.258 118.807 242.324 118.791 242.324 118.359C242.324 118.056 242.128 117.944 241.232 117.752C240.316 117.544 240.141 117.544 240.032 117.736Z" fill="#D315FF"/>
<path d="M118.979 118.024C118.979 118.423 119.023 118.439 119.808 118.343C120.245 118.295 120.791 118.247 121.009 118.247C121.227 118.247 121.38 118.12 121.38 117.928C121.38 117.64 121.227 117.608 120.18 117.608C119.023 117.608 118.979 117.624 118.979 118.024Z" fill="#D315FF"/>
<path d="M244.638 118.839C244.551 118.982 244.572 119.142 244.66 119.206C244.834 119.318 246.756 119.702 246.821 119.638C246.843 119.622 246.908 119.446 246.996 119.27C247.127 118.966 247.018 118.903 246.166 118.743C244.9 118.519 244.791 118.519 244.638 118.839Z" fill="#D315FF"/>
<path d="M249.31 119.718C249.31 120.053 249.463 120.133 250.336 120.277C251.493 120.485 251.711 120.437 251.711 120.021C251.711 119.829 251.493 119.702 251.078 119.638C250.729 119.59 250.205 119.494 249.877 119.43C249.375 119.35 249.31 119.382 249.31 119.718Z" fill="#D315FF"/>
<path d="M254.004 120.485C253.916 120.676 253.894 120.852 253.938 120.868C254.025 120.916 256.187 121.268 256.209 121.236C256.23 121.22 256.296 121.044 256.383 120.868C256.492 120.58 256.427 120.517 255.881 120.437C255.532 120.389 255.008 120.293 254.702 120.245C254.266 120.165 254.113 120.213 254.004 120.485Z" fill="#D315FF"/>
<path d="M258.697 121.252C258.697 121.667 258.784 121.699 260.072 121.843C261.011 121.955 261.099 121.939 261.099 121.635C261.099 121.22 261.011 121.188 259.745 121.044C258.784 120.932 258.697 120.948 258.697 121.252Z" fill="#D315FF"/>
<path d="M263.5 121.843C263.5 121.971 263.5 122.13 263.478 122.194C263.478 122.274 263.959 122.402 264.57 122.498C265.487 122.658 265.683 122.642 265.771 122.45C266.011 122.019 265.902 121.955 264.81 121.779C263.435 121.555 263.5 121.555 263.5 121.843Z" fill="#D315FF"/>
<path d="M268.194 122.562C267.997 123.009 267.997 122.993 269.307 123.121C270.311 123.233 270.442 123.201 270.551 122.897C270.639 122.626 270.53 122.562 269.853 122.466C269.416 122.418 268.892 122.338 268.696 122.306C268.477 122.258 268.281 122.354 268.194 122.562Z" fill="#D315FF"/>
<path d="M272.887 123.201C272.887 123.521 273.018 123.553 274.59 123.744C275.223 123.824 275.289 123.792 275.289 123.457C275.289 123.041 274.83 122.881 273.608 122.881C273.04 122.881 272.887 122.945 272.887 123.201Z" fill="#D315FF"/>
<path d="M277.69 123.601C277.69 123.936 277.799 124 278.345 124C278.891 124 279 123.936 279 123.601C279 123.265 278.891 123.201 278.345 123.201C277.799 123.201 277.69 123.265 277.69 123.601Z" fill="#D315FF"/>
<path d="M279.824 83.24V85.64H271.92V83.24H279.824ZM303.638 70.6H305.11V93.384H304.95L287.19 75.88H287.062V93H285.59V70.216H285.75L303.51 87.72H303.638V70.6ZM317.385 76.648C318.943 76.648 320.148 76.872 321.002 77.32C321.855 77.7467 322.474 78.312 322.858 79.016C323.263 79.72 323.498 80.5307 323.562 81.448C323.626 82.3653 323.658 83.304 323.658 84.264V93H321.066V91.432C320.447 92.0293 319.658 92.5093 318.698 92.872C317.738 93.2133 316.778 93.384 315.818 93.384C314.9 93.384 314.09 93.224 313.386 92.904C312.682 92.584 312.095 92.168 311.626 91.656C311.156 91.144 310.804 90.568 310.57 89.928C310.335 89.288 310.218 88.6373 310.218 87.976C310.218 87.2933 310.346 86.6107 310.602 85.928C310.858 85.2453 311.242 84.6373 311.754 84.104C312.266 83.5493 312.895 83.1013 313.641 82.76C314.388 82.4187 315.242 82.248 316.202 82.248C317.162 82.248 318.068 82.44 318.922 82.824C319.796 83.1867 320.511 83.7093 321.066 84.392V83.016C321.066 81.2667 320.799 79.9653 320.266 79.112C319.754 78.2587 318.804 77.832 317.418 77.832C316.82 77.832 316.298 77.9067 315.85 78.056C315.402 78.2053 314.996 78.4187 314.634 78.696C314.292 78.952 313.972 79.2827 313.674 79.688C313.375 80.072 313.076 80.5093 312.778 81L311.114 79.336C311.412 79.016 311.722 78.696 312.042 78.376C312.383 78.056 312.788 77.768 313.258 77.512C313.748 77.256 314.324 77.0533 314.986 76.904C315.647 76.7333 316.447 76.648 317.385 76.648ZM321.066 86.664C320.959 86.408 320.799 86.1093 320.586 85.768C320.394 85.4267 320.138 85.096 319.818 84.776C319.498 84.456 319.114 84.1893 318.666 83.976C318.218 83.7413 317.684 83.624 317.066 83.624C316.447 83.624 315.882 83.752 315.37 84.008C314.858 84.2427 314.42 84.5627 314.058 84.968C313.716 85.352 313.45 85.8107 313.258 86.344C313.066 86.8773 312.97 87.432 312.97 88.008C312.97 88.6907 313.087 89.288 313.322 89.8C313.578 90.2907 313.898 90.7173 314.282 91.08C314.666 91.4213 315.092 91.6773 315.562 91.848C316.031 92.0187 316.479 92.104 316.906 92.104C317.311 92.104 317.716 92.0293 318.122 91.88C318.548 91.7307 318.943 91.528 319.306 91.272C319.69 90.9947 320.031 90.6747 320.33 90.312C320.628 89.9493 320.874 89.5547 321.066 89.128V86.664ZM329.803 77H332.523V93H329.803V77ZM329.419 71.944C329.419 71.4747 329.589 71.0693 329.931 70.728C330.272 70.3867 330.677 70.216 331.147 70.216C331.616 70.216 332.021 70.3867 332.363 70.728C332.704 71.0693 332.875 71.4747 332.875 71.944C332.875 72.4133 332.704 72.8187 332.363 73.16C332.021 73.5013 331.616 73.672 331.147 73.672C330.677 73.672 330.272 73.5013 329.931 73.16C329.589 72.8187 329.419 72.4133 329.419 71.944ZM341.983 70.6V93H339.263V70.6H341.983ZM357.956 80.648H356.132C356.132 80.3707 356.057 80.072 355.908 79.752C355.758 79.432 355.524 79.144 355.204 78.888C354.884 78.6107 354.489 78.3867 354.02 78.216C353.55 78.024 352.996 77.928 352.356 77.928C351.716 77.928 351.182 78.024 350.756 78.216C350.329 78.3867 349.988 78.6107 349.732 78.888C349.476 79.144 349.294 79.432 349.188 79.752C349.081 80.0507 349.028 80.3387 349.028 80.616C349.028 81.2773 349.262 81.7893 349.732 82.152C350.222 82.5147 350.83 82.824 351.556 83.08C352.281 83.336 353.06 83.5813 353.892 83.816C354.745 84.0507 355.534 84.36 356.26 84.744C356.985 85.1067 357.582 85.5973 358.052 86.216C358.542 86.8347 358.788 87.656 358.788 88.68C358.788 90.088 358.286 91.2293 357.284 92.104C356.302 92.9573 354.83 93.384 352.868 93.384C351.78 93.384 350.82 93.256 349.988 93C349.177 92.7227 348.484 92.36 347.908 91.912C347.353 91.464 346.937 90.9627 346.66 90.408C346.382 89.832 346.243 89.2453 346.243 88.648H348.324C348.324 88.904 348.398 89.224 348.548 89.608C348.718 89.992 348.985 90.376 349.348 90.76C349.732 91.1227 350.212 91.4427 350.788 91.72C351.385 91.976 352.11 92.104 352.964 92.104C353.646 92.104 354.212 92.0187 354.66 91.848C355.108 91.656 355.46 91.432 355.716 91.176C355.972 90.8987 356.142 90.6 356.228 90.28C356.334 89.96 356.388 89.6507 356.388 89.352C356.388 88.648 356.153 88.0933 355.684 87.688C355.214 87.2827 354.628 86.952 353.924 86.696C353.22 86.4187 352.452 86.1733 351.62 85.96C350.809 85.7253 350.052 85.4267 349.348 85.064C348.644 84.7013 348.057 84.2213 347.588 83.624C347.118 83.0267 346.884 82.216 346.884 81.192C346.884 80.4453 347.022 79.7947 347.299 79.24C347.577 78.664 347.95 78.184 348.42 77.8C348.91 77.416 349.476 77.128 350.116 76.936C350.777 76.744 351.481 76.648 352.228 76.648C353.017 76.648 353.753 76.7547 354.436 76.968C355.14 77.16 355.748 77.4373 356.26 77.8C356.793 78.1413 357.209 78.5573 357.508 79.048C357.806 79.5387 357.956 80.072 357.956 80.648ZM370.387 83.24V85.64H362.483V83.24H370.387Z" fill="#D315FF"/>
<path d="M207.776 83.328C207.392 83.328 207.307 83.0293 207.52 82.432C207.776 81.8773 208.011 81.3653 208.224 80.896C208.608 80.128 208.8 78.9333 208.8 77.312C208.8 75.904 208.544 74.3893 208.032 72.768C207.52 71.1467 206.517 69.6747 205.024 68.352C202.976 66.4747 200.672 64.9813 198.112 63.872C195.552 62.7627 192.864 61.8667 190.048 61.184C187.275 60.5013 184.523 59.904 181.792 59.392C180.128 61.696 178.336 63.7653 176.416 65.6C174.539 67.4347 172.533 68.8427 170.4 69.824C169.205 70.3787 168.053 70.784 166.944 71.04C165.835 71.3387 164.789 71.488 163.808 71.488C161.419 71.488 159.456 70.848 157.92 69.568C156.427 68.3307 155.68 66.8587 155.68 65.152C155.68 63.5307 156.405 61.952 157.856 60.416C159.349 58.8373 161.803 57.536 165.216 56.512C166.581 56.128 168.096 55.8507 169.76 55.68C171.424 55.4667 173.152 55.36 174.944 55.36C176.053 55.36 177.141 55.4027 178.208 55.488C179.317 55.5307 180.341 55.6587 181.28 55.872C182.517 53.9947 183.669 52.0533 184.736 50.048C185.803 48 186.912 45.7813 188.064 43.392C184.693 43.4773 181.771 42.9867 179.296 41.92C176.821 40.8107 174.901 39.3387 173.536 37.504C172.213 35.6693 171.552 33.7067 171.552 31.616C171.552 29.9093 172.043 28.2453 173.024 26.624C174.005 24.96 175.541 23.4667 177.632 22.144C179.765 20.7787 182.475 19.712 185.76 18.944C185.973 18.8587 186.165 18.816 186.336 18.816C186.549 18.816 186.741 18.816 186.912 18.816C187.552 18.816 187.872 18.944 187.872 19.2C187.872 19.6267 187.189 19.9253 185.824 20.096C183.605 20.352 181.643 21.1413 179.936 22.464C178.272 23.7867 176.971 25.3653 176.032 27.2C175.136 29.0347 174.688 30.8907 174.688 32.768C174.688 34.3893 175.072 35.904 175.84 37.312C176.608 38.72 177.824 39.872 179.488 40.768C181.152 41.6213 183.307 42.048 185.952 42.048C186.891 42.048 187.893 41.984 188.96 41.856C189.131 41.5147 189.408 40.832 189.792 39.808C190.219 38.7413 190.688 37.5467 191.2 36.224C191.712 34.9013 192.203 33.6213 192.672 32.384C193.184 31.1467 193.589 30.1227 193.888 29.312C194.229 28.4587 194.4 28.032 194.4 28.032C196.363 23.1253 198.368 19.2853 200.416 16.512C202.507 13.696 204.512 11.712 206.432 10.56C208.395 9.408 210.144 8.832 211.68 8.832C213.344 8.832 214.709 9.32266 215.776 10.304C216.885 11.2853 217.483 12.3947 217.568 13.632C217.611 14.016 217.632 14.2933 217.632 14.464C217.632 14.6347 217.632 14.848 217.632 15.104C217.632 17.6213 217.12 20.1387 216.096 22.656C215.115 25.1733 213.728 27.5627 211.936 29.824C210.187 32.0853 208.16 34.1333 205.856 35.968C203.595 37.8027 201.163 39.3387 198.56 40.576C196 41.8133 193.397 42.6667 190.752 43.136C190.112 44.416 189.536 45.568 189.024 46.592C188.555 47.5733 188.021 48.64 187.424 49.792C186.827 50.944 186.037 52.416 185.056 54.208C184.757 54.7627 184.523 55.168 184.352 55.424C184.224 55.6373 184.011 55.9787 183.712 56.448C185.845 56.96 188.171 57.6853 190.688 58.624C193.205 59.52 195.68 60.608 198.112 61.888C200.587 63.1253 202.784 64.4907 204.704 65.984C207.093 67.8187 208.779 69.888 209.76 72.192C210.784 74.496 211.296 76.5227 211.296 78.272C211.296 79.5093 211.104 80.448 210.72 81.088C210.165 82.0267 209.611 82.624 209.056 82.88C208.501 83.1787 208.075 83.328 207.776 83.328ZM191.648 41.408C194.549 40.768 197.387 39.616 200.16 37.952C202.933 36.2453 205.429 34.1973 207.648 31.808C209.867 29.376 211.637 26.752 212.96 23.936C214.283 21.0773 214.944 18.176 214.944 15.232C214.944 14.5067 214.752 13.9093 214.368 13.44C213.984 12.9707 213.429 12.736 212.704 12.736C211.723 12.736 210.464 13.2907 208.928 14.4C207.392 15.4667 205.643 17.28 203.68 19.84C201.717 22.3573 199.605 25.8347 197.344 30.272C197.344 30.272 197.045 30.8267 196.448 31.936C195.893 33.0453 195.168 34.4533 194.272 36.16C193.419 37.824 192.544 39.5733 191.648 41.408ZM162.912 69.632C163.851 69.632 164.853 69.504 165.92 69.248C167.029 68.992 168.181 68.5867 169.376 68.032C172.96 66.2827 176.267 63.2533 179.296 58.944C178.315 58.7307 177.291 58.5813 176.224 58.496C175.157 58.368 174.069 58.304 172.96 58.304C171.808 58.304 170.613 58.368 169.376 58.496C168.181 58.624 167.008 58.8587 165.856 59.2C162.997 59.968 160.8 60.9493 159.264 62.144C157.771 63.3387 157.024 64.5547 157.024 65.792C157.024 66.8587 157.557 67.7547 158.624 68.48C159.691 69.248 161.12 69.632 162.912 69.632ZM212.565 38.016C211.925 38.016 211.391 37.8027 210.965 37.376C210.581 36.9067 210.389 36.352 210.389 35.712C210.389 34.9013 210.709 34.1973 211.349 33.6C211.989 33.0027 212.693 32.704 213.461 32.704C214.143 32.704 214.698 32.9173 215.125 33.344C215.551 33.7707 215.765 34.2827 215.765 34.88C215.765 35.6907 215.445 36.416 214.805 37.056C214.165 37.696 213.418 38.016 212.565 38.016ZM207.381 64C205.802 64 204.693 63.552 204.053 62.656C203.413 61.7173 203.093 60.6507 203.093 59.456C203.093 58.816 203.157 58.176 203.285 57.536C203.455 56.8533 203.647 56.2347 203.861 55.68L208.149 44.736C208.277 44.3947 208.341 44.096 208.341 43.84C208.341 43.4133 208.234 43.0507 208.021 42.752C207.807 42.4107 207.658 42.176 207.573 42.048L211.093 41.92C211.733 41.8773 212.181 41.9627 212.437 42.176C212.735 42.3467 212.885 42.56 212.885 42.816C212.885 43.072 212.735 43.5413 212.437 44.224L207.125 56.704C207.125 56.704 206.997 56.9813 206.741 57.536C206.527 58.048 206.399 58.3893 206.357 58.56C206.229 59.2 206.143 59.6053 206.101 59.776C206.058 59.9467 206.036 60.0533 206.036 60.096C206.036 60.1387 206.036 60.3093 206.036 60.608C206.036 61.1627 206.165 61.632 206.421 62.016C206.719 62.4 207.21 62.592 207.893 62.592C208.319 62.592 208.81 62.464 209.365 62.208C209.919 61.952 210.325 61.696 210.581 61.44C211.647 60.3307 212.693 58.88 213.717 57.088C214.783 55.2533 215.765 53.44 216.661 51.648C216.831 51.2213 217.045 51.008 217.301 51.008C217.514 51.008 217.621 51.1573 217.621 51.456C217.621 51.6267 217.557 51.8827 217.429 52.224C217.002 53.12 216.469 54.2293 215.829 55.552C215.189 56.8747 214.421 58.1973 213.525 59.52C212.671 60.8 211.733 61.8667 210.709 62.72C209.685 63.5733 208.575 64 207.381 64ZM219.783 64C218.588 64 217.521 63.5947 216.583 62.784C215.644 61.9307 215.174 60.608 215.174 58.816C215.174 57.408 215.431 55.68 215.943 53.632C216.497 51.5413 217.159 49.3867 217.927 47.168C218.737 44.9067 219.527 42.8587 220.295 41.024H216.903C216.604 41.024 216.455 40.8107 216.455 40.384C216.455 40.1707 216.497 39.9787 216.583 39.808C216.711 39.6373 216.881 39.552 217.095 39.552H220.935C221.66 37.9307 222.428 36.352 223.239 34.816C224.049 33.28 224.839 31.8293 225.607 30.464C226.588 28.7573 227.633 27.4773 228.743 26.624C229.852 25.7707 230.812 25.344 231.623 25.344C232.263 25.344 232.796 25.6 233.223 26.112C233.649 26.5813 233.863 27.3067 233.863 28.288C233.863 28.8853 233.735 29.7173 233.479 30.784C233.223 31.808 232.817 32.896 232.263 34.048C231.964 34.6453 231.537 35.4987 230.983 36.608C230.471 37.7173 229.959 38.6987 229.447 39.552H232.519C232.817 39.552 232.967 39.7653 232.967 40.192C232.967 40.3627 232.924 40.5547 232.839 40.768C232.753 40.9387 232.625 41.024 232.455 41.024H228.679C227.612 42.8587 226.396 44.6507 225.031 46.4C223.665 48.1493 222.044 49.8987 220.167 51.648C220.039 52.032 219.868 52.5867 219.655 53.312C219.484 54.0373 219.313 54.784 219.143 55.552C219.015 56.2773 218.887 56.896 218.759 57.408C218.673 57.92 218.631 58.176 218.631 58.176C218.503 58.7307 218.439 59.2427 218.439 59.712C218.439 60.608 218.652 61.2693 219.079 61.696C219.505 62.08 219.996 62.272 220.551 62.272C220.892 62.272 221.233 62.2293 221.575 62.144C221.916 62.016 222.3 61.8027 222.727 61.504C224.22 60.4373 225.521 58.9867 226.631 57.152C227.783 55.3173 228.785 53.5467 229.639 51.84C229.895 51.328 230.151 51.072 230.407 51.072C230.577 51.072 230.663 51.2 230.663 51.456C230.663 51.584 230.599 51.8187 230.471 52.16C229.532 54.1227 228.743 55.7013 228.103 56.896C227.463 58.0907 226.844 59.0933 226.247 59.904C225.649 60.672 224.945 61.44 224.135 62.208C223.537 62.8053 222.855 63.2533 222.087 63.552C221.319 63.8507 220.551 64 219.783 64ZM224.839 39.552H228.103C228.7 38.4427 229.255 37.3547 229.767 36.288C230.321 35.2213 230.812 34.1547 231.239 33.088C231.537 32.4053 231.793 31.6373 232.007 30.784C232.22 29.9307 232.327 29.2693 232.327 28.8C232.327 28.16 232.177 27.84 231.878 27.84C231.665 27.84 231.345 28.032 230.919 28.416C230.535 28.7573 230.044 29.3547 229.447 30.208C228.679 31.2747 227.911 32.6613 227.143 34.368C226.417 36.032 225.649 37.76 224.839 39.552ZM220.679 49.6C221.916 48.32 223.068 46.9547 224.135 45.504C225.244 44.0533 226.268 42.56 227.207 41.024H224.199C223.516 42.6027 222.876 44.1387 222.279 45.632C221.681 47.1253 221.148 48.448 220.679 49.6ZM232.658 64C231.463 64 230.396 63.5947 229.458 62.784C228.519 61.9307 228.049 60.608 228.049 58.816C228.049 57.408 228.306 55.68 228.818 53.632C229.372 51.5413 230.034 49.3867 230.802 47.168C231.612 44.9067 232.402 42.8587 233.17 41.024H229.778C229.479 41.024 229.33 40.8107 229.33 40.384C229.33 40.1707 229.372 39.9787 229.458 39.808C229.586 39.6373 229.756 39.552 229.97 39.552H233.81C234.535 37.9307 235.303 36.352 236.114 34.816C236.924 33.28 237.714 31.8293 238.482 30.464C239.463 28.7573 240.508 27.4773 241.618 26.624C242.727 25.7707 243.687 25.344 244.498 25.344C245.138 25.344 245.671 25.6 246.098 26.112C246.524 26.5813 246.738 27.3067 246.738 28.288C246.738 28.8853 246.61 29.7173 246.354 30.784C246.098 31.808 245.692 32.896 245.138 34.048C244.839 34.6453 244.412 35.4987 243.858 36.608C243.346 37.7173 242.834 38.6987 242.322 39.552H245.394C245.692 39.552 245.842 39.7653 245.842 40.192C245.842 40.3627 245.799 40.5547 245.714 40.768C245.628 40.9387 245.5 41.024 245.33 41.024H241.554C240.487 42.8587 239.271 44.6507 237.906 46.4C236.54 48.1493 234.919 49.8987 233.042 51.648C232.914 52.032 232.743 52.5867 232.53 53.312C232.359 54.0373 232.188 54.784 232.018 55.552C231.89 56.2773 231.762 56.896 231.634 57.408C231.548 57.92 231.506 58.176 231.506 58.176C231.378 58.7307 231.314 59.2427 231.314 59.712C231.314 60.608 231.527 61.2693 231.954 61.696C232.38 62.08 232.871 62.272 233.426 62.272C233.767 62.272 234.108 62.2293 234.45 62.144C234.791 62.016 235.175 61.8027 235.602 61.504C237.095 60.4373 238.396 58.9867 239.506 57.152C240.658 55.3173 241.66 53.5467 242.514 51.84C242.77 51.328 243.026 51.072 243.282 51.072C243.452 51.072 243.538 51.2 243.538 51.456C243.538 51.584 243.474 51.8187 243.346 52.16C242.407 54.1227 241.618 55.7013 240.978 56.896C240.338 58.0907 239.719 59.0933 239.122 59.904C238.524 60.672 237.82 61.44 237.01 62.208C236.412 62.8053 235.73 63.2533 234.962 63.552C234.194 63.8507 233.426 64 232.658 64ZM237.714 39.552H240.978C241.575 38.4427 242.13 37.3547 242.642 36.288C243.196 35.2213 243.687 34.1547 244.114 33.088C244.412 32.4053 244.668 31.6373 244.882 30.784C245.095 29.9307 245.202 29.2693 245.202 28.8C245.202 28.16 245.052 27.84 244.753 27.84C244.54 27.84 244.22 28.032 243.794 28.416C243.41 28.7573 242.919 29.3547 242.322 30.208C241.554 31.2747 240.786 32.6613 240.018 34.368C239.292 36.032 238.524 37.76 237.714 39.552ZM233.554 49.6C234.791 48.32 235.943 46.9547 237.01 45.504C238.119 44.0533 239.143 42.56 240.082 41.024H237.074C236.391 42.6027 235.751 44.1387 235.154 45.632C234.556 47.1253 234.023 48.448 233.554 49.6ZM245.597 64.192C243.805 64.192 242.589 63.7227 241.949 62.784C241.309 61.8027 240.989 60.6507 240.989 59.328C240.989 57.9627 241.181 56.5547 241.565 55.104C241.949 53.6533 242.29 52.4373 242.589 51.456C243.271 49.0667 244.125 46.528 245.149 43.84C246.215 41.1093 247.367 38.4427 248.605 35.84C249.885 33.1947 251.143 30.8267 252.381 28.736C253.362 27.072 254.407 25.8347 255.517 25.024C256.669 24.1707 257.671 23.744 258.525 23.744C259.207 23.744 259.741 24 260.125 24.512C260.551 24.9813 260.765 25.7067 260.765 26.688C260.765 27.3707 260.637 28.1813 260.381 29.12C260.167 30.0587 259.783 31.1253 259.229 32.32C257.735 35.648 255.943 38.976 253.853 42.304C251.805 45.632 249.202 48.7467 246.045 51.648C245.874 52.2027 245.639 52.864 245.341 53.632C245.085 54.3573 244.85 55.104 244.637 55.872C244.381 57.024 244.253 58.0053 244.253 58.816C244.253 60.1387 244.509 61.1413 245.021 61.824C245.575 62.464 246.237 62.784 247.005 62.784C247.687 62.784 248.413 62.5493 249.181 62.08C249.949 61.568 250.674 60.8427 251.357 59.904C252.381 58.4107 253.298 56.896 254.109 55.36C254.962 53.7813 255.602 52.5653 256.029 51.712C256.285 51.2427 256.562 51.008 256.861 51.008C257.074 51.008 257.181 51.136 257.181 51.392C257.181 51.6053 257.117 51.84 256.989 52.096C256.605 52.9493 256.093 54.0587 255.453 55.424C254.855 56.7467 254.087 58.0907 253.149 59.456C252.253 60.7787 251.165 61.9093 249.885 62.848C248.647 63.744 247.218 64.192 245.597 64.192ZM246.557 49.6C248.093 48.0213 249.586 46.208 251.037 44.16C252.487 42.0693 253.831 39.9147 255.069 37.696C256.349 35.4347 257.415 33.3013 258.269 31.296C258.567 30.656 258.802 29.952 258.973 29.184C259.186 28.416 259.293 27.776 259.293 27.264C259.293 26.6667 259.143 26.368 258.845 26.368C258.674 26.368 258.418 26.5387 258.077 26.88C257.735 27.1787 257.287 27.712 256.733 28.48C255.922 29.5467 255.026 30.9973 254.045 32.832C253.106 34.6667 252.146 36.6293 251.165 38.72C250.183 40.8107 249.287 42.8373 248.477 44.8C247.666 46.72 247.026 48.32 246.557 49.6ZM260.566 64.256C258.987 64.256 257.558 63.744 256.278 62.72C255.04 61.696 254.422 60.1387 254.422 58.048C254.422 56.128 254.891 54.08 255.83 51.904C256.768 49.6853 257.963 47.744 259.414 46.08C260.651 44.6293 262.038 43.4347 263.574 42.496C265.11 41.5573 266.56 41.088 267.926 41.088C268.864 41.088 269.675 41.344 270.358 41.856C271.083 42.4107 271.446 43.2 271.446 44.224C271.446 45.2907 271.04 46.464 270.23 47.744C269.419 49.024 268.267 50.2187 266.774 51.328C266.134 51.7973 265.323 52.2453 264.342 52.672C263.36 53.0987 262.379 53.4613 261.398 53.76C260.416 54.016 259.606 54.144 258.966 54.144C258.752 54.656 258.539 55.3387 258.326 56.192C258.155 57.0453 258.07 57.92 258.07 58.816C258.07 59.8827 258.283 60.8427 258.71 61.696C259.136 62.5493 259.926 62.976 261.078 62.976C262.486 62.976 263.766 62.5707 264.918 61.76C266.07 60.9493 267.094 59.9467 267.99 58.752C268.886 57.5147 269.632 56.2773 270.23 55.04C270.87 53.8027 271.382 52.7573 271.766 51.904C272.022 51.3067 272.363 51.008 272.79 51.008C273.003 51.008 273.11 51.1147 273.11 51.328C273.11 51.4987 273.046 51.712 272.918 51.968C272.32 53.248 271.68 54.6133 270.998 56.064C270.315 57.472 269.504 58.816 268.566 60.096C267.627 61.3333 266.496 62.336 265.174 63.104C263.894 63.872 262.358 64.256 260.566 64.256ZM259.414 52.992C260.011 52.992 261.014 52.7787 262.422 52.352C263.83 51.8827 265.11 51.1573 266.262 50.176C267.371 49.1947 268.224 48.128 268.822 46.976C269.419 45.7813 269.718 44.7787 269.718 43.968C269.718 43.0293 269.376 42.56 268.694 42.56C268.182 42.56 267.478 42.9013 266.582 43.584C265.686 44.2667 264.576 45.4187 263.254 47.04C262.443 48.064 261.675 49.1733 260.95 50.368C260.224 51.5627 259.712 52.4373 259.414 52.992ZM296.33 66.496C295.391 66.496 294.431 66.432 293.45 66.304C290.762 65.9627 288.778 65.1733 287.498 63.936C286.26 62.6987 285.642 61.3547 285.642 59.904C285.642 58.3253 286.346 56.896 287.754 55.616C289.162 54.2933 291.146 53.632 293.706 53.632C295.412 53.632 297.268 53.9733 299.274 54.656C300.383 55.04 301.706 55.68 303.242 56.576C304.778 57.472 306.548 58.4107 308.554 59.392C310.687 57.344 312.628 54.8053 314.378 51.776C316.17 48.7467 317.94 45.504 319.69 42.048C321.482 38.5493 323.402 35.0507 325.45 31.552C327.54 28.0533 329.951 24.768 332.682 21.696L336.394 17.536C334.815 17.28 333.172 17.088 331.466 16.96C329.759 16.7893 327.988 16.704 326.154 16.704C323.85 16.704 321.482 16.832 319.05 17.088C316.618 17.3013 314.186 17.664 311.754 18.176C307.743 19.0293 304.351 20.3947 301.578 22.272C298.804 24.1493 296.692 26.1973 295.242 28.416C293.834 30.592 293.13 32.64 293.13 34.56C293.13 35.8827 293.492 37.0773 294.218 38.144C294.986 39.168 296.116 39.9147 297.61 40.384C298.548 40.6827 299.508 40.832 300.49 40.832C301.94 40.832 303.22 40.5333 304.33 39.936C305.439 39.3387 306.378 38.6133 307.146 37.76C307.914 36.864 308.468 36.0107 308.81 35.2C309.194 34.3893 309.364 33.792 309.322 33.408C309.322 33.1093 309.535 32.96 309.962 32.96C310.388 32.96 310.602 33.28 310.602 33.92V33.984C310.602 35.7333 310.068 37.248 309.002 38.528C307.935 39.808 306.591 40.7893 304.97 41.472C303.391 42.1547 301.791 42.496 300.17 42.496C299.146 42.496 298.079 42.3253 296.97 41.984C294.666 41.1733 292.959 40 291.85 38.464C290.74 36.8853 290.186 35.1573 290.186 33.28C290.186 31.5307 290.655 29.7387 291.594 27.904C292.575 26.0267 294.004 24.256 295.882 22.592C297.759 20.8853 300.084 19.4133 302.858 18.176C305.674 16.9387 308.916 16.064 312.586 15.552C314.548 15.2533 316.49 15.04 318.41 14.912C320.33 14.784 322.186 14.72 323.978 14.72C326.452 14.72 328.863 14.848 331.21 15.104C333.599 15.3173 335.839 15.6587 337.93 16.128C338.527 15.616 339.124 15.168 339.722 14.784C340.362 14.4 340.938 14.1013 341.45 13.888C341.748 13.76 342.004 13.6747 342.218 13.632C342.431 13.5893 342.602 13.568 342.73 13.568C342.986 13.568 343.114 13.6533 343.114 13.824C343.114 14.0373 342.794 14.3787 342.154 14.848C341.727 15.1467 341.322 15.488 340.938 15.872C340.554 16.2133 340.319 16.4693 340.234 16.64C344.586 17.7493 348.106 19.2853 350.794 21.248C353.524 23.168 354.89 25.4507 354.89 28.096C354.89 29.4613 354.442 30.9547 353.546 32.576C352.607 34.1547 351.306 35.4347 349.642 36.416C347.978 37.3547 346.207 38.0587 344.33 38.528C342.452 38.9547 340.703 39.2107 339.082 39.296C340.49 39.7227 342.026 40.3627 343.69 41.216C345.396 42.0267 346.954 43.0293 348.362 44.224C349.812 45.4187 350.772 46.8267 351.242 48.448C351.54 49.472 351.69 50.5173 351.69 51.584C351.69 53.8453 351.028 55.8933 349.706 57.728C348.426 59.5627 346.698 61.1413 344.522 62.464C342.388 63.744 340.042 64.7253 337.482 65.408C334.922 66.1333 332.383 66.496 329.866 66.496C328.927 66.496 327.967 66.432 326.986 66.304C322.89 65.792 319.498 65.152 316.81 64.384C314.164 63.616 311.839 62.7627 309.834 61.824C305.695 64.9387 301.194 66.496 296.33 66.496ZM328.97 64.64C331.615 64.64 334.026 64.2347 336.202 63.424C338.378 62.6133 340.255 61.5467 341.834 60.224C343.455 58.9013 344.692 57.4293 345.546 55.808C346.442 54.1867 346.89 52.5867 346.89 51.008C346.89 49.5147 346.442 48.064 345.546 46.656C344.65 45.248 343.242 44.0747 341.322 43.136C339.658 42.3253 337.93 41.664 336.138 41.152C334.388 40.5973 332.874 40.128 331.594 39.744C330.314 39.3173 329.567 38.8907 329.354 38.464C329.354 37.952 329.567 37.6107 329.994 37.44C330.463 37.2267 331.06 37.12 331.786 37.12C332.639 37.12 333.663 37.184 334.858 37.312C336.052 37.44 337.311 37.504 338.634 37.504C339.999 37.504 341.386 37.2053 342.794 36.608C344.244 35.968 345.567 35.136 346.762 34.112C347.956 33.0453 348.916 31.8933 349.642 30.656C350.41 29.376 350.794 28.0747 350.794 26.752C350.794 25.5573 350.388 24.384 349.577 23.232C348.767 22.08 347.423 21.0773 345.546 20.224C343.668 19.3707 341.642 18.688 339.466 18.176C337.332 21.12 335.199 24.4267 333.066 28.096C330.932 31.7227 328.799 35.4133 326.666 39.168C324.532 42.88 322.378 46.4 320.201 49.728C318.025 53.056 315.85 55.9147 313.674 58.304C313.162 58.8587 312.756 59.2853 312.458 59.584C312.159 59.84 311.754 60.2027 311.242 60.672C313.247 61.4827 315.53 62.2507 318.09 62.976C320.65 63.7013 323.572 64.2133 326.858 64.512C327.199 64.5547 327.54 64.576 327.882 64.576C328.266 64.6187 328.628 64.64 328.97 64.64ZM295.05 64.512C297.439 64.64 299.615 64.3627 301.578 63.68C303.583 62.9547 305.439 61.952 307.146 60.672C305.652 59.9467 304.116 59.2 302.538 58.432C301.002 57.6213 299.359 56.896 297.61 56.256C296.372 55.8293 295.242 55.616 294.218 55.616C292.639 55.616 291.444 56.0427 290.634 56.896C289.823 57.7067 289.418 58.6453 289.418 59.712C289.418 60.8213 289.887 61.888 290.826 62.912C291.764 63.8933 293.172 64.4267 295.05 64.512ZM357.57 64C357.1 64 356.524 63.8933 355.842 63.68C355.202 63.4667 354.626 63.0827 354.114 62.528C353.644 61.9307 353.41 61.056 353.41 59.904C353.41 58.7947 353.666 57.728 354.178 56.704C354.732 55.6373 355.244 54.6133 355.714 53.632C355.586 53.632 355.436 53.5893 355.266 53.504C355.138 53.4187 355.074 53.2907 355.074 53.12C355.074 52.9493 355.116 52.7787 355.202 52.608C355.372 52.2667 355.564 51.904 355.778 51.52C355.991 51.136 356.183 50.7307 356.354 50.304C356.994 48.9813 357.634 47.7227 358.274 46.528C358.914 45.2907 359.468 44.2027 359.938 43.264C360.407 42.3253 361.218 41.856 362.37 41.856H366.338C365.612 42.4107 364.951 43.0293 364.354 43.712C363.799 44.352 363.095 45.5467 362.242 47.296C362.242 47.296 362.092 47.5947 361.794 48.192C361.495 48.7893 361.111 49.5573 360.642 50.496C360.215 51.392 359.767 52.3093 359.298 53.248C358.871 54.1867 358.508 54.976 358.21 55.616C357.655 56.8107 357.292 57.7707 357.122 58.496C356.951 59.1787 356.866 59.8187 356.866 60.416C356.866 61.824 357.335 62.528 358.274 62.528C359.298 62.528 360.535 61.696 361.986 60.032C363.18 58.624 364.354 56.9387 365.506 54.976C366.658 53.0133 367.746 50.9867 368.77 48.896C369.836 46.8053 370.775 44.928 371.586 43.264C372.055 42.3253 372.887 41.856 374.082 41.856H377.602C376.962 42.368 376.428 42.8587 376.002 43.328C375.575 43.7547 375.148 44.352 374.722 45.12C374.338 45.8453 373.804 46.8907 373.122 48.256C372.567 49.408 371.97 50.6453 371.33 51.968C370.732 53.248 370.199 54.464 369.73 55.616C369.26 56.768 368.962 57.7067 368.833 58.432C368.791 58.8587 368.748 59.1787 368.706 59.392C368.663 59.6053 368.642 59.84 368.642 60.096C368.642 60.9067 368.77 61.4827 369.026 61.824C369.324 62.1653 369.666 62.336 370.05 62.336C371.074 62.336 372.098 61.76 373.122 60.608C374.188 59.456 375.191 58.048 376.13 56.384C377.111 54.72 377.943 53.1413 378.626 51.648C378.882 51.1787 379.116 50.944 379.33 50.944C379.586 50.944 379.714 51.0933 379.714 51.392C379.714 51.6053 379.628 51.8613 379.458 52.16C378.988 53.184 378.412 54.3573 377.73 55.68C377.047 57.0027 376.279 58.304 375.426 59.584C374.572 60.864 373.634 61.9307 372.61 62.784C371.586 63.5947 370.476 64 369.282 64C368.215 64 367.34 63.616 366.658 62.848C365.975 62.0373 365.634 60.9067 365.634 59.456C365.634 58.304 365.847 57.0667 366.274 55.744C365.548 57.024 364.716 58.304 363.778 59.584C362.839 60.864 361.836 61.9307 360.77 62.784C359.703 63.5947 358.636 64 357.57 64ZM381.658 64C380.463 64 379.396 63.5947 378.458 62.784C377.519 61.9307 377.049 60.608 377.049 58.816C377.049 57.408 377.306 55.68 377.818 53.632C378.372 51.5413 379.034 49.3867 379.802 47.168C380.612 44.9067 381.402 42.8587 382.17 41.024H378.778C378.479 41.024 378.33 40.8107 378.33 40.384C378.33 40.1707 378.372 39.9787 378.458 39.808C378.586 39.6373 378.756 39.552 378.97 39.552H382.81C383.535 37.9307 384.303 36.352 385.114 34.816C385.924 33.28 386.714 31.8293 387.482 30.464C388.463 28.7573 389.508 27.4773 390.618 26.624C391.727 25.7707 392.687 25.344 393.498 25.344C394.138 25.344 394.671 25.6 395.098 26.112C395.524 26.5813 395.738 27.3067 395.738 28.288C395.738 28.8853 395.61 29.7173 395.354 30.784C395.098 31.808 394.692 32.896 394.138 34.048C393.839 34.6453 393.412 35.4987 392.858 36.608C392.346 37.7173 391.834 38.6987 391.322 39.552H394.394C394.692 39.552 394.842 39.7653 394.842 40.192C394.842 40.3627 394.799 40.5547 394.714 40.768C394.628 40.9387 394.5 41.024 394.33 41.024H390.554C389.487 42.8587 388.271 44.6507 386.906 46.4C385.54 48.1493 383.919 49.8987 382.042 51.648C381.914 52.032 381.743 52.5867 381.53 53.312C381.359 54.0373 381.188 54.784 381.018 55.552C380.89 56.2773 380.762 56.896 380.634 57.408C380.548 57.92 380.506 58.176 380.506 58.176C380.378 58.7307 380.314 59.2427 380.314 59.712C380.314 60.608 380.527 61.2693 380.954 61.696C381.38 62.08 381.871 62.272 382.426 62.272C382.767 62.272 383.108 62.2293 383.45 62.144C383.791 62.016 384.175 61.8027 384.602 61.504C386.095 60.4373 387.396 58.9867 388.506 57.152C389.658 55.3173 390.66 53.5467 391.514 51.84C391.77 51.328 392.026 51.072 392.282 51.072C392.452 51.072 392.538 51.2 392.538 51.456C392.538 51.584 392.474 51.8187 392.346 52.16C391.407 54.1227 390.618 55.7013 389.978 56.896C389.338 58.0907 388.719 59.0933 388.122 59.904C387.524 60.672 386.82 61.44 386.01 62.208C385.412 62.8053 384.73 63.2533 383.962 63.552C383.194 63.8507 382.426 64 381.658 64ZM386.714 39.552H389.978C390.575 38.4427 391.13 37.3547 391.642 36.288C392.196 35.2213 392.687 34.1547 393.114 33.088C393.412 32.4053 393.668 31.6373 393.882 30.784C394.095 29.9307 394.202 29.2693 394.202 28.8C394.202 28.16 394.052 27.84 393.753 27.84C393.54 27.84 393.22 28.032 392.794 28.416C392.41 28.7573 391.919 29.3547 391.322 30.208C390.554 31.2747 389.786 32.6613 389.018 34.368C388.292 36.032 387.524 37.76 386.714 39.552ZM382.554 49.6C383.791 48.32 384.943 46.9547 386.01 45.504C387.119 44.0533 388.143 42.56 389.082 41.024H386.074C385.391 42.6027 384.751 44.1387 384.154 45.632C383.556 47.1253 383.023 48.448 382.554 49.6ZM394.533 64C393.338 64 392.271 63.5947 391.333 62.784C390.394 61.9307 389.924 60.608 389.924 58.816C389.924 57.408 390.181 55.68 390.693 53.632C391.247 51.5413 391.909 49.3867 392.677 47.168C393.487 44.9067 394.277 42.8587 395.045 41.024H391.653C391.354 41.024 391.205 40.8107 391.205 40.384C391.205 40.1707 391.247 39.9787 391.333 39.808C391.461 39.6373 391.631 39.552 391.845 39.552H395.685C396.41 37.9307 397.178 36.352 397.989 34.816C398.799 33.28 399.589 31.8293 400.357 30.464C401.338 28.7573 402.383 27.4773 403.493 26.624C404.602 25.7707 405.562 25.344 406.373 25.344C407.013 25.344 407.546 25.6 407.973 26.112C408.399 26.5813 408.613 27.3067 408.613 28.288C408.613 28.8853 408.485 29.7173 408.229 30.784C407.973 31.808 407.567 32.896 407.013 34.048C406.714 34.6453 406.287 35.4987 405.733 36.608C405.221 37.7173 404.709 38.6987 404.197 39.552H407.269C407.567 39.552 407.717 39.7653 407.717 40.192C407.717 40.3627 407.674 40.5547 407.589 40.768C407.503 40.9387 407.375 41.024 407.205 41.024H403.429C402.362 42.8587 401.146 44.6507 399.781 46.4C398.415 48.1493 396.794 49.8987 394.917 51.648C394.789 52.032 394.618 52.5867 394.405 53.312C394.234 54.0373 394.063 54.784 393.893 55.552C393.765 56.2773 393.637 56.896 393.509 57.408C393.423 57.92 393.381 58.176 393.381 58.176C393.253 58.7307 393.189 59.2427 393.189 59.712C393.189 60.608 393.402 61.2693 393.829 61.696C394.255 62.08 394.746 62.272 395.301 62.272C395.642 62.272 395.983 62.2293 396.325 62.144C396.666 62.016 397.05 61.8027 397.477 61.504C398.97 60.4373 400.271 58.9867 401.381 57.152C402.533 55.3173 403.535 53.5467 404.389 51.84C404.645 51.328 404.901 51.072 405.157 51.072C405.327 51.072 405.413 51.2 405.413 51.456C405.413 51.584 405.349 51.8187 405.221 52.16C404.282 54.1227 403.493 55.7013 402.853 56.896C402.213 58.0907 401.594 59.0933 400.997 59.904C400.399 60.672 399.695 61.44 398.885 62.208C398.287 62.8053 397.605 63.2533 396.837 63.552C396.069 63.8507 395.301 64 394.533 64ZM399.589 39.552H402.853C403.45 38.4427 404.005 37.3547 404.517 36.288C405.071 35.2213 405.562 34.1547 405.989 33.088C406.287 32.4053 406.543 31.6373 406.757 30.784C406.97 29.9307 407.077 29.2693 407.077 28.8C407.077 28.16 406.927 27.84 406.628 27.84C406.415 27.84 406.095 28.032 405.669 28.416C405.285 28.7573 404.794 29.3547 404.197 30.208C403.429 31.2747 402.661 32.6613 401.893 34.368C401.167 36.032 400.399 37.76 399.589 39.552ZM395.429 49.6C396.666 48.32 397.818 46.9547 398.885 45.504C399.994 44.0533 401.018 42.56 401.957 41.024H398.949C398.266 42.6027 397.626 44.1387 397.029 45.632C396.431 47.1253 395.898 48.448 395.429 49.6ZM408.816 64.256C407.237 64.256 405.808 63.744 404.528 62.72C403.29 61.696 402.672 60.1387 402.672 58.048C402.672 56.128 403.141 54.08 404.08 51.904C405.018 49.6853 406.213 47.744 407.664 46.08C408.901 44.6293 410.288 43.4347 411.824 42.496C413.36 41.5573 414.81 41.088 416.176 41.088C417.114 41.088 417.925 41.344 418.608 41.856C419.333 42.4107 419.696 43.2 419.696 44.224C419.696 45.2907 419.29 46.464 418.48 47.744C417.669 49.024 416.517 50.2187 415.024 51.328C414.384 51.7973 413.573 52.2453 412.592 52.672C411.61 53.0987 410.629 53.4613 409.648 53.76C408.666 54.016 407.856 54.144 407.216 54.144C407.002 54.656 406.789 55.3387 406.576 56.192C406.405 57.0453 406.32 57.92 406.32 58.816C406.32 59.8827 406.533 60.8427 406.96 61.696C407.386 62.5493 408.176 62.976 409.328 62.976C410.736 62.976 412.016 62.5707 413.168 61.76C414.32 60.9493 415.344 59.9467 416.24 58.752C417.136 57.5147 417.882 56.2773 418.48 55.04C419.12 53.8027 419.632 52.7573 420.016 51.904C420.272 51.3067 420.613 51.008 421.04 51.008C421.253 51.008 421.36 51.1147 421.36 51.328C421.36 51.4987 421.296 51.712 421.168 51.968C420.57 53.248 419.93 54.6133 419.248 56.064C418.565 57.472 417.754 58.816 416.816 60.096C415.877 61.3333 414.746 62.336 413.424 63.104C412.144 63.872 410.608 64.256 408.816 64.256ZM407.664 52.992C408.261 52.992 409.264 52.7787 410.672 52.352C412.08 51.8827 413.36 51.1573 414.512 50.176C415.621 49.1947 416.474 48.128 417.072 46.976C417.669 45.7813 417.968 44.7787 417.968 43.968C417.968 43.0293 417.626 42.56 416.944 42.56C416.432 42.56 415.728 42.9013 414.832 43.584C413.936 44.2667 412.826 45.4187 411.504 47.04C410.693 48.064 409.925 49.1733 409.2 50.368C408.474 51.5627 407.962 52.4373 407.664 52.992ZM427.763 64.064C426.952 64.064 426.141 63.744 425.331 63.104C424.52 62.4213 424.115 61.3333 424.115 59.84C424.115 58.688 424.392 57.3653 424.947 55.872C425.459 54.4213 426.141 53.0133 426.995 51.648C427.891 50.2827 428.531 49.1733 428.915 48.32C429.043 47.9787 429.107 47.68 429.107 47.424C429.107 46.656 428.616 46.1013 427.635 45.76C426.696 45.4187 425.459 45.2267 423.923 45.184L423.155 47.296C422.685 48.6613 422.024 50.2613 421.171 52.096C420.36 53.9307 419.443 55.7013 418.419 57.408C417.437 59.1147 416.413 60.48 415.346 61.504C415.261 61.5893 415.154 61.632 415.026 61.632C414.856 61.632 414.749 61.5253 414.706 61.312C414.621 61.0987 414.706 60.8427 414.962 60.544C416.627 58.3253 418.12 55.872 419.443 53.184C420.765 50.4533 421.875 47.68 422.771 44.864C423.709 42.048 424.392 39.4453 424.819 37.056C424.947 36.3733 425.181 35.8827 425.523 35.584C425.864 35.2427 426.227 35.072 426.611 35.072C427.165 35.072 427.677 35.3493 428.147 35.904C428.616 36.416 428.851 37.1627 428.851 38.144C428.851 38.3147 428.829 38.5067 428.787 38.72C428.787 38.9333 428.765 39.1467 428.723 39.36C428.552 40.256 428.04 41.1093 427.187 41.92C426.376 42.688 425.715 43.264 425.203 43.648C425.629 43.6907 426.077 43.7333 426.547 43.776C427.016 43.776 427.528 43.776 428.083 43.776C430.088 43.776 432.072 43.648 434.035 43.392C434.12 43.648 434.163 43.84 434.163 43.968C434.163 44.5227 433.992 45.2267 433.651 46.08C433.352 46.9333 433.032 47.7013 432.691 48.384C432.52 48.768 432.179 49.472 431.667 50.496C431.155 51.4773 430.6 52.608 430.003 53.888C429.405 55.1253 428.893 56.3627 428.467 57.6C428.083 58.7947 427.891 59.8187 427.891 60.672C427.891 61.7813 428.317 62.336 429.171 62.336C429.811 62.336 430.515 61.9307 431.283 61.12C432.051 60.2667 432.797 59.2427 433.523 58.048C434.291 56.8107 434.973 55.616 435.571 54.464C436.211 53.2693 436.701 52.3307 437.043 51.648C437.213 51.2213 437.448 51.008 437.747 51.008C437.917 51.008 438.003 51.1573 438.003 51.456C438.003 51.6267 437.939 51.8827 437.811 52.224C437.341 53.2053 436.787 54.3147 436.147 55.552C435.507 56.7893 434.781 58.0053 433.971 59.2C433.203 60.3947 432.349 61.44 431.411 62.336C430.515 63.1893 429.533 63.744 428.467 64C428.339 64.0427 428.104 64.064 427.763 64.064ZM452.706 64.192C450.914 64.192 449.698 63.7227 449.058 62.784C448.418 61.8027 448.098 60.6507 448.098 59.328C448.098 58.5173 448.183 57.6213 448.354 56.64C447.287 58.6027 446.05 60.3307 444.642 61.824C443.277 63.3173 441.762 64.064 440.098 64.064C440.141 64.3627 440.162 64.6613 440.162 64.96C440.162 65.3013 440.162 65.6427 440.162 65.984C440.162 68.2027 439.885 70.5067 439.33 72.896C438.818 75.2853 438.071 77.504 437.09 79.552C436.109 81.6 434.957 83.264 433.634 84.544C432.311 85.824 430.839 86.464 429.218 86.464C428.279 86.464 427.469 86.2293 426.786 85.76C426.061 85.2907 425.698 84.3733 425.698 83.008C425.698 80.8747 426.338 77.9733 427.618 74.304C428.898 70.6347 430.455 66.6027 432.29 62.208C431.778 61.3547 431.522 60.4587 431.522 59.52C431.522 58.0267 431.949 57.0027 432.802 56.448C433.527 55.8507 434.295 55.616 435.106 55.744C436.642 52.288 438.199 48.896 439.778 45.568C441.357 42.1973 442.871 39.0187 444.322 36.032C445.815 33.0453 447.159 30.4213 448.354 28.16C449.079 26.752 449.826 25.664 450.594 24.896C451.405 24.128 452.45 23.744 453.73 23.744C454.114 23.744 454.562 23.8293 455.074 24C455.629 24.128 456.119 24.1707 456.546 24.128C455.565 25.0667 454.327 26.6453 452.834 28.864C451.383 31.04 449.805 33.6427 448.098 36.672C446.391 39.7013 444.642 42.9867 442.85 46.528C441.101 50.0267 439.415 53.5893 437.794 57.216C438.178 57.728 438.562 58.4107 438.946 59.264C439.373 60.1173 439.671 61.0347 439.842 62.016C439.842 62.144 439.863 62.2933 439.906 62.464C439.949 62.592 439.991 62.72 440.034 62.848C441.015 62.8907 441.954 62.5493 442.85 61.824C443.789 61.0987 444.663 60.1387 445.474 58.944C446.327 57.7493 447.095 56.4907 447.778 55.168C448.503 53.8453 449.122 52.608 449.634 51.456C449.677 51.3707 449.719 51.3067 449.762 51.264C450.402 48.8747 451.255 46.336 452.322 43.648C453.389 40.96 454.541 38.336 455.778 35.776C457.015 33.1733 458.253 30.8267 459.49 28.736C460.471 27.072 461.517 25.8347 462.626 25.024C463.778 24.1707 464.781 23.744 465.634 23.744C466.317 23.744 466.85 24 467.234 24.512C467.661 24.9813 467.874 25.7067 467.874 26.688C467.874 27.3707 467.767 28.1387 467.554 28.992C467.341 29.8453 466.935 30.9547 466.338 32.32C464.887 35.648 463.117 38.976 461.026 42.304C458.978 45.632 456.375 48.7467 453.218 51.648C453.047 52.16 452.834 52.7573 452.578 53.44C452.322 54.08 452.087 54.8693 451.874 55.808C451.703 56.6613 451.575 57.3013 451.49 57.728C451.447 58.1547 451.426 58.56 451.426 58.944C451.426 60.224 451.682 61.184 452.194 61.824C452.706 62.4213 453.346 62.72 454.114 62.72C454.797 62.72 455.522 62.4853 456.29 62.016C457.058 61.5467 457.783 60.8427 458.466 59.904C459.533 58.4107 460.493 56.896 461.346 55.36C462.199 53.7813 462.839 52.5653 463.266 51.712C463.522 51.2427 463.778 51.008 464.034 51.008C464.29 51.008 464.418 51.1573 464.418 51.456C464.418 51.6267 464.354 51.84 464.226 52.096C463.799 52.9493 463.266 54.0587 462.626 55.424C461.986 56.7467 461.197 58.0907 460.258 59.456C459.362 60.7787 458.274 61.9093 456.994 62.848C455.757 63.744 454.327 64.192 452.706 64.192ZM453.73 49.6C455.266 48.0213 456.759 46.208 458.21 44.16C459.661 42.112 461.005 39.9787 462.242 37.76C463.522 35.5413 464.589 33.3867 465.442 31.296C465.741 30.656 465.975 29.952 466.146 29.184C466.359 28.416 466.466 27.776 466.466 27.264C466.466 26.6667 466.317 26.368 466.018 26.368C465.847 26.368 465.57 26.5387 465.186 26.88C464.845 27.1787 464.397 27.712 463.842 28.48C463.074 29.5467 462.199 30.9973 461.218 32.832C460.279 34.6667 459.319 36.6293 458.338 38.72C457.399 40.8107 456.525 42.8373 455.714 44.8C454.903 46.72 454.242 48.32 453.73 49.6ZM438.306 63.104H438.626C438.583 61.9947 438.391 61.0347 438.05 60.224C437.794 59.6267 437.474 59.1147 437.09 58.688C436.834 59.2853 436.599 59.84 436.386 60.352C436.215 60.8213 436.002 61.3547 435.746 61.952C436.13 62.72 436.983 63.104 438.306 63.104ZM430.178 84.736C430.605 84.736 431.117 84.48 431.714 83.968C432.311 83.4987 432.887 82.88 433.442 82.112C434.509 80.704 435.447 78.976 436.258 76.928C437.069 74.88 437.709 72.7467 438.178 70.528C438.647 68.3093 438.861 66.24 438.818 64.32C438.733 64.32 438.626 64.32 438.498 64.32C438.413 64.3627 438.327 64.384 438.242 64.384C437.687 64.384 437.111 64.2773 436.514 64.064C435.917 63.8507 435.426 63.5947 435.042 63.296C433.933 66.1547 432.909 68.9707 431.97 71.744C430.989 74.56 430.242 77.0347 429.73 79.168C429.559 79.9787 429.431 80.6827 429.346 81.28C429.261 81.8773 429.218 82.3893 429.218 82.816C429.218 84.096 429.538 84.736 430.178 84.736ZM454.631 84.416C452.413 84.416 450.834 83.968 449.895 83.072C448.957 82.2187 448.487 81.1947 448.487 80C448.487 79.36 448.573 78.8053 448.743 78.336C448.914 77.8667 449.17 77.2693 449.511 76.544C450.109 75.3067 450.941 74.24 452.007 73.344C453.074 72.448 454.226 71.7227 455.464 71.168C457.682 70.144 460.2 69.312 463.016 68.672C465.874 68.032 468.605 67.328 471.208 66.56C472.018 65.152 472.765 63.552 473.448 61.76C474.13 59.9253 474.749 58.1547 475.304 56.448C475.858 54.6987 476.306 53.2693 476.648 52.16C476.136 53.0987 475.474 54.2507 474.664 55.616C473.896 56.9387 473.021 58.24 472.04 59.52C471.058 60.8 469.992 61.8667 468.84 62.72C467.73 63.5733 466.557 64 465.32 64C464.85 64 464.274 63.8933 463.592 63.68C462.952 63.4667 462.376 63.0827 461.864 62.528C461.394 61.9307 461.16 61.056 461.16 59.904C461.16 58.7947 461.416 57.728 461.928 56.704C462.482 55.6373 462.994 54.6133 463.464 53.632C463.336 53.632 463.186 53.5893 463.016 53.504C462.888 53.4187 462.824 53.2907 462.824 53.12C462.824 52.9493 462.866 52.7787 462.952 52.608C463.122 52.2667 463.314 51.904 463.528 51.52C463.741 51.136 463.933 50.7307 464.104 50.304C464.744 48.9813 465.384 47.7227 466.024 46.528C466.664 45.2907 467.218 44.2027 467.688 43.264C468.157 42.3253 468.968 41.856 470.12 41.856H474.088C473.789 42.112 473.405 42.4107 472.936 42.752C472.509 43.0507 472.104 43.52 471.72 44.16C470.568 46.1227 469.565 48.0213 468.712 49.856C467.858 51.648 466.941 53.568 465.96 55.616C465.49 56.5973 465.149 57.4933 464.936 58.304C464.722 59.1147 464.616 59.8187 464.616 60.416C464.616 61.824 465.085 62.528 466.024 62.528C467.048 62.528 468.285 61.696 469.736 60.032C470.93 58.624 472.125 56.96 473.32 55.04C474.557 53.0773 475.73 51.072 476.84 49.024C477.992 46.9333 478.994 45.0133 479.848 43.264C480.317 42.3253 481.149 41.856 482.344 41.856H485.864C484.626 42.7093 483.666 43.8187 482.984 45.184C482.344 46.5493 481.618 48.2987 480.808 50.432C479.912 52.7787 479.058 55.2107 478.248 57.728C477.48 60.2027 476.605 62.6987 475.624 65.216C477.032 64.7467 478.61 64.0213 480.36 63.04C482.152 62.0587 483.666 60.6507 484.904 58.816C485.885 57.3653 486.717 55.9787 487.4 54.656C488.125 53.2907 488.637 52.3093 488.936 51.712C489.106 51.2853 489.341 51.072 489.64 51.072C489.938 51.072 490.088 51.264 490.088 51.648C490.088 51.8613 490.024 52.096 489.896 52.352C488.786 54.5707 487.784 56.448 486.888 57.984C486.034 59.4773 485.074 60.7787 484.008 61.888C482.984 62.9547 481.725 63.8933 480.232 64.704C478.738 65.5573 476.84 66.4107 474.536 67.264C473.512 69.0987 472.338 70.9973 471.016 72.96C469.736 74.9653 468.264 76.8213 466.6 78.528C464.978 80.2773 463.165 81.6853 461.16 82.752C459.197 83.8613 457.021 84.416 454.631 84.416ZM453.095 83.136C454.503 83.136 455.954 82.7093 457.447 81.856C458.941 81.0027 460.391 79.9147 461.799 78.592C463.207 77.312 464.488 75.9893 465.64 74.624C466.834 73.3013 467.794 72.128 468.52 71.104C468.733 70.8053 468.968 70.4213 469.224 69.952C469.48 69.4827 469.736 69.0347 469.992 68.608C467.901 69.1627 465.597 69.76 463.08 70.4C460.605 71.0827 458.45 71.8293 456.615 72.64C454.567 73.4933 452.967 74.7093 451.815 76.288C450.621 77.8667 450.023 79.2747 450.023 80.512C450.023 81.28 450.279 81.8987 450.791 82.368C451.261 82.88 452.029 83.136 453.095 83.136Z" fill="#D315FF"/>
</svg>
