<svg width="279" height="124" viewBox="0 0 279 124" fill="none" xmlns="http://www.w3.org/2000/svg">
<path d="M153.908 0.399496C153.908 0.783001 153.974 0.798981 155.109 0.798981C156.244 0.798981 156.31 0.783001 156.31 0.399496C156.31 0.015991 156.244 1.1649e-05 155.109 1.1649e-05C153.974 1.1649e-05 153.908 0.015991 153.908 0.399496Z" fill="#D315FF"/>
<path d="M150.525 0.271678C150.284 0.303637 149.87 0.367555 149.608 0.415493C149.28 0.463431 149.106 0.607245 149.106 0.798998C149.106 1.15054 149.346 1.1825 150.699 1.02271C151.376 0.926833 151.507 0.846936 151.507 0.543328C151.507 0.159823 151.376 0.127864 150.525 0.271678Z" fill="#D315FF"/>
<path d="M158.711 0.46341C158.711 0.782998 159.279 0.958771 160.414 0.958771C160.96 0.958771 161.113 0.894853 161.113 0.655163C161.113 0.287637 160.698 0.159802 159.563 0.159802C158.864 0.159802 158.711 0.223719 158.711 0.46341Z" fill="#D315FF"/>
<path d="M212.328 0.303616C212.066 0.591245 212.481 0.958771 213.049 0.958771C214.053 0.958771 214.599 0.782998 214.599 0.46341C214.599 0.20774 214.424 0.159802 213.529 0.159802C212.918 0.159802 212.394 0.223719 212.328 0.303616Z" fill="#D315FF"/>
<path d="M217.044 0.511353C217.109 0.830941 217.262 0.878879 218.266 0.926817C219.358 0.974755 219.401 0.958776 219.401 0.575271C219.401 0.175786 219.336 0.159807 218.179 0.159807C217.044 0.159807 216.978 0.175786 217.044 0.511353Z" fill="#D315FF"/>
<path d="M208.661 0.751051C207.875 0.910845 207.613 1.05466 207.613 1.27837C207.613 1.43816 207.678 1.61394 207.787 1.6459C208.071 1.75775 210.014 1.26239 210.014 1.07064C209.992 0.591257 209.687 0.527339 208.661 0.751051Z" fill="#D315FF"/>
<path d="M221.803 0.862887C221.803 1.18247 221.956 1.26237 222.894 1.39021C224.073 1.56598 224.204 1.53402 224.204 1.10258C224.204 0.894845 223.92 0.78299 223.113 0.655155C222.501 0.559278 221.956 0.479381 221.912 0.479381C221.847 0.479381 221.803 0.655155 221.803 0.862887Z" fill="#D315FF"/>
<path d="M163.449 0.942782C163.318 1.34227 163.339 1.34227 164.584 1.59794C165.348 1.74175 165.566 1.74175 165.719 1.56598C166.09 1.13453 165.828 0.974741 164.256 0.73505C163.689 0.639174 163.558 0.671132 163.449 0.942782Z" fill="#D315FF"/>
<path d="M145.329 1.08661C144.456 1.29435 144.325 1.39022 144.434 1.66187C144.521 1.85362 144.587 2.01342 144.63 2.0294C144.652 2.07734 146.726 1.59795 146.857 1.53404C146.966 1.47012 146.639 0.798985 146.508 0.814965C146.442 0.814965 145.918 0.9428 145.329 1.08661Z" fill="#D315FF"/>
<path d="M226.518 1.53403C226.278 1.96548 226.366 2.04537 227.392 2.333C228.243 2.57269 228.418 2.57269 228.592 2.38094C228.898 2.0294 228.745 1.90156 227.654 1.58197C226.759 1.3263 226.628 1.3263 226.518 1.53403Z" fill="#D315FF"/>
<path d="M204.054 2.01341C203.159 2.36496 203.05 2.44486 203.247 2.71651C203.465 3.02012 203.487 3.02012 204.447 2.68455C205.059 2.46084 205.43 2.22115 205.43 2.06135C205.43 1.61393 205.168 1.59795 204.054 2.01341Z" fill="#D315FF"/>
<path d="M168.033 2.09331C167.946 2.34898 168.099 2.47682 168.906 2.76444C169.889 3.11599 169.889 3.11599 170.194 2.7964C170.5 2.49279 170.456 2.46084 169.474 2.12527C168.164 1.69383 168.164 1.69383 168.033 2.09331Z" fill="#D315FF"/>
<path d="M140.766 2.41291C139.915 2.7325 139.696 3.13198 140.242 3.29177C140.744 3.43559 142.404 2.7325 142.251 2.46085C142.185 2.31703 142.12 2.17322 142.12 2.14126C142.12 1.99744 141.53 2.1093 140.766 2.41291Z" fill="#D315FF"/>
<path d="M230.885 2.97217C230.819 3.11599 230.754 3.24382 230.754 3.27578C230.754 3.30774 231.19 3.51547 231.736 3.7232C232.718 4.12269 232.718 4.12269 232.958 3.8031C233.089 3.62733 233.155 3.46753 233.111 3.45155C232.718 3.24382 231.343 2.7165 231.19 2.7165C231.103 2.7165 230.95 2.82836 230.885 2.97217Z" fill="#D315FF"/>
<path d="M172.312 3.67527C172.072 3.94691 172.137 4.04279 173.032 4.49021C173.927 4.93764 174.08 4.9696 174.255 4.74588C174.364 4.60207 174.451 4.44228 174.451 4.37836C174.451 4.29846 172.77 3.35568 172.618 3.35568C172.596 3.35568 172.443 3.49949 172.312 3.67527Z" fill="#D315FF"/>
<path d="M199.928 3.80309C199.077 4.25052 198.946 4.45825 199.339 4.74588C199.513 4.87371 199.841 4.79381 200.539 4.42629C201.325 4.0268 201.434 3.89897 201.26 3.6433C200.976 3.27577 200.889 3.27577 199.928 3.80309Z" fill="#D315FF"/>
<path d="M136.728 4.17062C135.723 4.68196 135.636 4.8098 136.094 5.09742C136.313 5.22526 136.597 5.16134 137.295 4.79382C138.081 4.37835 138.168 4.2665 137.972 3.99485C137.841 3.81907 137.71 3.67526 137.688 3.67526C137.666 3.69124 137.23 3.89897 136.728 4.17062Z" fill="#D315FF"/>
<path d="M234.967 4.77784C234.749 5.03351 234.836 5.14536 235.6 5.59279C236.408 6.07217 236.495 6.08815 236.823 5.84846C237.172 5.59279 237.128 5.54485 236.32 5.03351C235.294 4.39433 235.294 4.39433 234.967 4.77784Z" fill="#D315FF"/>
<path d="M176.154 5.84846C175.914 6.05619 176.001 6.18403 176.678 6.67939C177.442 7.22269 177.508 7.25464 177.857 6.98299C178.206 6.72732 178.184 6.67939 177.486 6.15207C176.656 5.51289 176.547 5.49691 176.154 5.84846Z" fill="#D315FF"/>
<path d="M196.195 6.20001C195.562 6.67939 195.453 6.85517 195.649 6.99898C196.064 7.30259 196.348 7.23867 197.134 6.63145C197.745 6.16805 197.811 6.04022 197.57 5.83249C197.177 5.49692 197.112 5.5129 196.195 6.20001Z" fill="#D315FF"/>
<path d="M132.885 6.5196C132.099 7.11083 132.078 7.14279 132.47 7.39846C132.842 7.65413 132.907 7.63815 133.649 7.06289C134.348 6.55155 134.413 6.4397 134.173 6.18403C134.02 6.04021 133.846 5.91238 133.78 5.91238C133.737 5.91238 133.322 6.18403 132.885 6.5196Z" fill="#D315FF"/>
<path d="M238.547 7.0629C238.22 7.25465 238.263 7.33455 238.962 7.86187C239.77 8.51702 239.923 8.56496 240.316 8.27733C240.49 8.1495 240.403 7.95774 239.901 7.47836C239.158 6.80723 239.071 6.77527 238.547 7.0629Z" fill="#D315FF"/>
<path d="M179.451 8.38919C179.254 8.56497 179.32 8.74074 179.909 9.25208C180.477 9.7794 180.673 9.87527 181.001 9.73146C181.547 9.52373 181.525 9.50775 180.739 8.7727C179.997 8.08558 179.844 8.03765 179.451 8.38919Z" fill="#D315FF"/>
<path d="M193.03 8.86856C192.331 9.57165 192.331 9.57165 192.789 9.74742C193.03 9.85928 193.27 9.90722 193.292 9.87526C193.313 9.8433 193.619 9.55567 193.947 9.22011C194.449 8.74072 194.514 8.58093 194.296 8.38918C193.903 8.05361 193.837 8.08557 193.03 8.86856Z" fill="#D315FF"/>
<path d="M129.698 9.20413C129.021 9.89124 128.999 9.93918 129.37 10.1309C129.72 10.3227 129.851 10.2747 130.506 9.63557C130.92 9.25207 131.204 8.9165 131.161 8.88454C131.139 8.86856 130.942 8.77268 130.746 8.66083C130.462 8.50104 130.287 8.58093 129.698 9.20413Z" fill="#D315FF"/>
<path d="M241.494 9.79537C241.276 9.98713 241.669 10.5784 242.455 11.3134C242.477 11.3454 242.717 11.2974 242.957 11.1856C243.415 11.0098 243.415 11.0098 242.761 10.3067C242.04 9.5397 241.865 9.45981 241.494 9.79537Z" fill="#D315FF"/>
<path d="M182.311 11.1696C182.049 11.2815 182.114 11.4412 182.594 12.0485C183.206 12.8155 183.293 12.8634 183.795 12.6397C184.057 12.5278 183.992 12.368 183.511 11.7608C182.9 10.9938 182.813 10.9459 182.311 11.1696Z" fill="#D315FF"/>
<path d="M190.846 11.2335C190.737 11.3294 190.475 11.665 190.257 11.9686C189.886 12.4959 189.886 12.5278 190.279 12.7356C190.475 12.8474 190.672 12.9273 190.694 12.8954C190.715 12.8794 190.999 12.5278 191.327 12.1124C191.894 11.3933 191.916 11.3613 191.501 11.2016C191.174 11.0737 190.999 11.0897 190.846 11.2335Z" fill="#D315FF"/>
<path d="M127.013 12.2402C126.598 12.8634 126.576 12.9753 126.838 13.1031C127.362 13.3588 127.471 13.2949 127.973 12.5278C128.388 11.9046 128.41 11.7928 128.148 11.665C127.624 11.4093 127.515 11.4732 127.013 12.2402Z" fill="#D315FF"/>
<path d="M243.918 12.7356C243.547 12.8315 243.568 12.9433 244.07 13.8222C244.442 14.4773 244.551 14.5412 244.944 14.3815C245.359 14.2217 245.359 14.2057 244.966 13.4706C244.551 12.7036 244.398 12.5918 243.918 12.7356Z" fill="#D315FF"/>
<path d="M184.646 14.2376C184.297 14.3814 184.297 14.4454 184.756 15.1485C185.018 15.5639 185.236 15.9155 185.258 15.9474C185.28 15.9794 185.498 15.9314 185.76 15.8356C186.196 15.6598 186.196 15.6598 185.716 14.8608C185.192 13.9979 185.192 13.9979 184.646 14.2376Z" fill="#D315FF"/>
<path d="M188.205 14.8928C187.943 15.3402 187.768 15.7237 187.79 15.7397C187.834 15.7716 188.052 15.8196 188.292 15.8835C188.642 15.9634 188.794 15.8515 189.122 15.2923C189.58 14.4613 189.58 14.4294 189.078 14.2376C188.729 14.0938 188.62 14.1737 188.205 14.8928Z" fill="#D315FF"/>
<path d="M125.004 15.4201C124.611 16.1552 124.677 16.4588 125.223 16.4588C125.681 16.4588 126.511 15.0046 126.139 14.8289C125.594 14.5892 125.375 14.701 125.004 15.4201Z" fill="#D315FF"/>
<path d="M245.424 16.1232C245.206 16.2191 245.184 16.3949 245.402 16.9861C245.62 17.6253 245.73 17.7371 246.188 17.7371C246.581 17.7371 246.69 17.6732 246.603 17.4495C246.537 17.3057 246.428 16.9062 246.341 16.5706C246.21 15.9794 245.97 15.8675 245.424 16.1232Z" fill="#D315FF"/>
<path d="M186.306 17.6572C186.197 17.849 186.371 18.4083 186.808 19.3351C186.873 19.4629 187.092 19.1593 187.332 18.632C187.659 17.8809 187.703 17.6572 187.485 17.5454C187.026 17.3536 186.437 17.4016 186.306 17.6572Z" fill="#D315FF"/>
<path d="M123.694 18.3283C123.629 18.4881 123.52 18.8876 123.432 19.2232C123.301 19.7985 123.323 19.8464 123.804 19.7825C124.197 19.7505 124.349 19.5747 124.568 18.9835C124.699 18.568 124.764 18.2005 124.699 18.1526C124.437 17.9448 123.804 18.0727 123.694 18.3283Z" fill="#D315FF"/>
<path d="M246.035 19.7665C246.035 19.9263 246.101 20.3258 246.188 20.6613C246.297 21.1567 246.384 21.2686 246.777 21.2206C247.039 21.1887 247.214 21.1247 247.192 21.0448C247.149 20.9809 247.127 20.6134 247.127 20.2139C247.127 19.5588 247.083 19.4948 246.581 19.4948C246.21 19.4948 246.035 19.5747 246.035 19.7665Z" fill="#D315FF"/>
<path d="M122.821 21.7959C122.756 21.9717 122.69 22.4031 122.69 22.7227C122.69 23.266 122.756 23.3299 123.236 23.3299C123.76 23.3299 123.782 23.282 123.782 22.467C123.782 21.7639 123.716 21.5882 123.367 21.5242C123.061 21.4763 122.908 21.5562 122.821 21.7959Z" fill="#D315FF"/>
<path d="M246.254 23.7294C246.254 24.1289 246.254 24.4964 246.254 24.5603C246.232 24.6402 246.428 24.7041 246.647 24.7361C246.974 24.7681 247.105 24.6562 247.214 24.2727C247.476 23.282 247.389 23.0103 246.799 23.0103C246.297 23.0103 246.254 23.0742 246.254 23.7294Z" fill="#D315FF"/>
<path d="M122.69 25.3593C122.69 25.5191 122.756 25.9186 122.843 26.2541C122.952 26.7495 123.039 26.8614 123.432 26.8134C123.694 26.7815 123.891 26.6696 123.869 26.5577C123.847 26.4619 123.825 26.0784 123.825 25.7268C123.782 25.1516 123.716 25.0876 123.236 25.0876C122.865 25.0876 122.69 25.1675 122.69 25.3593Z" fill="#D315FF"/>
<path d="M245.948 26.5577C245.882 26.6696 245.817 27.0691 245.751 27.4366C245.664 28.0279 245.708 28.1077 246.144 28.1717C246.603 28.2356 246.668 28.1557 246.799 27.4366C246.908 26.8454 246.887 26.6057 246.668 26.5098C246.254 26.3181 246.035 26.334 245.948 26.5577Z" fill="#D315FF"/>
<path d="M123.716 28.5552C123.476 28.6031 123.367 28.7309 123.432 28.8907C123.498 29.0345 123.607 29.434 123.694 29.7696C123.804 30.2969 123.891 30.3608 124.306 30.265C124.546 30.201 124.786 30.1531 124.808 30.1371C124.895 30.0892 124.349 28.4433 124.24 28.4593C124.175 28.4753 123.935 28.5072 123.716 28.5552Z" fill="#D315FF"/>
<path d="M245.075 30.4727C244.856 31.4474 244.9 31.6392 245.359 31.6392C245.904 31.6392 245.948 31.5753 246.123 30.6325C246.275 29.9134 246.254 29.8815 245.752 29.8815C245.315 29.8815 245.206 29.9773 245.075 30.4727Z" fill="#D315FF"/>
<path d="M124.611 32.0546C124.415 32.1825 125.157 33.7165 125.397 33.7165C126.03 33.7005 126.118 33.4768 125.812 32.7098C125.594 32.1825 125.397 31.9588 125.113 31.9588C124.895 31.9588 124.677 32.0067 124.611 32.0546Z" fill="#D315FF"/>
<path d="M244.07 33.9083C243.939 34.2918 243.808 34.6593 243.787 34.7392C243.765 34.8191 243.961 34.9309 244.223 35.0108C244.638 35.1227 244.703 35.0588 244.944 34.3237C245.162 33.6686 245.162 33.4928 244.922 33.3809C244.42 33.1412 244.311 33.2052 244.07 33.9083Z" fill="#D315FF"/>
<path d="M126.336 35.3624C126.03 35.5382 126.03 35.6181 126.358 36.2572C126.751 36.9923 126.991 37.1521 127.449 36.9443C127.646 36.8325 127.646 36.6567 127.362 36.0655C126.969 35.2026 126.816 35.0907 126.336 35.3624Z" fill="#D315FF"/>
<path d="M242.87 36.7366C242.804 36.8325 242.608 37.184 242.433 37.5356C242.171 38.0949 242.171 38.1748 242.477 38.2547C243.044 38.4144 243.132 38.3665 243.525 37.6155C243.852 36.9923 243.852 36.8485 243.612 36.7366C243.219 36.5608 243.044 36.5608 242.87 36.7366Z" fill="#D315FF"/>
<path d="M127.973 38.6541C127.733 38.766 127.755 38.9258 128.148 39.4851C128.759 40.3639 128.694 40.316 129.196 40.2041C129.632 40.0923 129.632 40.0923 129.174 39.3093C128.715 38.5103 128.519 38.3985 127.973 38.6541Z" fill="#D315FF"/>
<path d="M240.796 40.5397C240.272 41.4186 240.272 41.3387 240.796 41.5464C241.189 41.7062 241.276 41.6423 241.669 40.9871C242.215 40.0603 242.215 40.0124 241.669 39.9005C241.32 39.8366 241.145 39.9645 240.796 40.5397Z" fill="#D315FF"/>
<path d="M130.113 41.866C129.829 41.9938 129.851 42.1216 130.309 42.7448C130.855 43.5119 130.92 43.5438 131.423 43.3041C131.685 43.1763 131.663 43.0644 131.248 42.4412C130.746 41.6742 130.637 41.6103 130.113 41.866Z" fill="#D315FF"/>
<path d="M238.635 43.7356C238.242 44.3268 238.198 44.5026 238.438 44.5985C238.897 44.8222 238.984 44.7742 239.595 44.0072C240.075 43.416 240.141 43.2402 239.901 43.1284C239.355 42.8727 239.137 42.9846 238.635 43.7356Z" fill="#D315FF"/>
<path d="M132.449 44.934C132.143 45.1258 132.143 45.2057 132.667 45.8129C133.213 46.5 133.737 46.6918 133.955 46.2763C134.042 46.0845 133.104 44.7423 132.885 44.7423C132.842 44.7423 132.645 44.8382 132.449 44.934Z" fill="#D315FF"/>
<path d="M236.19 46.7237C235.622 47.3948 235.622 47.4108 236.059 47.6026C236.517 47.8263 236.452 47.8742 237.347 46.8356C237.718 46.4041 237.74 46.2763 237.499 46.1644C236.975 45.9247 236.779 46.0046 236.19 46.7237Z" fill="#D315FF"/>
<path d="M134.937 47.9861C134.763 48.1459 134.872 48.3696 135.374 48.865C135.942 49.4402 136.094 49.5041 136.444 49.3443C136.88 49.1366 136.859 49.0887 136.051 48.2897C135.461 47.7304 135.309 47.6825 134.937 47.9861Z" fill="#D315FF"/>
<path d="M233.461 49.5521C232.871 50.1753 232.871 50.2232 233.242 50.4309C233.613 50.6227 233.722 50.5747 234.356 49.9675C234.88 49.4881 235.011 49.2325 234.858 49.0887C234.465 48.7531 234.115 48.8809 233.461 49.5521Z" fill="#D315FF"/>
<path d="M137.775 50.7985C137.535 50.9103 137.622 51.0861 138.19 51.6773C138.801 52.3005 138.976 52.3804 139.26 52.2206C139.456 52.1088 139.653 52.0129 139.696 51.9809C139.806 51.933 138.408 50.6547 138.234 50.6547C138.146 50.6547 137.95 50.7186 137.775 50.7985Z" fill="#D315FF"/>
<path d="M230.579 52.1407C229.793 52.732 229.706 52.9716 230.251 53.1314C230.819 53.2753 232.194 52.1727 231.823 51.8371C231.474 51.5175 231.365 51.5495 230.579 52.1407Z" fill="#D315FF"/>
<path d="M30.3232 53.499C28.4021 54.4098 26.1754 56.583 25.2148 58.5325C23.8831 61.201 23.512 65.9948 24.407 68.4557C24.669 69.1588 25.0838 69.9737 25.3239 70.2613C25.9134 70.9964 25.8697 71.0923 25.1493 70.5969C24.8218 70.3732 24.2324 70.1495 23.8613 70.1175C23.2063 70.0536 23.1627 70.0696 23.2937 70.4371C23.4028 70.8046 23.3592 70.8206 22.8352 70.7567C22.3986 70.6928 22.3113 70.7247 22.4641 70.8366C22.5951 70.9325 22.7042 71.1722 22.7042 71.3479C22.7042 71.5397 22.9444 71.8593 23.25 72.067C23.9268 72.5304 23.8394 72.6263 22.988 72.3067C20.019 71.2201 13.0768 71.4758 7.96831 72.866C6.15634 73.3613 3.99507 74.416 2.42324 75.5665C1.13521 76.5093 0 77.8516 0 78.4268C0 78.8902 0.829578 79.3536 3.07817 80.1206C4.23521 80.5201 6.11268 81.3031 7.24789 81.8624C9.56197 83.0129 10.8063 83.3165 12.269 83.0608C13.2732 82.901 14.7141 82.182 16.0458 81.1912C16.5042 80.8237 16.9627 80.5361 17.05 80.5361C17.1155 80.5361 17.1373 81.0314 17.0718 81.6546C16.9845 82.5495 17.0718 83.0129 17.5521 84.0995C18.4254 86.1928 20.3901 87.599 23.0317 88.0624C23.643 88.1583 24.5599 88.4299 25.0838 88.6376C26.0225 89.0371 26.1099 89.0371 28.0528 88.8773C29.8211 88.7335 30.3014 88.6217 31.9606 87.9505C33.2704 87.4392 34.0345 87.0237 34.4056 86.6242C34.6894 86.3046 35.1479 85.8572 35.4099 85.6016C35.8683 85.1861 35.8683 85.1222 35.6063 84.0835C35.4535 83.4923 35.257 82.7253 35.1697 82.3737C34.9951 81.6546 34.1873 80.3603 32.6592 78.3309C32.0916 77.6119 31.7204 77.0206 31.8077 77.0206C31.9169 77.0206 32.8993 77.5959 33.9908 78.299C36.1958 79.6892 36.8944 80.0247 36.8944 79.7211C36.8944 79.6093 35.8901 78.7943 34.6676 77.8835C33.4451 76.9727 32.5063 76.2217 32.5937 76.2217C32.681 76.2217 33.5761 76.5093 34.6021 76.8608C35.6282 77.2124 37.1563 77.6758 38.0296 77.8835C39.5577 78.251 42.7451 78.5866 43.8803 78.4907C44.8627 78.3949 46.6092 76.9088 47.5916 75.3108C48.3775 74.0165 48.4648 73.7289 48.4648 72.6103C48.4648 71.3799 48.443 71.3 47.0239 69.2227C45.7359 67.3211 45.4303 67.0015 44.3824 66.3943C43.0725 65.6433 42.3521 65.4515 39.9289 65.1799C38.5754 65.0201 38.1169 65.0361 37.1563 65.2278C36.5451 65.3717 36.0211 65.4356 36.0211 65.4036C36.0211 65.3557 36.5451 64.8284 37.2 64.2531C38.619 62.9747 39.0338 62.3835 39.2085 61.4567C39.4049 60.4979 38.6627 59.3634 36.8944 57.9253C36.1521 57.3021 35.1916 56.3753 34.7768 55.8479C32.3099 52.732 32.157 52.6521 30.3232 53.499Z" fill="#D315FF"/>
<path d="M140.788 53.6268C140.548 53.8345 140.635 53.9624 141.312 54.4577C142.032 54.9691 142.142 55.017 142.447 54.7933C142.731 54.5856 142.709 54.4897 142.098 53.9624C141.356 53.3072 141.203 53.2593 140.788 53.6268Z" fill="#D315FF"/>
<path d="M227.261 54.7294C226.562 55.2567 226.54 55.3046 226.889 55.5603C227.239 55.832 227.304 55.8 228.068 55.2567C228.745 54.7613 228.832 54.6335 228.592 54.4258C228.199 54.0742 228.09 54.0902 227.261 54.7294Z" fill="#D315FF"/>
<path d="M144.085 56.1675C143.844 56.3753 143.91 56.5031 144.521 56.9665C145.329 57.5897 145.722 57.6536 145.918 57.2541C146.006 57.0784 145.831 56.8067 145.351 56.4552C144.565 55.848 144.456 55.832 144.085 56.1675Z" fill="#D315FF"/>
<path d="M223.855 57.1103C223.047 57.6376 223.025 57.6696 223.397 57.9412C223.768 58.2289 223.811 58.2129 224.575 57.6376C225.318 57.1103 225.361 57.0304 225.056 56.8067C224.75 56.583 224.641 56.615 223.855 57.1103Z" fill="#D315FF"/>
<path d="M147.578 58.5644C147.337 58.7722 147.403 58.9 148.014 59.3634C148.822 59.9706 149.128 60.0345 149.521 59.7149C149.695 59.5552 149.608 59.4113 149.149 59.1077C147.992 58.3407 147.883 58.2928 147.578 58.5644Z" fill="#D315FF"/>
<path d="M220.275 59.5232C219.62 60.0186 219.576 60.1144 219.86 60.3222C220.166 60.5459 220.275 60.5139 221.039 60.0345C221.803 59.5552 221.868 59.4593 221.606 59.2196C221.213 58.868 221.126 58.884 220.275 59.5232Z" fill="#D315FF"/>
<path d="M151.332 60.7536C150.896 61.0732 151.027 61.2969 151.922 61.7603C153.385 62.4954 153.821 61.8722 152.424 61.0572C151.769 60.6897 151.507 60.6258 151.332 60.7536Z" fill="#D315FF"/>
<path d="M216.782 61.9201C216.127 62.4155 216.083 62.5114 216.367 62.7191C216.673 62.9428 216.782 62.9108 217.546 62.4315C218.31 61.9521 218.375 61.8562 218.113 61.6165C217.72 61.265 217.633 61.2809 216.782 61.9201Z" fill="#D315FF"/>
<path d="M19.2113 61.7923C19.2113 61.8562 19.4733 62.1918 19.8226 62.5433C20.15 62.8789 20.674 63.7577 21.0014 64.4608C21.3289 65.1799 21.5909 65.6753 21.5909 65.5794C21.6345 65.2278 20.5212 62.6232 20.1719 62.2397C19.8444 61.8722 19.2113 61.5845 19.2113 61.7923Z" fill="#D315FF"/>
<path d="M155 63.0387C154.847 63.1825 154.76 63.3103 154.803 63.3263C154.847 63.3583 155.284 63.598 155.786 63.8856C156.463 64.2691 156.746 64.333 156.921 64.2052C157.336 63.9016 157.227 63.7098 156.332 63.2304C155.327 62.7191 155.349 62.7351 155 63.0387Z" fill="#D315FF"/>
<path d="M213.442 64.365C212.699 64.9242 212.656 65.0041 212.961 65.1959C213.267 65.3876 213.42 65.3237 214.118 64.8284C214.839 64.301 214.882 64.2211 214.577 63.9974C214.293 63.7897 214.162 63.8217 213.442 64.365Z" fill="#D315FF"/>
<path d="M158.973 65.0681C158.58 65.3557 158.646 65.4516 159.606 66.0108C160.436 66.4902 160.523 66.5062 160.851 66.2505C161.2 66.0108 161.178 65.9629 160.567 65.5954C159.541 64.9562 159.235 64.8763 158.973 65.0681Z" fill="#D315FF"/>
<path d="M21.6344 66.0907C21.6344 66.2665 21.6986 66.3144 21.7627 66.1866C21.8269 66.0748 21.8055 65.9309 21.7413 65.883C21.6772 65.8191 21.6131 65.915 21.6344 66.0907Z" fill="#D315FF"/>
<path d="M210.036 66.9057C209.425 67.433 209.403 67.5289 209.687 67.7366C209.992 67.9603 210.101 67.9124 210.822 67.401C211.499 66.9057 211.586 66.7778 211.346 66.5701C210.931 66.2026 210.778 66.2505 210.036 66.9057Z" fill="#D315FF"/>
<path d="M162.641 67.3531C162.401 67.5608 162.466 67.6887 163.078 68.1521C163.885 68.7593 164.191 68.8232 164.584 68.4876C164.78 68.3119 164.649 68.1521 163.951 67.6887C162.947 67.0175 162.99 67.0335 162.641 67.3531Z" fill="#D315FF"/>
<path d="M22.2893 68.0083C22.2893 68.184 22.3535 68.232 22.4176 68.1041C22.4818 67.9923 22.4604 67.8485 22.3962 67.8005C22.3321 67.7366 22.268 67.8325 22.2893 68.0083Z" fill="#D315FF"/>
<path d="M10.7408 68.7433C10.8718 69.0309 12.269 69.5103 13.2514 69.6062L14.081 69.6701L13.1641 69.4624C12.6838 69.3345 11.9634 69.0789 11.6141 68.8871C10.8718 68.5036 10.6317 68.4717 10.7408 68.7433Z" fill="#D315FF"/>
<path d="M206.98 69.4304C206.216 70.0696 206.172 70.1974 206.587 70.4531C206.805 70.5809 207.001 70.517 207.416 70.1814C208.508 69.3026 208.551 69.2227 208.093 69.0469C207.722 68.9031 207.547 68.967 206.98 69.4304Z" fill="#D315FF"/>
<path d="M166.134 69.75C165.959 69.8938 165.937 70.0536 166.046 70.1175C166.156 70.1814 166.549 70.4371 166.942 70.6928C167.531 71.0923 167.706 71.1242 167.989 70.9485C168.295 70.7567 168.251 70.6768 167.509 70.1175C166.592 69.4304 166.527 69.4144 166.134 69.75Z" fill="#D315FF"/>
<path d="M14.474 69.7818C14.6705 69.814 14.9762 69.814 15.129 69.7818C15.26 69.7335 15.1071 69.7012 14.736 69.7012C14.3867 69.7012 14.2557 69.7335 14.474 69.7818Z" fill="#D315FF"/>
<path d="M15.7839 69.9416C15.9803 69.9738 16.3296 69.9738 16.548 69.9416C16.7444 69.8932 16.5698 69.861 16.155 69.861C15.7402 69.861 15.5656 69.8932 15.7839 69.9416Z" fill="#D315FF"/>
<path d="M17.9015 70.1495C19.0149 70.3572 20.805 70.501 20.0409 70.3253C19.7134 70.2454 18.9275 70.1335 18.2944 70.0856C17.3557 70.0217 17.2902 70.0217 17.9015 70.1495Z" fill="#D315FF"/>
<path d="M203.749 72.2108C203.225 72.6742 203.115 72.866 203.312 73.0098C203.727 73.3134 204.011 73.2175 204.731 72.5624C205.233 72.115 205.342 71.9072 205.146 71.7634C204.753 71.4758 204.491 71.5557 203.749 72.2108Z" fill="#D315FF"/>
<path d="M169.649 72.1629C169.387 72.3866 169.474 72.4985 170.194 73.0418C170.827 73.5052 171.089 73.617 171.308 73.4892C171.461 73.3773 171.592 73.2655 171.592 73.2016C171.592 73.0897 170.129 71.9072 170.02 71.9072C169.976 71.9232 169.823 72.0351 169.649 72.1629Z" fill="#D315FF"/>
<path d="M200.911 74.7835C200.19 75.4387 200.103 75.6784 200.561 75.8062C201.085 75.966 202.461 74.8155 202.111 74.5119C201.762 74.2083 201.435 74.2722 200.911 74.7835Z" fill="#D315FF"/>
<path d="M173.054 74.7356C172.749 75.0072 172.77 75.0711 173.491 75.6464C174.189 76.1897 174.299 76.2376 174.604 76.0139C174.888 75.7902 174.866 75.6943 174.233 75.1191C173.84 74.7516 173.491 74.4639 173.469 74.4639C173.425 74.4639 173.251 74.5918 173.054 74.7356Z" fill="#D315FF"/>
<path d="M197.898 77.6598C197.396 78.1871 197.352 78.3309 197.57 78.5387C197.963 78.8742 198.051 78.8423 198.728 78.1232C199.23 77.6119 199.317 77.4361 199.099 77.2603C198.706 76.9088 198.575 76.9567 197.898 77.6598Z" fill="#D315FF"/>
<path d="M176.176 77.4201C175.98 77.5959 176.045 77.7717 176.635 78.283C177.224 78.8263 177.399 78.9062 177.682 78.7464C177.879 78.6345 178.075 78.5387 178.119 78.5067C178.228 78.4588 176.787 77.1804 176.613 77.1804C176.525 77.1804 176.329 77.2923 176.176 77.4201Z" fill="#D315FF"/>
<path d="M195.104 80.4082C194.492 81.0474 194.449 81.4948 195.016 81.4948C195.3 81.4948 196.479 80.4242 196.479 80.1686C196.479 80.1206 196.304 80.0088 196.108 79.9129C195.78 79.801 195.584 79.8969 195.104 80.4082Z" fill="#D315FF"/>
<path d="M179.232 80.1366C179.014 80.3284 179.101 80.4881 179.669 81.0155C180.258 81.5588 180.433 81.6227 180.782 81.4789C181.197 81.3191 181.175 81.2871 180.52 80.616C179.734 79.833 179.625 79.7851 179.232 80.1366Z" fill="#D315FF"/>
<path d="M37.1345 80.2644C36.7633 80.6 37.6366 81.1433 38.095 80.8557C38.4007 80.6639 38.4007 80.616 38.0732 80.3603C37.6366 79.9928 37.4619 79.9928 37.1345 80.2644Z" fill="#D315FF"/>
<path d="M39.8022 81.96C39.5541 82.1748 39.6154 82.289 40.315 82.8742C41.0581 83.461 41.1873 83.5137 41.479 83.3005C41.7926 83.0881 41.7307 82.9899 40.9663 82.3864C40.2019 81.7828 40.0728 81.7301 39.8022 81.96Z" fill="#D315FF"/>
<path d="M182.245 82.885C181.896 83.1247 181.918 83.1887 182.551 83.8278C183.118 84.4191 183.293 84.499 183.577 84.3392C183.773 84.2273 183.97 84.1314 184.013 84.0995C184.057 84.0835 182.725 82.6134 182.616 82.6134C182.616 82.6134 182.442 82.7253 182.245 82.885Z" fill="#D315FF"/>
<path d="M192.266 83.2686C191.763 83.7799 191.676 83.9557 191.894 84.1314C192.287 84.483 192.418 84.4351 193.095 83.732C193.597 83.2046 193.641 83.0608 193.423 82.8531C193.03 82.5175 192.942 82.5495 192.266 83.2686Z" fill="#D315FF"/>
<path d="M43.0043 84.6035C42.8239 84.7568 42.9696 84.954 43.6066 85.457C44.3928 86.0614 44.4789 86.0965 44.8149 85.8689C45.1503 85.6573 45.1096 85.5759 44.3653 85.021C43.4287 84.3472 43.3638 84.3288 43.0043 84.6035Z" fill="#D315FF"/>
<path d="M185.061 85.7294C184.668 85.9371 184.69 85.9851 185.345 86.6882C185.934 87.3273 186.087 87.3912 186.393 87.2155C186.611 87.1036 186.808 87.0077 186.851 86.9758C186.895 86.9598 186.109 86.0969 185.585 85.6175C185.498 85.5536 185.28 85.6016 185.061 85.7294Z" fill="#D315FF"/>
<path d="M189.493 86.1608C188.86 86.8 188.838 86.8479 189.209 87.0557C189.558 87.2315 189.668 87.1995 190.104 86.816C190.999 86.017 191.065 85.8412 190.584 85.6495C190.213 85.5057 190.06 85.5696 189.493 86.1608Z" fill="#D315FF"/>
<path d="M46.5 87.0077C46.2599 87.2155 46.3254 87.3433 46.9367 87.8067C47.7226 88.4139 48.0064 88.4778 48.4212 88.1742C48.6176 88.0304 48.5085 87.8546 47.8754 87.3753C46.9585 86.6881 46.893 86.6722 46.5 87.0077Z" fill="#D315FF"/>
<path d="M186.786 89.0211C186.218 89.6284 186.196 89.7083 186.546 89.9479C186.873 90.1876 186.917 90.1717 187.332 89.8041L187.746 89.4046L188.205 89.8361C188.576 90.2036 188.729 90.2515 189.078 90.1077C189.471 89.9639 189.493 89.916 189.166 89.5165C188.554 88.7655 188.314 88.5737 187.834 88.4619C187.463 88.382 187.266 88.4938 186.786 89.0211Z" fill="#D315FF"/>
<path d="M49.993 89.4046C49.7528 89.6124 49.8183 89.7402 50.4296 90.2036C51.2155 90.8108 51.4993 90.8747 51.9141 90.5711C52.1106 90.4273 52.0014 90.2516 51.3683 89.7722C50.4514 89.0851 50.3859 89.0691 49.993 89.4046Z" fill="#D315FF"/>
<path d="M184.035 91.9454C183.38 92.6644 183.38 92.6644 183.839 92.8402C184.319 93.032 184.45 92.9521 185.236 92.0093C185.563 91.6098 185.542 91.5619 185.149 91.4021C184.778 91.2583 184.625 91.3382 184.035 91.9454Z" fill="#D315FF"/>
<path d="M190.344 91.5938C190.017 91.7536 190.039 91.8495 190.628 92.5366C191.196 93.2237 191.305 93.2876 191.698 93.1119C191.916 93.016 192.091 92.8882 192.069 92.8402C191.742 92.3928 190.89 91.4021 190.803 91.4181C190.737 91.4181 190.541 91.498 190.344 91.5938Z" fill="#D315FF"/>
<path d="M53.5295 91.7536C53.1366 92.0412 53.2021 92.1371 54.1626 92.6964C54.9486 93.1598 55.0795 93.1758 55.3852 92.968C55.6908 92.7443 55.6253 92.6644 54.8831 92.1371C53.9225 91.4979 53.9007 91.482 53.5295 91.7536Z" fill="#D315FF"/>
<path d="M57.0007 94.1665C56.826 94.3263 56.9789 94.518 57.6338 94.9974C58.4852 95.6046 58.507 95.6046 58.8345 95.301C59.1183 95.0294 59.0965 94.9655 58.3324 94.4861C57.4155 93.8948 57.35 93.8789 57.0007 94.1665Z" fill="#D315FF"/>
<path d="M181.306 94.7577C180.804 95.2851 180.76 95.4289 180.979 95.6366C181.372 95.9722 181.459 95.9402 182.136 95.2211C182.638 94.7098 182.725 94.534 182.507 94.3583C182.114 94.0067 181.983 94.0546 181.306 94.7577Z" fill="#D315FF"/>
<path d="M192.92 94.6139C192.571 94.7577 192.593 94.8376 193.204 95.4928C193.794 96.116 193.946 96.1799 194.318 96.0201C194.711 95.8763 194.732 95.8124 194.449 95.5088C194.274 95.317 194.012 94.9974 193.837 94.7897C193.488 94.3902 193.466 94.3902 192.92 94.6139Z" fill="#D315FF"/>
<path d="M60.6683 96.4516C60.45 96.6593 60.5155 96.7871 61.1923 97.2665C61.8472 97.7619 62.0218 97.8258 62.3056 97.65C62.8078 97.3464 62.7423 97.2346 61.8035 96.6913C61.0613 96.2598 60.9303 96.2279 60.6683 96.4516Z" fill="#D315FF"/>
<path d="M178.359 97.4902C177.704 98.0815 177.682 98.1614 178.01 98.401C178.316 98.6407 178.403 98.6088 179.101 98.0175C179.996 97.2825 180.018 97.2186 179.473 97.0108C179.145 96.867 178.949 96.9629 178.359 97.4902Z" fill="#D315FF"/>
<path d="M195.606 97.5541C195.322 97.7938 195.409 97.9376 196.37 98.8325C196.675 99.1201 196.719 99.1201 197.046 98.8804C197.374 98.6407 197.352 98.5768 196.785 97.9696C196.086 97.2505 195.999 97.2186 195.606 97.5541Z" fill="#D315FF"/>
<path d="M64.2486 98.7366C64.0085 99.0242 64.074 99.1201 64.7944 99.5356C65.7113 100.095 65.7768 100.111 66.1261 99.8072C66.3444 99.6155 66.2352 99.4717 65.5585 99.0083C65.1 98.6887 64.6852 98.433 64.6198 98.433C64.5543 98.433 64.3796 98.5768 64.2486 98.7366Z" fill="#D315FF"/>
<path d="M175.194 100.031C174.386 100.638 174.364 100.686 174.713 100.942C175.063 101.213 175.128 101.181 175.98 100.574C176.809 99.951 176.831 99.9191 176.438 99.6634C176.067 99.4077 176.001 99.4237 175.194 100.031Z" fill="#D315FF"/>
<path d="M198.684 100.239C198.509 100.398 198.662 100.59 199.317 101.07C200.125 101.645 200.212 101.677 200.539 101.437C200.867 101.213 200.823 101.134 200.059 100.606C199.099 99.967 199.033 99.951 198.684 100.239Z" fill="#D315FF"/>
<path d="M67.8944 100.974C67.7197 101.229 67.8071 101.357 68.5711 101.805C69.4007 102.284 69.488 102.3 69.8155 102.044C70.1648 101.805 70.143 101.757 69.5317 101.389C68.3965 100.686 68.1564 100.638 67.8944 100.974Z" fill="#D315FF"/>
<path d="M171.744 102.556C171.024 103.083 170.958 103.211 171.242 103.371C171.635 103.61 172.115 103.451 172.88 102.843C173.316 102.508 173.36 102.396 173.12 102.188C172.727 101.853 172.661 101.869 171.744 102.556Z" fill="#D315FF"/>
<path d="M202.177 102.652C201.827 102.955 203.639 104.09 204.054 103.834C204.469 103.578 204.404 103.435 203.639 102.907C202.832 102.38 202.548 102.332 202.177 102.652Z" fill="#D315FF"/>
<path d="M71.5838 103.163C71.3437 103.371 71.4092 103.467 71.9549 103.802C73.0683 104.489 73.3085 104.537 73.5704 104.202C73.7451 103.946 73.6577 103.818 72.9373 103.403C71.9549 102.827 71.9549 102.827 71.5838 103.163Z" fill="#D315FF"/>
<path d="M168.251 104.761C167.553 105.224 167.465 105.368 167.662 105.64C167.902 105.943 167.946 105.927 168.884 105.368C169.801 104.809 169.845 104.761 169.496 104.489C169.277 104.313 169.103 104.186 169.103 104.186C169.081 104.186 168.71 104.441 168.251 104.761Z" fill="#D315FF"/>
<path d="M206.128 104.697C205.692 105.017 205.823 105.24 206.761 105.72C207.635 106.151 207.678 106.167 207.962 105.863C208.137 105.704 208.246 105.56 208.202 105.544C208.18 105.528 207.766 105.304 207.263 105.017C206.587 104.633 206.303 104.569 206.128 104.697Z" fill="#D315FF"/>
<path d="M75.4478 105.288C75.1204 105.544 75.164 105.608 76.1027 106.103C76.9978 106.567 77.1506 106.598 77.3253 106.375C77.6091 105.991 77.5873 105.959 76.6485 105.464C75.8408 105.032 75.7753 105.017 75.4478 105.288Z" fill="#D315FF"/>
<path d="M164.431 106.902C163.623 107.334 163.536 107.413 163.776 107.685C164.06 108.037 164.278 107.989 165.37 107.318C165.959 106.966 166.003 106.902 165.675 106.662C165.37 106.439 165.261 106.455 164.431 106.902Z" fill="#D315FF"/>
<path d="M209.818 106.966C209.599 107.158 209.73 107.286 210.538 107.685C211.695 108.26 211.673 108.26 211.957 107.877C212.153 107.621 212.044 107.509 211.324 107.158C210.32 106.678 210.167 106.662 209.818 106.966Z" fill="#D315FF"/>
<path d="M79.2683 107.365C79.05 107.637 79.1374 107.749 79.9669 108.164C80.6874 108.532 80.993 108.596 81.1895 108.452C81.5824 108.164 81.4733 107.957 80.6 107.541C79.5085 106.998 79.5303 106.998 79.2683 107.365Z" fill="#D315FF"/>
<path d="M160.698 108.756C160.283 108.963 159.847 109.155 159.737 109.187C159.606 109.219 159.628 109.379 159.781 109.587L160.021 109.922L161.004 109.491C162.008 109.043 162.182 108.82 161.724 108.532C161.528 108.42 161.222 108.484 160.698 108.756Z" fill="#D315FF"/>
<path d="M213.856 108.931C213.704 109.235 213.747 109.283 214.839 109.746C215.428 110.002 215.668 110.05 215.865 109.906C216.258 109.619 216.192 109.507 215.319 109.059C214.358 108.596 214.053 108.564 213.856 108.931Z" fill="#D315FF"/>
<path d="M83.1542 109.395C82.9796 109.555 82.9577 109.682 83.0887 109.746C84.6387 110.513 84.9662 110.609 85.1627 110.402C85.4901 110.018 85.381 109.874 84.4859 109.491C83.4817 109.075 83.5253 109.075 83.1542 109.395Z" fill="#D315FF"/>
<path d="M156.266 110.625C155.371 111.009 155.349 111.025 155.655 111.376C155.83 111.568 155.982 111.552 156.856 111.248C157.576 110.993 157.838 110.801 157.794 110.609C157.685 110.21 157.183 110.226 156.266 110.625Z" fill="#D315FF"/>
<path d="M218.004 110.673C217.83 111.025 217.982 111.169 219.009 111.552C219.729 111.824 219.925 111.84 220.078 111.664C220.384 111.328 220.318 111.248 219.336 110.817C218.223 110.338 218.179 110.338 218.004 110.673Z" fill="#D315FF"/>
<path d="M87.3677 111.089C86.931 111.408 87.062 111.616 88.0881 112.015C88.9395 112.367 89.1141 112.383 89.2888 112.175C89.5944 111.84 89.5726 111.808 89.0268 111.552C88.743 111.424 88.3282 111.232 88.0662 111.121C87.7169 110.945 87.5641 110.945 87.3677 111.089Z" fill="#D315FF"/>
<path d="M152.118 112.143C151.332 112.399 151.027 112.846 151.507 113.054C151.616 113.102 152.14 112.99 152.642 112.798C153.799 112.367 153.734 112.431 153.559 112.111C153.406 111.808 153.166 111.808 152.118 112.143Z" fill="#D315FF"/>
<path d="M222.239 112.415C221.912 112.703 221.868 112.687 223.091 113.134C224.03 113.47 224.073 113.486 224.357 113.198C224.619 112.926 224.554 112.862 223.724 112.543C222.589 112.111 222.589 112.111 222.239 112.415Z" fill="#D315FF"/>
<path d="M91.3627 112.99C91.1881 113.374 91.1226 113.326 92.3233 113.773C93.0874 114.061 93.3057 114.077 93.4585 113.901C93.7642 113.565 93.6987 113.486 92.7163 113.054C91.5592 112.575 91.5374 112.575 91.3627 112.99Z" fill="#D315FF"/>
<path d="M147.556 113.581C146.857 113.821 146.77 113.901 146.944 114.205L147.119 114.572L148.167 114.237C149.411 113.853 149.368 113.885 149.193 113.549C149.018 113.23 148.582 113.246 147.556 113.581Z" fill="#D315FF"/>
<path d="M226.606 113.949C226.3 114.332 226.256 114.285 227.413 114.716C228.527 115.131 228.505 115.131 228.789 114.732C228.985 114.46 228.898 114.38 227.937 114.013L226.846 113.613L226.606 113.949Z" fill="#D315FF"/>
<path d="M95.6198 114.556C95.4233 114.844 95.5106 114.908 96.4057 115.195C97.6501 115.611 97.7155 115.611 97.8684 115.211C97.9557 114.956 97.781 114.828 96.9951 114.572C95.7944 114.189 95.9036 114.189 95.6198 114.556Z" fill="#D315FF"/>
<path d="M143.386 114.7C142.36 114.94 142.185 115.099 142.513 115.467C142.775 115.771 144.739 115.275 144.739 114.892C144.739 114.46 144.543 114.428 143.386 114.7Z" fill="#D315FF"/>
<path d="M230.95 115.387C230.666 115.787 230.601 115.723 231.889 116.138L232.937 116.474L233.177 116.154C233.46 115.755 233.526 115.819 232.238 115.403L231.19 115.068L230.95 115.387Z" fill="#D315FF"/>
<path d="M100.095 115.867C99.9205 116.25 99.8768 116.218 100.99 116.458C102.235 116.729 102.431 116.697 102.344 116.314C102.3 116.058 102.016 115.914 101.296 115.755C100.75 115.627 100.292 115.531 100.27 115.531C100.248 115.531 100.161 115.675 100.095 115.867Z" fill="#D315FF"/>
<path d="M138.583 115.723C138.016 115.835 137.754 115.978 137.754 116.154C137.754 116.586 137.928 116.634 139.02 116.426C139.806 116.282 140.046 116.154 140.046 115.914C140.046 115.563 139.675 115.499 138.583 115.723Z" fill="#D315FF"/>
<path d="M134.042 116.474C133.453 116.554 133.256 116.649 133.213 116.953C133.125 117.321 133.169 117.337 133.977 117.241C134.435 117.177 134.981 117.129 135.199 117.129C135.483 117.129 135.57 117.033 135.527 116.777C135.461 116.378 135.177 116.314 134.042 116.474Z" fill="#D315FF"/>
<path d="M235.556 116.474C235.556 116.554 235.513 116.729 235.447 116.857C235.36 117.001 235.622 117.161 236.255 117.337C237.521 117.688 237.783 117.672 237.696 117.273C237.652 117.033 237.325 116.841 236.604 116.634C236.015 116.474 235.556 116.394 235.556 116.474Z" fill="#D315FF"/>
<path d="M104.701 116.745C104.505 117.129 104.723 117.241 105.902 117.369C106.797 117.464 106.928 117.448 107.037 117.145C107.146 116.793 107.016 116.745 105.64 116.57C105.007 116.49 104.811 116.522 104.701 116.745Z" fill="#D315FF"/>
<path d="M129.065 117.081C128.475 117.145 128.344 117.209 128.41 117.496C128.454 117.688 128.606 117.848 128.759 117.832C128.89 117.816 129.414 117.8 129.894 117.784C130.68 117.768 130.768 117.72 130.768 117.369C130.768 116.953 130.702 116.937 129.065 117.081Z" fill="#D315FF"/>
<path d="M109.373 117.432C109.373 117.768 109.701 117.88 110.901 117.96C111.535 117.992 111.666 117.96 111.731 117.672C111.775 117.401 111.644 117.305 111.098 117.225C109.854 117.049 109.373 117.097 109.373 117.432Z" fill="#D315FF"/>
<path d="M124.699 117.416C123.629 117.464 123.542 117.496 123.694 117.816C123.891 118.295 123.847 118.295 125.026 118.136C125.965 118.024 126.074 117.96 125.987 117.688C125.878 117.416 125.703 117.369 124.699 117.416Z" fill="#D315FF"/>
<path d="M114.176 117.832C114.176 118.231 114.242 118.247 115.399 118.247C116.534 118.247 116.599 118.231 116.534 117.88C116.468 117.576 116.315 117.528 115.333 117.48C114.22 117.432 114.176 117.448 114.176 117.832Z" fill="#D315FF"/>
<path d="M240.032 117.736C239.835 118.136 239.923 118.215 240.949 118.471C242.258 118.807 242.324 118.791 242.324 118.359C242.324 118.056 242.128 117.944 241.232 117.752C240.316 117.544 240.141 117.544 240.032 117.736Z" fill="#D315FF"/>
<path d="M118.979 118.024C118.979 118.423 119.023 118.439 119.808 118.343C120.245 118.295 120.791 118.247 121.009 118.247C121.227 118.247 121.38 118.12 121.38 117.928C121.38 117.64 121.227 117.608 120.18 117.608C119.023 117.608 118.979 117.624 118.979 118.024Z" fill="#D315FF"/>
<path d="M244.638 118.839C244.551 118.982 244.572 119.142 244.66 119.206C244.834 119.318 246.756 119.702 246.821 119.638C246.843 119.622 246.908 119.446 246.996 119.27C247.127 118.967 247.018 118.903 246.166 118.743C244.9 118.519 244.791 118.519 244.638 118.839Z" fill="#D315FF"/>
<path d="M249.31 119.718C249.31 120.053 249.463 120.133 250.336 120.277C251.493 120.485 251.711 120.437 251.711 120.021C251.711 119.829 251.493 119.702 251.078 119.638C250.729 119.59 250.205 119.494 249.877 119.43C249.375 119.35 249.31 119.382 249.31 119.718Z" fill="#D315FF"/>
<path d="M254.004 120.485C253.916 120.676 253.894 120.852 253.938 120.868C254.025 120.916 256.187 121.268 256.209 121.236C256.23 121.22 256.296 121.044 256.383 120.868C256.492 120.58 256.427 120.517 255.881 120.437C255.532 120.389 255.008 120.293 254.702 120.245C254.266 120.165 254.113 120.213 254.004 120.485Z" fill="#D315FF"/>
<path d="M258.697 121.252C258.697 121.667 258.784 121.699 260.072 121.843C261.011 121.955 261.099 121.939 261.099 121.635C261.099 121.22 261.011 121.188 259.745 121.044C258.784 120.932 258.697 120.948 258.697 121.252Z" fill="#D315FF"/>
<path d="M263.5 121.843C263.5 121.971 263.5 122.13 263.478 122.194C263.478 122.274 263.959 122.402 264.57 122.498C265.487 122.658 265.683 122.642 265.771 122.45C266.011 122.019 265.902 121.955 264.81 121.779C263.435 121.555 263.5 121.555 263.5 121.843Z" fill="#D315FF"/>
<path d="M268.194 122.562C267.997 123.009 267.997 122.993 269.307 123.121C270.311 123.233 270.442 123.201 270.551 122.897C270.639 122.626 270.53 122.562 269.853 122.466C269.416 122.418 268.892 122.338 268.696 122.306C268.477 122.258 268.281 122.354 268.194 122.562Z" fill="#D315FF"/>
<path d="M272.887 123.201C272.887 123.521 273.018 123.553 274.59 123.744C275.223 123.824 275.289 123.792 275.289 123.457C275.289 123.041 274.83 122.881 273.608 122.881C273.04 122.881 272.887 122.945 272.887 123.201Z" fill="#D315FF"/>
<path d="M277.69 123.601C277.69 123.936 277.799 124 278.345 124C278.891 124 279 123.936 279 123.601C279 123.265 278.891 123.201 278.345 123.201C277.799 123.201 277.69 123.265 277.69 123.601Z" fill="#D315FF"/>
</svg>
