<svg width="49" height="36" viewBox="0 0 49 36" fill="none" xmlns="http://www.w3.org/2000/svg">
<path d="M30.3232 0.459863C28.4021 1.37069 26.1754 3.54388 25.2148 5.49337C23.8831 8.16193 23.512 12.9557 24.407 15.4166C24.669 16.1197 25.0838 16.9346 25.3239 17.2222C25.9134 17.9573 25.8697 18.0532 25.1493 17.5578C24.8218 17.3341 24.2324 17.1104 23.8613 17.0784C23.2063 17.0145 23.1627 17.0305 23.2937 17.398C23.4028 17.7655 23.3592 17.7815 22.8352 17.7176C22.3986 17.6537 22.3113 17.6856 22.4641 17.7975C22.5951 17.8934 22.7042 18.1331 22.7042 18.3088C22.7042 18.5006 22.9444 18.8202 23.25 19.0279C23.9268 19.4913 23.8394 19.5872 22.988 19.2676C20.019 18.181 13.0768 18.4367 7.96831 19.8269C6.15634 20.3222 3.99507 21.3769 2.42324 22.5274C1.13521 23.4702 0 24.8124 0 25.3877C0 25.8511 0.829578 26.3145 3.07817 27.0815C4.23521 27.481 6.11268 28.264 7.24789 28.8233C9.56197 29.9738 10.8063 30.2774 12.269 30.0217C13.2732 29.8619 14.7141 29.1429 16.0458 28.1521C16.5042 27.7846 16.9627 27.497 17.05 27.497C17.1155 27.497 17.1373 27.9923 17.0718 28.6155C16.9845 29.5104 17.0718 29.9738 17.5521 31.0604C18.4254 33.1537 20.3901 34.5599 23.0317 35.0233C23.643 35.1191 24.5599 35.3908 25.0838 35.5985C26.0225 35.998 26.1099 35.998 28.0528 35.8382C29.8211 35.6944 30.3014 35.5825 31.9606 34.9114C33.2704 34.4001 34.0345 33.9846 34.4056 33.5851C34.6894 33.2655 35.1479 32.8181 35.4099 32.5624C35.8683 32.147 35.8683 32.0831 35.6063 31.0444C35.4535 30.4532 35.257 29.6862 35.1697 29.3346C34.9951 28.6155 34.1873 27.3212 32.6592 25.2918C32.0916 24.5728 31.7204 23.9815 31.8077 23.9815C31.9169 23.9815 32.8993 24.5568 33.9908 25.2599C36.1958 26.6501 36.8944 26.9856 36.8944 26.682C36.8944 26.5702 35.8901 25.7552 34.6676 24.8444C33.4451 23.9336 32.5063 23.1825 32.5937 23.1825C32.681 23.1825 33.5761 23.4702 34.6021 23.8217C35.6282 24.1733 37.1563 24.6367 38.0296 24.8444C39.5577 25.2119 42.7451 25.5475 43.8803 25.4516C44.8627 25.3557 46.6092 23.8697 47.5916 22.2717C48.3775 20.9774 48.4648 20.6898 48.4648 19.5712C48.4648 18.3408 48.443 18.2609 47.0239 16.1836C45.7359 14.282 45.4303 13.9624 44.3824 13.3552C43.0725 12.6042 42.3521 12.4124 39.9289 12.1408C38.5754 11.981 38.1169 11.997 37.1563 12.1887C36.5451 12.3325 36.0211 12.3965 36.0211 12.3645C36.0211 12.3166 36.5451 11.7892 37.2 11.214C38.619 9.93564 39.0338 9.3444 39.2085 8.4176C39.4049 7.45883 38.6627 6.3243 36.8944 4.88615C36.1521 4.26296 35.1916 3.33615 34.7768 2.80883C32.3099 -0.307147 32.157 -0.387044 30.3232 0.459863Z" fill="#D315FF"/>
<path d="M19.2113 8.75316C19.2113 8.81708 19.4733 9.15265 19.8226 9.50419C20.15 9.83976 20.674 10.7186 21.0014 11.4217C21.3289 12.1408 21.5909 12.6362 21.5909 12.5403C21.6345 12.1887 20.5212 9.58409 20.1719 9.20058C19.8444 8.83306 19.2113 8.54543 19.2113 8.75316Z" fill="#D315FF"/>
<path d="M21.6344 13.0516C21.6344 13.2274 21.6986 13.2753 21.7627 13.1475C21.8269 13.0356 21.8055 12.8918 21.7413 12.8439C21.6772 12.78 21.6131 12.8758 21.6344 13.0516Z" fill="#D315FF"/>
<path d="M22.2893 14.9691C22.2893 15.1449 22.3535 15.1929 22.4176 15.065C22.4818 14.9532 22.4604 14.8094 22.3962 14.7614C22.3321 14.6975 22.268 14.7934 22.2893 14.9691Z" fill="#D315FF"/>
<path d="M10.7408 15.7042C10.8718 15.9918 12.269 16.4712 13.2514 16.5671L14.081 16.631L13.1641 16.4233C12.6838 16.2954 11.9634 16.0398 11.6141 15.848C10.8718 15.4645 10.6317 15.4325 10.7408 15.7042Z" fill="#D315FF"/>
<path d="M14.474 16.7427C14.6705 16.7749 14.9762 16.7749 15.129 16.7427C15.26 16.6943 15.1071 16.6621 14.736 16.6621C14.3867 16.6621 14.2557 16.6943 14.474 16.7427Z" fill="#D315FF"/>
<path d="M15.7839 16.9025C15.9803 16.9347 16.3296 16.9347 16.548 16.9025C16.7444 16.8541 16.5698 16.8219 16.155 16.8219C15.7402 16.8219 15.5656 16.8541 15.7839 16.9025Z" fill="#D315FF"/>
<path d="M17.9015 17.1104C19.0149 17.3181 20.805 17.4619 20.0409 17.2862C19.7134 17.2063 18.9275 17.0944 18.2944 17.0465C17.3557 16.9825 17.2902 16.9825 17.9015 17.1104Z" fill="#D315FF"/>
</svg>
